<svg viewBox="-375,-375,750,750" style="" xmlns="http://www.w3.org/2000/svg" xmlns:xlink="http://www.w3.org/1999/xlink"><g font-size="12" font-family="sans-serif"><g><path fill="#e41a1c" d="M1.8369701987210297e-14,-300A300,300,0,0,1,0.8776924466568048,-299.9987160905344L0.8338078243239646,-284.99878028600773A285,285,0,0,0,1.7451216887849784e-14,-285Z"/><text dy="0.35em" transform="&#xA;        rotate(-89.91618642559446)&#xA;        translate(305)&#xA;        &#xA;      ">AM</text><title>AM
  0 outgoing →
  1 incoming ←</title></g><g><path fill="#377eb8" d="M11.40126319077979,-299.78327371228465A300,300,0,0,1,14.031969169009514,-299.6716600568695L13.33037071055904,-284.68807705402605A285,285,0,0,0,10.831200031240801,-284.7941100266704Z"/><text dy="0.35em" transform="&#xA;        rotate(-87.57055389944308)&#xA;        translate(305)&#xA;        &#xA;      ">AR</text><title>AR
  1 outgoing →
  2 incoming ←</title></g><g><path fill="#4daf4a" d="M24.535970017076245,-298.9949601169243A300,300,0,0,1,48.053244665491476,-296.1264690586075L45.6505824322169,-281.3201456056771A285,285,0,0,0,23.309171516222435,-284.04521211107806Z"/><text dy="0.35em" transform="&#xA;        rotate(-83.04576843874761)&#xA;        translate(305)&#xA;        &#xA;      ">AT</text><title>AT
  19 outgoing →
  8 incoming ←</title></g><g><path fill="#984ea3" d="M58.411937904795295,-294.25846718523894A300,300,0,0,1,82.2941961874282,-288.49205409138233L78.17948637805678,-274.0674513868132A285,285,0,0,0,55.49134100955553,-279.545543825977Z"/><text dy="0.35em" transform="&#xA;        rotate(-76.42564361791358)&#xA;        translate(305)&#xA;        &#xA;      ">AU</text><title>AU
  9 outgoing →
  19 incoming ←</title></g><g><path fill="#ff7f00" d="M92.36399450157491,-285.4275608971794A300,300,0,0,1,107.26008181999258,-280.17008200014595L101.89707772899294,-266.16157790013864A285,285,0,0,0,87.74579477649617,-271.1561828523204Z"/><text dy="0.35em" transform="&#xA;        rotate(-70.55984096672944)&#xA;        translate(305)&#xA;        &#xA;      ">BE</text><title>BE
  10 outgoing →
  8 incoming ←</title></g><g><path fill="#ffff33" d="M117.02257425138716,-276.2348948188454A300,300,0,0,1,152.27235118267234,-258.48236122664326L144.65873362353872,-245.55824316531113A285,285,0,0,0,111.17144553881779,-262.42315007790313Z"/><text dy="0.35em" transform="&#xA;        rotate(-63.26920755065106)&#xA;        translate(305)&#xA;        &#xA;      ">CA</text><title>CA
  17 outgoing →
  28 incoming ←</title></g><g><path fill="#a65628" d="M161.24632154965383,-252.9814692555675A300,300,0,0,1,186.948390934423,-234.62800158342168L177.60097138770186,-222.8966015042506A285,285,0,0,0,153.18400547217115,-240.33239579278913Z"/><text dy="0.35em" transform="&#xA;        rotate(-54.46992979527294)&#xA;        translate(305)&#xA;        &#xA;      ">CH</text><title>CH
  15 outgoing →
  21 incoming ←</title></g><g><path fill="#f781bf" d="M195.06419448037323,-227.92533872240517A300,300,0,0,1,208.05932981761865,-216.1280066901173L197.6563633267377,-205.32160635561144A285,285,0,0,0,185.31098475635457,-216.5290717862849Z"/><text dy="0.35em" transform="&#xA;        rotate(-47.765991400033386)&#xA;        translate(305)&#xA;        &#xA;      ">CL</text><title>CL
  15 outgoing →
  5 incoming ←</title></g><g><path fill="#999999" d="M215.51314990951573,-208.69614806238903A300,300,0,0,1,242.60276133657453,-176.47634456739254L230.4726232697458,-167.65252733902292A285,285,0,0,0,204.73749241403993,-198.26134065926956Z"/><text dy="0.35em" transform="&#xA;        rotate(-40.056290111927325)&#xA;        translate(305)&#xA;        &#xA;      ">CN</text><title>CN
  22 outgoing →
  26 incoming ←</title></g><g><path fill="#e41a1c" d="M248.6443186429559,-167.85709042688725A300,300,0,0,1,250.10799378394327,-165.66831756666988L237.6025940947461,-157.38490168833638A285,285,0,0,0,236.21210271080813,-159.4642359055429Z"/><text dy="0.35em" transform="&#xA;        rotate(-33.77141958871548)&#xA;        translate(305)&#xA;        &#xA;      ">CO</text><title>CO
  0 outgoing →
  3 incoming ←</title></g><g><path fill="#377eb8" d="M255.7657803303219,-156.79242842695407A300,300,0,0,1,256.678834879409,-155.29319278367956L243.84489313543858,-147.52853314449558A285,285,0,0,0,242.9774913138058,-148.9528070056064Z"/><text dy="0.35em" transform="&#xA;        rotate(-31.341973488158565)&#xA;        translate(305)&#xA;        &#xA;      ">CR</text><title>CR
  0 outgoing →
  2 incoming ←</title></g><g><path fill="#4daf4a" d="M261.96861222874577,-146.19318112328304A300,300,0,0,1,263.6614728102442,-143.11753126550514L250.47839916973203,-135.96165470222988A285,285,0,0,0,248.87018161730845,-138.8835220671189Z"/><text dy="0.35em" transform="&#xA;        rotate(-28.82871381319609)&#xA;        translate(305)&#xA;        &#xA;      ">CY</text><title>CY
  0 outgoing →
  4 incoming ←</title></g><g><path fill="#984ea3" d="M268.5198237320797,-133.78005928722274A300,300,0,0,1,269.68364521198765,-131.4181551581621L256.1994629513882,-124.84724740025402A285,285,0,0,0,255.09383254547572,-127.09105632286162Z"/><text dy="0.35em" transform="&#xA;        rotate(-26.23164056382808)&#xA;        translate(305)&#xA;        &#xA;      ">CZ</text><title>CZ
  0 outgoing →
  3 incoming ←</title></g><g><path fill="#ff7f00" d="M274.12786922319737,-121.8766233333923A300,300,0,0,1,299.53687802525803,-16.66309403687385L284.56003412399514,-15.82993933503016A285,285,0,0,0,260.4214757620375,-115.7827921667227Z"/><text dy="0.35em" transform="&#xA;        rotate(-13.576938385794975)&#xA;        translate(305)&#xA;        &#xA;      ">DE</text><title>DE
  76 outgoing →
  48 incoming ←</title></g><g><path fill="#ffff33" d="M299.93705982520265,-6.144928267506068A300,300,0,0,1,299.953806776543,5.26438982792165L284.9561164377158,5.0011703365255675A285,285,0,0,0,284.94020683394257,-5.837681854130765Z"/><text dy="0.35em" transform="&#xA;        rotate(-0.08410046370646285)&#xA;        translate(305)&#xA;        &#xA;      ">DK</text><title>DK
  5 outgoing →
  8 incoming ←</title></g><g><path fill="#a65628" d="M299.5845044150482,15.783685070032764A300,300,0,0,1,299.5370448798904,16.660094376158902L284.5601926358959,15.827089657350957A285,285,0,0,0,284.60527919429575,14.994500816531126Z"/><text dy="0.35em" transform="&#xA;        rotate(3.099667806500335)&#xA;        translate(305)&#xA;        &#xA;      ">EE</text><title>EE
  0 outgoing →
  1 incoming ←</title></g><g><path fill="#f781bf" d="M298.76823179803904,27.157755214178074A300,300,0,0,1,298.6874993047709,28.031727721681936L283.7531243395323,26.630141335597838A285,285,0,0,0,283.8298202081371,25.79986745346917Z"/><text dy="0.35em" transform="&#xA;        rotate(5.277673183840619)&#xA;        translate(305)&#xA;        &#xA;      ">EG</text><title>EG
  0 outgoing →
  1 incoming ←</title></g><g><path fill="#999999" d="M297.5202863159307,38.49258669518837A300,300,0,0,1,293.7347672918814,60.99087213660982L279.0480289272873,57.941328529779334A285,285,0,0,0,282.6442720001342,36.56795736042895Z"/><text dy="0.35em" transform="&#xA;        rotate(9.551017921319485)&#xA;        translate(305)&#xA;        &#xA;      ">ES</text><title>ES
  11 outgoing →
  15 incoming ←</title></g><g><path fill="#e41a1c" d="M291.4143788371098,71.25769998380153A300,300,0,0,1,291.20465718803877,72.1099690195249L276.64442432863683,68.50447056854864A285,285,0,0,0,276.8436598952543,67.69481498461145Z"/><text dy="0.35em" transform="&#xA;        rotate(13.82436265879835)&#xA;        translate(305)&#xA;        &#xA;      ">ET</text><title>ET
  0 outgoing →
  1 incoming ←</title></g><g><path fill="#377eb8" d="M288.49576234245245,82.28119536350442A300,300,0,0,1,286.7503037799142,88.1717827999805L272.41278859091847,83.76319365998148A285,285,0,0,0,274.07097422532985,78.16713559532921Z"/><text dy="0.35em" transform="&#xA;        rotate(16.505249482571884)&#xA;        translate(305)&#xA;        &#xA;      ">FI</text><title>FI
  1 outgoing →
  6 incoming ←</title></g><g><path fill="#4daf4a" d="M283.48069385698165,98.17686188896174A300,300,0,0,1,280.79765161590007,105.6062443560778L266.75776903510507,100.3259321382739A285,285,0,0,0,269.30665916413255,93.26801879451365Z"/><text dy="0.35em" transform="&#xA;        rotate(19.856644901589803)&#xA;        translate(305)&#xA;        &#xA;      ">FR</text><title>FR
  5 outgoing →
  4 incoming ←</title></g><g><path fill="#984ea3" d="M276.9200956369837,115.39177021089405A300,300,0,0,1,238.41170523366355,182.0984865603685L226.4911199719804,172.9935622323501A285,285,0,0,0,263.07409085513456,109.62218170034934Z"/><text dy="0.35em" transform="&#xA;        rotate(29.996939847456545)&#xA;        translate(305)&#xA;        &#xA;      ">GB</text><title>GB
  41 outgoing →
  47 incoming ←</title></g><g><path fill="#ff7f00" d="M231.8768506295325,190.3500095669277A300,300,0,0,1,204.24018789712366,219.74063267349447L194.02817850226748,208.75360103981976A285,285,0,0,0,220.28300809805586,180.8325090885813Z"/><text dy="0.35em" transform="&#xA;        rotate(43.238337046328326)&#xA;        translate(305)&#xA;        &#xA;      ">GE</text><title>GE
  31 outgoing →
  15 incoming ←</title></g><g><path fill="#ffff33" d="M196.40586017209444,226.77023193104444A300,300,0,0,1,194.40797271287147,228.48531713366492L184.6875740772279,217.06105127698166A285,285,0,0,0,186.5855671634897,215.4317203344922Z"/><text dy="0.35em" transform="&#xA;        rotate(49.3555804207291)&#xA;        translate(305)&#xA;        &#xA;      ">GR</text><title>GR
  2 outgoing →
  1 incoming ←</title></g><g><path fill="#a65628" d="M186.27292874467125,235.1646147210133A300,300,0,0,1,184.2017555533649,236.79044163787188L174.99166777569667,224.9509195559783A285,285,0,0,0,176.9592823074377,223.40638398496264Z"/><text dy="0.35em" transform="&#xA;        rotate(51.86884009569155)&#xA;        translate(305)&#xA;        &#xA;      ">IE</text><title>IE
  0 outgoing →
  3 incoming ←</title></g><g><path fill="#f781bf" d="M175.78164553612118,243.10658792515977A300,300,0,0,1,155.29961889869475,256.67494690740693L147.53463795376,243.8411995620366A285,285,0,0,0,166.99256325931512,230.95125852890177Z"/><text dy="0.35em" transform="&#xA;        rotate(56.47743913079253)&#xA;        translate(305)&#xA;        &#xA;      ">IL</text><title>IL
  11 outgoing →
  17 incoming ←</title></g><g><path fill="#999999" d="M146.1997396750343,261.9649520812893A300,300,0,0,1,143.12413220036373,263.6578896636564L135.96792559034554,250.47499518047357A285,285,0,0,0,138.88975269128258,248.86670447722483Z"/><text dy="0.35em" transform="&#xA;        rotate(61.169851740299066)&#xA;        translate(305)&#xA;        &#xA;      ">IN</text><title>IN
  2 outgoing →
  2 incoming ←</title></g><g><path fill="#e41a1c" d="M133.78678185777989,268.51647435518515A300,300,0,0,1,132.21333244295886,269.29469865618904L125.60266582081091,255.82996372337956A285,285,0,0,0,127.09744276489089,255.0906506374259Z"/><text dy="0.35em" transform="&#xA;        rotate(63.68311141526152)&#xA;        translate(305)&#xA;        &#xA;      ">IR</text><title>IR
  2 outgoing →
  0 incoming ←</title></g><g><path fill="#377eb8" d="M122.68495562537379,273.7670573009106A300,300,0,0,1,120.27742480003889,274.8332968973574L114.26355356003694,261.0916320524895A285,285,0,0,0,116.55070784410509,260.07870443586506Z"/><text dy="0.35em" transform="&#xA;        rotate(66.11255751581848)&#xA;        translate(305)&#xA;        &#xA;      ">IS</text><title>IS
  0 outgoing →
  3 incoming ←</title></g><g><path fill="#4daf4a" d="M110.56209775673109,278.88352862733046A300,300,0,0,1,96.5605522702858,284.03531425732507L91.7325246567715,269.8335485444588A285,285,0,0,0,105.03399286889453,264.9393521959639Z"/><text dy="0.35em" transform="&#xA;        rotate(69.79920723245849)&#xA;        translate(305)&#xA;        &#xA;      ">IT</text><title>IT
  10 outgoing →
  7 incoming ←</title></g><g><path fill="#984ea3" d="M86.53701166537263,287.2478818233951A300,300,0,0,1,58.44435235202069,294.2520308819513L55.52213473441965,279.5394293378538A285,285,0,0,0,82.210161082104,272.8854877322254Z"/><text dy="0.35em" transform="&#xA;        rotate(76.00026418126473)&#xA;        translate(305)&#xA;        &#xA;      ">JP</text><title>JP
  18 outgoing →
  15 incoming ←</title></g><g><path fill="#ff7f00" d="M48.08586495013868,296.1211738326002A300,300,0,0,1,43.74914656034964,296.792877568248L41.56168923233216,281.9532336898356A285,285,0,0,0,45.68157170263174,281.3151151409702Z"/><text dy="0.35em" transform="&#xA;        rotate(81.19555823720455)&#xA;        translate(305)&#xA;        &#xA;      ">KE</text><title>KE
  4 outgoing →
  1 incoming ←</title></g><g><path fill="#ffff33" d="M33.31056999426077,298.14494113879823A300,300,0,0,1,-0.8506538792368247,299.99879397753875L-0.8081211852749834,284.9988542786618A285,285,0,0,0,31.64504149454773,283.2376940818583Z"/><text dy="0.35em" transform="&#xA;        rotate(86.89373373957761)&#xA;        translate(305)&#xA;        &#xA;      ">KR</text><title>KR
  17 outgoing →
  22 incoming ←</title></g><g><path fill="#a65628" d="M-11.374243998208652,299.784300078355A300,300,0,0,1,-15.758183849858492,299.5858468648912L-14.970274657365566,284.6065545216467A285,285,0,0,0,-10.80553179829822,284.7950850744373Z"/><text dy="0.35em" transform="&#xA;        rotate(92.59190924195062)&#xA;        translate(305)&#xA;        rotate(180)&#xA;      " text-anchor="end">LB</text><title>LB
  2 outgoing →
  3 incoming ←</title></g><g><path fill="#f781bf" d="M-26.25811182262363,298.8486432351845A300,300,0,0,1,-27.132323435366338,298.7705424318112L-25.77570726359802,283.8320153102206A285,285,0,0,0,-24.945206231492445,283.90621107342525Z"/><text dy="0.35em" transform="&#xA;        rotate(95.1051689169131)&#xA;        translate(305)&#xA;        rotate(180)&#xA;      " text-anchor="end">LT</text><title>LT
  0 outgoing →
  1 incoming ←</title></g><g><path fill="#999999" d="M-37.59664919807047,297.63482989911853A300,300,0,0,1,-39.33754375067054,297.40974706902944L-37.370666563137014,282.539259715578A285,285,0,0,0,-35.71681673816695,282.7530884041626Z"/><text dy="0.35em" transform="&#xA;        rotate(97.3669878686589)&#xA;        translate(305)&#xA;        rotate(180)&#xA;      " text-anchor="end">LV</text><title>LV
  0 outgoing →
  2 incoming ←</title></g><g><path fill="#e41a1c" d="M-49.746619658596614,295.84670664474686A300,300,0,0,1,-55.79456281673389,294.7659525116317L-53.00483467589719,280.0276548860502A285,285,0,0,0,-47.25928867566679,281.05437131250955Z"/><text dy="0.35em" transform="&#xA;        rotate(100.13168826683798)&#xA;        translate(305)&#xA;        rotate(180)&#xA;      " text-anchor="end">MX</text><title>MX
  1 outgoing →
  6 incoming ←</title></g><g><path fill="#377eb8" d="M-66.1007635625684,292.6272185844055A300,300,0,0,1,-136.87176649183172,266.9571492532191L-130.02817816724013,253.60929179055813A285,285,0,0,0,-62.79572538443998,277.9958576551852Z"/><text dy="0.35em" transform="&#xA;        rotate(109.9367289150826)&#xA;        translate(305)&#xA;        rotate(180)&#xA;      " text-anchor="end">NL</text><title>NL
  35 outgoing →
  51 incoming ←</title></g><g><path fill="#4daf4a" d="M-146.15251605734252,261.9913014779465A300,300,0,0,1,-153.75381534771185,257.6038902385244L-146.06612458032626,244.72369572659818A285,285,0,0,0,-138.8448902544754,248.89173640404914Z"/><text dy="0.35em" transform="&#xA;        rotate(119.99321028654381)&#xA;        translate(305)&#xA;        rotate(180)&#xA;      " text-anchor="end">NO</text><title>NO
  5 outgoing →
  5 incoming ←</title></g><g><path fill="#984ea3" d="M-162.6960566382882,252.05156844255288A300,300,0,0,1,-169.99951640707081,247.18447447475754L-161.49954058671727,234.82525075101967A285,285,0,0,0,-154.5612538063738,239.44899002042524Z"/><text dy="0.35em" transform="&#xA;        rotate(123.67986000318388)&#xA;        translate(305)&#xA;        rotate(180)&#xA;      " text-anchor="end">NZ</text><title>NZ
  4 outgoing →
  6 incoming ←</title></g><g><path fill="#ff7f00" d="M-178.56623976849144,241.06865830078704A300,300,0,0,1,-179.2707560272608,240.5452058001039L-170.30721822589777,228.5179455100987A285,285,0,0,0,-169.6379277800669,229.01522538574767Z"/><text dy="0.35em" transform="&#xA;        rotate(126.61218755017399)&#xA;        translate(305)&#xA;        rotate(180)&#xA;      " text-anchor="end">PE</text><title>PE
  0 outgoing →
  1 incoming ←</title></g><g><path fill="#ffff33" d="M-187.5988638420885,234.108236260832A300,300,0,0,1,-216.70774411148642,207.45542567527735L-205.8723569059121,197.0826543915135A285,285,0,0,0,-178.21892064998409,222.4028244477904Z"/><text dy="0.35em" transform="&#xA;        rotate(132.4779902013581)&#xA;        translate(305)&#xA;        rotate(180)&#xA;      " text-anchor="end">PH</text><title>PH
  27 outgoing →
  18 incoming ←</title></g><g><path fill="#a65628" d="M-223.852002358241,199.72551424444015A300,300,0,0,1,-226.74957851860157,196.42970407154957L-215.41209959267147,186.60821886797208A285,285,0,0,0,-212.65940224032897,189.73923853221814Z"/><text dy="0.35em" transform="&#xA;        rotate(138.67904715016442)&#xA;        translate(305)&#xA;        rotate(180)&#xA;      " text-anchor="end">PL</text><title>PL
  0 outgoing →
  5 incoming ←</title></g><g><path fill="#f781bf" d="M-233.50086785938947,188.35430631900067A300,300,0,0,1,-236.23107698822682,184.91857198502927L-224.4195231388155,175.6726433857778A285,285,0,0,0,-221.82582446642002,178.93659100305064Z"/><text dy="0.35em" transform="&#xA;        rotate(141.52756112274906)&#xA;        translate(305)&#xA;        rotate(180)&#xA;      " text-anchor="end">PT</text><title>PT
  4 outgoing →
  1 incoming ←</title></g><g><path fill="#999999" d="M-242.57271386373674,176.5176435622845A300,300,0,0,1,-244.11263501832428,174.38182653135155L-231.90700326740807,165.66273520478396A285,285,0,0,0,-230.4440781705499,167.69176138417026Z"/><text dy="0.35em" transform="&#xA;        rotate(144.2084479465226)&#xA;        translate(305)&#xA;        rotate(180)&#xA;      " text-anchor="end">QA</text><title>QA
  0 outgoing →
  3 incoming ←</title></g><g><path fill="#e41a1c" d="M-250.07978619909358,165.7108944355067A300,300,0,0,1,-250.56352660099398,164.97854144485876L-238.0353502709443,156.7296143726158A285,285,0,0,0,-237.5757968891389,157.42534971373135Z"/><text dy="0.35em" transform="&#xA;        rotate(146.55408047267395)&#xA;        translate(305)&#xA;        rotate(180)&#xA;      " text-anchor="end">RU</text><title>RU
  0 outgoing →
  1 incoming ←</title></g><g><path fill="#377eb8" d="M-256.1968350569041,156.08709654172404A300,300,0,0,1,-261.5177038685962,146.99826721188666L-248.4418186751664,139.64835385129234A285,285,0,0,0,-243.38699330405888,148.28274171463784Z"/><text dy="0.35em" transform="&#xA;        rotate(149.65403516847516)&#xA;        translate(305)&#xA;        rotate(180)&#xA;      " text-anchor="end">SE</text><title>SE
  7 outgoing →
  5 incoming ←</title></g><g><path fill="#4daf4a" d="M-266.5135125386757,137.73361112777502A300,300,0,0,1,-282.28798600730113,101.55536891736327L-268.1735867069361,96.4776004714951A285,285,0,0,0,-253.18783691174193,130.84693057138628Z"/><text dy="0.35em" transform="&#xA;        rotate(156.44178713812013)&#xA;        translate(305)&#xA;        rotate(180)&#xA;      " text-anchor="end">SG</text><title>SG
  24 outgoing →
  21 incoming ←</title></g><g><path fill="#984ea3" d="M-285.676849838413,91.59005113221005A300,300,0,0,1,-287.74209084268085,84.87926223455514L-273.35498630054684,80.63529912282739A285,285,0,0,0,-271.3930073464923,87.01054857559956Z"/><text dy="0.35em" transform="&#xA;        rotate(162.8942848101431)&#xA;        translate(305)&#xA;        rotate(180)&#xA;      " text-anchor="end">TH</text><title>TH
  5 outgoing →
  3 incoming ←</title></g><g><path fill="#ff7f00" d="M-290.5425911182166,74.73287594033033A300,300,0,0,1,-290.9748987238461,73.03155696442136L-276.4261537876538,69.37997911620029A285,285,0,0,0,-276.01546156230575,70.99623214331382Z"/><text dy="0.35em" transform="&#xA;        rotate(165.7427987827277)&#xA;        translate(305)&#xA;        rotate(180)&#xA;      " text-anchor="end">TR</text><title>TR
  2 outgoing →
  0 incoming ←</title></g><g><path fill="#ffff33" d="M-293.3577855087707,62.779054479898846A300,300,0,0,1,-294.58186396743497,56.758483255559696L-279.8527707690632,53.920559092781716A285,285,0,0,0,-278.68989623333215,59.640101755903906Z"/><text dy="0.35em" transform="&#xA;        rotate(168.50749918090673)&#xA;        translate(305)&#xA;        rotate(180)&#xA;      " text-anchor="end">TW</text><title>TW
  3 outgoing →
  4 incoming ←</title></g><g><path fill="#a65628" d="M-296.39166273760225,46.3894628082653A300,300,0,0,1,-296.6580255933785,44.654404609605734L-281.8251243137096,42.421684379125445A285,285,0,0,0,-281.57207960072213,44.069989667852035Z"/><text dy="0.35em" transform="&#xA;        rotate(171.27219957908585)&#xA;        translate(305)&#xA;        rotate(180)&#xA;      " text-anchor="end">UG</text><title>UG
  0 outgoing →
  2 incoming ←</title></g><g><path fill="#f781bf" d="M-298.0419290899282,34.22000152475483A300,300,0,0,1,-298.91539832034164,25.48695052358145L-283.96962840432457,24.212602997402378A285,285,0,0,0,-283.1398326354318,32.50900144851708Z"/><text dy="0.35em" transform="&#xA;        rotate(174.28834070048157)&#xA;        translate(305)&#xA;        rotate(180)&#xA;      " text-anchor="end">UK</text><title>UK
  1 outgoing →
  9 incoming ←</title></g><g><path fill="#999999" d="M-299.62550812215864,14.985155405875528A300,300,0,0,1,-27.15925119504505,-298.7680958109892L-25.8012886352928,-283.8296910204398A285,285,0,0,0,-284.64423271605074,14.23589763558175Z"/><text dy="0.35em" transform="&#xA;        rotate(220.97135408716463)&#xA;        translate(305)&#xA;        rotate(180)&#xA;      " text-anchor="end">US</text><title>US
  279 outgoing →
  244 incoming ←</title></g><g><path fill="#e41a1c" d="M-16.661594206729756,-299.5369614563289A300,300,0,0,1,-10.5241560135812,-299.8153467389583L-9.99794821290214,-284.8245794020104A285,285,0,0,0,-15.828514496393268,-284.5601133835125Z"/><text dy="0.35em" transform="&#xA;        rotate(267.40292675063114)&#xA;        translate(305)&#xA;        rotate(180)&#xA;      " text-anchor="end">ZA</text><title>ZA
  1 outgoing →
  6 incoming ←</title></g></g><g fill-opacity="0.75"><path style="mix-blend-mode: multiply;" fill="#377eb8" d="M12.868596418466348,-283.70829953707494Q0,0,-223.93515934117147,-174.6683841192909Q0,0,12.868596418466348,-283.70829953707494Z"><title>AR &gt; US 1</title></path><path style="mix-blend-mode: multiply;" fill="#4daf4a" d="M30.25832603515844,-282.3834869562136Q0,0,166.72698537558512,-229.90892185291423Q0,0,30.25832603515844,-282.3834869562136Z"><title>AT &gt; CH 1</title></path><path style="mix-blend-mode: multiply;" fill="#4daf4a" d="M31.084349383861262,-282.29375342607574Q0,0,187.4853761097013,-213.31955781175773Q0,0,31.084349383861262,-282.29375342607574Z"><title>AT &gt; CL 1</title></path><path style="mix-blend-mode: multiply;" fill="#4daf4a" d="M31.91010666929484,-282.20160363179053Q0,0,236.53922912279896,-157.17885699416453Q0,0,31.91010666929484,-282.20160363179053Z"><title>AT &gt; CO 1</title></path><path style="mix-blend-mode: multiply;" fill="#4daf4a" d="M32.735590823474965,-282.10703836210473Q0,0,279.85376859408103,48.35150673650766Q0,0,32.735590823474965,-282.10703836210473Z"><title>AT &gt; ES 1</title></path><path style="mix-blend-mode: multiply;" fill="#4daf4a" d="M33.56079478075562,-282.0100584264398Q0,0,-102.67333784246816,264.79083386002316Q0,0,33.56079478075562,-282.0100584264398Z"><title>AT &gt; NL 1</title></path><path style="mix-blend-mode: multiply;" fill="#984ea3" d="M71.09019260968252,-274.9585141702621Q0,0,218.17713351572496,-181.80962133743506Q0,0,71.09019260968252,-274.9585141702621Z"><title>AU &gt; CN 1</title></path><path style="mix-blend-mode: multiply;" fill="#984ea3" d="M71.89431840188249,-274.7493530138492Q0,0,267.39597996263166,95.68380165850375Q0,0,71.89431840188249,-274.7493530138492Z"><title>AU &gt; FR 1</title></path><path style="mix-blend-mode: multiply;" fill="#984ea3" d="M72.6978288221098,-274.537840168803Q0,0,244.91372072764003,143.7820204314279Q0,0,72.6978288221098,-274.537840168803Z"><title>AU &gt; GB 1</title></path><path style="mix-blend-mode: multiply;" fill="#984ea3" d="M73.5007169928,-274.3239774455458Q0,0,-101.8982153821575,265.0900860121544Q0,0,73.5007169928,-274.3239774455458Z"><title>AU &gt; NL 1</title></path><path style="mix-blend-mode: multiply;" fill="#984ea3" d="M74.30297604171516,-274.1077666746134Q0,0,-236.97142160038646,156.5265004550089Q0,0,74.30297604171516,-274.1077666746134Z"><title>AU &gt; RU 1</title></path><path style="mix-blend-mode: multiply;" fill="#ff7f00" d="M94.1296358064868,-267.9470314501323Q0,0,249.40107065087685,-135.84957106371863Q0,0,94.1296358064868,-267.9470314501323Z"><title>BE &gt; CY 1</title></path><path style="mix-blend-mode: multiply;" fill="#ff7f00" d="M94.91314991207837,-267.67049514985274Q0,0,245.3333272151514,143.0648753452204Q0,0,94.91314991207837,-267.67049514985274Z"><title>BE &gt; GB 1</title></path><path style="mix-blend-mode: multiply;" fill="#ff7f00" d="M95.69585161839285,-267.3916677516907Q0,0,99.6262371909283,265.95227553675284Q0,0,95.69585161839285,-267.3916677516907Z"><title>BE &gt; IT 1</title></path><path style="mix-blend-mode: multiply;" fill="#ffff33" d="M132.17554313412802,-251.36751141943196Q0,0,283.99969821788716,0.414019503164492Q0,0,132.17554313412802,-251.36751141943196Z"><title>CA &gt; DK 1</title></path><path style="mix-blend-mode: multiply;" fill="#ffff33" d="M132.91038868305063,-250.9797373895359Q0,0,279.9940300785631,47.53254801043888Q0,0,132.91038868305063,-250.9797373895359Z"><title>CA &gt; ES 1</title></path><path style="mix-blend-mode: multiply;" fill="#ffff33" d="M133.64409659926602,-250.58981512456975Q0,0,245.75083379745593,142.3465057100286Q0,0,133.64409659926602,-250.58981512456975Z"><title>CA &gt; GB 1</title></path><path style="mix-blend-mode: multiply;" fill="#ffff33" d="M134.37666060267702,-250.19774796203293Q0,0,155.10746078582895,237.9026599442985Q0,0,134.37666060267702,-250.19774796203293Z"><title>CA &gt; IL 1</title></path><path style="mix-blend-mode: multiply;" fill="#ffff33" d="M135.10807442297812,-249.80353925778354Q0,0,100.40389183206437,265.65966668836865Q0,0,135.10807442297812,-249.80353925778354Z"><title>CA &gt; IT 1</title></path><path style="mix-blend-mode: multiply;" fill="#a65628" d="M167.39890291483385,-229.42015452638424Q0,0,267.6747720884761,94.90108738777629Q0,0,167.39890291483385,-229.42015452638424Z"><title>CH &gt; FR 1</title></path><path style="mix-blend-mode: multiply;" fill="#a65628" d="M168.06938762050936,-228.92942350180104Q0,0,-224.44521803763973,-174.01248259833648Q0,0,168.06938762050936,-228.92942350180104Z"><title>CH &gt; US 1</title></path><path style="mix-blend-mode: multiply;" fill="#f781bf" d="M188.10867027758962,-212.77012987352586Q0,0,272.98802854761294,-78.3168964508149Q0,0,188.10867027758962,-212.77012987352586Z"><title>CL &gt; DE 1</title></path><path style="mix-blend-mode: multiply;" fill="#f781bf" d="M188.73035434879577,-212.2188807514025Q0,0,280.1318949831418,46.71318243444801Q0,0,188.73035434879577,-212.2188807514025Z"><title>CL &gt; ES 1</title></path><path style="mix-blend-mode: multiply;" fill="#f781bf" d="M189.35042300207934,-211.66581516374725Q0,0,271.82064146476205,82.27720749809936Q0,0,189.35042300207934,-211.66581516374725Z"><title>CL &gt; FI 1</title></path><path style="mix-blend-mode: multiply;" fill="#f781bf" d="M189.96887093002687,-211.1109378444679Q0,0,246.1662369009492,141.62691767466293Q0,0,189.96887093002687,-211.1109378444679Z"><title>CL &gt; GB 1</title></path><path style="mix-blend-mode: multiply;" fill="#f781bf" d="M190.58569283909742,-210.55425354297932Q0,0,-51.593767484045316,279.2742078259327Q0,0,190.58569283909742,-210.55425354297932Z"><title>CL &gt; MX 1</title></path><path style="mix-blend-mode: multiply;" fill="#f781bf" d="M191.20088344966769,-209.99576702416311Q0,0,-214.384021138283,186.26725820868307Q0,0,191.20088344966769,-209.99576702416311Z"><title>CL &gt; PL 1</title></path><path style="mix-blend-mode: multiply;" fill="#f781bf" d="M191.81443749607743,-209.43548306832682Q0,0,-259.6612407151844,115.03060492864955Q0,0,191.81443749607743,-209.43548306832682Z"><title>CL &gt; SG 1</title></path><path style="mix-blend-mode: multiply;" fill="#999999" d="M218.70810955469327,-181.17053517338928Q0,0,70.28545832834119,-275.1653218477485Q0,0,218.70810955469327,-181.17053517338928Z"><title>CN &gt; AU 1</title></path><path style="mix-blend-mode: multiply;" fill="#999999" d="M219.23721358424794,-180.52989829891018Q0,0,283.99969405752034,-0.41686356864285956Q0,0,219.23721358424794,-180.52989829891018Z"><title>CN &gt; DK 1</title></path><path style="mix-blend-mode: multiply;" fill="#999999" d="M219.7644410755777,-179.88771619746285Q0,0,211.6705556394683,189.3451237166639Q0,0,219.7644410755777,-179.88771619746285Z"><title>CN &gt; GE 1</title></path><path style="mix-blend-mode: multiply;" fill="#999999" d="M220.28978751593357,-179.24399436573833Q0,0,13.729818373096736,283.66792572908514Q0,0,220.28978751593357,-179.24399436573833Z"><title>CN &gt; KR 1</title></path><path style="mix-blend-mode: multiply;" fill="#999999" d="M220.813248408667,-178.59873831360713Q0,0,-259.32359113316767,115.78978833125866Q0,0,220.813248408667,-178.59873831360713Z"><title>CN &gt; SG 1</title></path><path style="mix-blend-mode: multiply;" fill="#ff7f00" d="M273.2159874027684,-77.51789617585277Q0,0,29.432043693447564,-282.4708034541393Q0,0,273.2159874027684,-77.51789617585277Z"><title>DE &gt; AT 1</title></path><path style="mix-blend-mode: multiply;" fill="#ff7f00" d="M273.44160769397473,-76.71823239448631Q0,0,131.43956624233243,-251.7531338951464Q0,0,273.44160769397473,-76.71823239448631Z"><title>DE &gt; CA 1</title></path><path style="mix-blend-mode: multiply;" fill="#ff7f00" d="M273.66488749005845,-75.91791195135484Q0,0,217.64429001217732,-182.44715132085577Q0,0,273.66488749005845,-75.91791195135484Z"><title>DE &gt; CN 1</title></path><path style="mix-blend-mode: multiply;" fill="#ff7f00" d="M273.8858248798792,-75.1169416967183Q0,0,280.26736212777655,45.89341702180984Q0,0,273.8858248798792,-75.1169416967183Z"><title>DE &gt; ES 1</title></path><path style="mix-blend-mode: multiply;" fill="#ff7f00" d="M274.1044179723462,-74.31532848639861Q0,0,272.06019176629064,81.48160563028424Q0,0,274.1044179723462,-74.31532848639861Z"><title>DE &gt; FI 1</title></path><path style="mix-blend-mode: multiply;" fill="#ff7f00" d="M274.32066489643466,-73.51307918172107Q0,0,155.80281486494752,237.44785297020246Q0,0,274.32066489643466,-73.51307918172107Z"><title>DE &gt; IL 1</title></path><path style="mix-blend-mode: multiply;" fill="#ff7f00" d="M274.5345638012014,-72.71020064945549Q0,0,-188.7027247724159,212.2434490472341Q0,0,274.5345638012014,-72.71020064945549Z"><title>DE &gt; PH 1</title></path><path style="mix-blend-mode: multiply;" fill="#ff7f00" d="M274.74611285580085,-71.90669976175754Q0,0,-244.4572816798173,144.556692801525Q0,0,274.74611285580085,-71.90669976175754Z"><title>DE &gt; SE 1</title></path><path style="mix-blend-mode: multiply;" fill="#ff7f00" d="M274.9553102495008,-71.10258339610982Q0,0,-258.9837218977289,116.54798064316607Q0,0,274.9553102495008,-71.10258339610982Z"><title>DE &gt; SG 1</title></path><path style="mix-blend-mode: multiply;" fill="#ff7f00" d="M275.1621541916979,-70.29785843526314Q0,0,-11.208325684933957,-283.7787402807695Q0,0,275.1621541916979,-70.29785843526314Z"><title>DE &gt; ZA 1</title></path><path style="mix-blend-mode: multiply;" fill="#ffff33" d="M283.99727151224903,1.2448990312147832Q0,0,-101.12222073462517,265.38706915314793Q0,0,283.99727151224903,1.2448990312147832Z"><title>DK &gt; NL 1</title></path><path style="mix-blend-mode: multiply;" fill="#999999" d="M279.7111117302491,49.170051602861946Q0,0,69.48012244589816,-275.36977427615943Q0,0,279.7111117302491,49.170051602861946Z"><title>ES &gt; AU 1</title></path><path style="mix-blend-mode: multiply;" fill="#999999" d="M279.566060708124,49.98817560325174Q0,0,236.0783678210884,-157.87021329855386Q0,0,279.566060708124,49.98817560325174Z"><title>ES &gt; CO 1</title></path><path style="mix-blend-mode: multiply;" fill="#999999" d="M279.4186167692549,50.80587173502937Q0,0,255.11825578082568,-124.78251306713298Q0,0,279.4186167692549,50.80587173502937Z"><title>ES &gt; CZ 1</title></path><path style="mix-blend-mode: multiply;" fill="#377eb8" d="M271.5787645426033,83.07210512267774Q0,0,246.57953297003144,140.90611739836274Q0,0,271.5787645426033,83.07210512267774Z"><title>FI &gt; GB 1</title></path><path style="mix-blend-mode: multiply;" fill="#4daf4a" d="M267.11489908858897,96.46569693364023Q0,0,166.05364075397185,-230.39572129783758Q0,0,267.11489908858897,96.46569693364023Z"><title>FR &gt; CH 1</title></path><path style="mix-blend-mode: multiply;" fill="#4daf4a" d="M266.8315318722307,97.24676652063405Q0,0,272.75773307969854,-79.11522638041254Q0,0,266.8315318722307,97.24676652063405Z"><title>FR &gt; DE 1</title></path><path style="mix-blend-mode: multiply;" fill="#984ea3" d="M244.4920179265,144.497934830322Q0,0,68.67419185554273,-275.57186970550555Q0,0,244.4920179265,144.497934830322Z"><title>GB &gt; AU 1</title></path><path style="mix-blend-mode: multiply;" fill="#984ea3" d="M244.0682224212529,145.21261241410758Q0,0,165.3788748134175,-230.880548694445Q0,0,244.0682224212529,145.21261241410758Z"><title>GB &gt; CH 1</title></path><path style="mix-blend-mode: multiply;" fill="#984ea3" d="M243.64233783933236,145.92604706557577Q0,0,283.99725903118394,-1.247743072349667Q0,0,243.64233783933236,145.92604706557577Z"><title>GB &gt; DK 1</title></path><path style="mix-blend-mode: multiply;" fill="#984ea3" d="M243.21436782605338,146.63823267815664Q0,0,174.70538396868528,223.906294713557Q0,0,243.21436782605338,146.63823267815664Z"><title>GB &gt; IE 1</title></path><path style="mix-blend-mode: multiply;" fill="#984ea3" d="M242.78431604458095,147.3491631559712Q0,0,101.18068707648644,265.3647839535799Q0,0,242.78431604458095,147.3491631559712Z"><title>GB &gt; IT 1</title></path><path style="mix-blend-mode: multiply;" fill="#984ea3" d="M242.35218617589882,148.05883241388364Q0,0,-141.61089364682658,246.17545531703027Q0,0,242.35218617589882,148.05883241388364Z"><title>GB &gt; NO 1</title></path><path style="mix-blend-mode: multiply;" fill="#984ea3" d="M241.91798191877777,148.76723437755342Q0,0,-188.08096894143043,212.7946172299776Q0,0,241.91798191877777,148.76723437755342Z"><title>GB &gt; PH 1</title></path><path style="mix-blend-mode: multiply;" fill="#984ea3" d="M241.48170698974423,149.4743629834873Q0,0,-12.038512572903375,-283.74473425075587Q0,0,241.48170698974423,149.4743629834873Z"><title>GB &gt; ZA 1</title></path><path style="mix-blend-mode: multiply;" fill="#ff7f00" d="M211.1156938037104,189.9635855362232Q0,0,-282.8646358288779,25.369229341788547Q0,0,211.1156938037104,189.9635855362232Z"><title>GE &gt; UK 1</title></path><path style="mix-blend-mode: multiply;" fill="#ffff33" d="M184.98699552978823,215.48970157495256Q0,0,272.5251029702154,-79.91287913142341Q0,0,184.98699552978823,215.48970157495256Z"><title>GR &gt; DE 1</title></path><path style="mix-blend-mode: multiply;" fill="#ffff33" d="M184.3557582299242,216.02998497308133Q0,0,246.99071846713767,140.18411105074335Q0,0,184.3557582299242,216.02998497308133Z"><title>GR &gt; GB 1</title></path><path style="mix-blend-mode: multiply;" fill="#f781bf" d="M154.41077908046316,238.35543061521463Q0,0,272.29014021033686,-80.70984787642136Q0,0,154.41077908046316,238.35543061521463Z"><title>IL &gt; DE 1</title></path><path style="mix-blend-mode: multiply;" fill="#f781bf" d="M153.71277571202506,238.80616110750717Q0,0,247.39978987276825,139.46090481174326Q0,0,153.71277571202506,238.80616110750717Z"><title>IL &gt; GB 1</title></path><path style="mix-blend-mode: multiply;" fill="#f781bf" d="M153.0134566550022,239.25484756319517Q0,0,-100.34536054191697,265.68178074100734Q0,0,153.0134566550022,239.25484756319517Z"><title>IL &gt; NL 1</title></path><path style="mix-blend-mode: multiply;" fill="#4daf4a" d="M98.84772980933255,266.2426079941774Q0,0,249.00255614821177,-136.57864778821263Q0,0,98.84772980933255,266.2426079941774Z"><title>IT &gt; CY 1</title></path><path style="mix-blend-mode: multiply;" fill="#4daf4a" d="M98.06837635083046,266.5306615755716Q0,0,283.5845034137901,15.356738701757994Q0,0,98.06837635083046,266.5306615755716Z"><title>IT &gt; EE 1</title></path><path style="mix-blend-mode: multiply;" fill="#4daf4a" d="M97.28818348621724,266.8164338153708Q0,0,280.40043035295054,45.073258789221526Q0,0,97.28818348621724,266.8164338153708Z"><title>IT &gt; ES 1</title></path><path style="mix-blend-mode: multiply;" fill="#4daf4a" d="M96.5071578934729,267.09992226753695Q0,0,175.35970582779467,223.39421114252113Q0,0,96.5071578934729,267.09992226753695Z"><title>IT &gt; IE 1</title></path><path style="mix-blend-mode: multiply;" fill="#4daf4a" d="M95.72530625770513,267.38112450558015Q0,0,-25.27149972739447,282.8733838690525Q0,0,95.72530625770513,267.38112450558015Z"><title>IT &gt; LT 1</title></path><path style="mix-blend-mode: multiply;" fill="#4daf4a" d="M94.94263527109204,267.6600381225789Q0,0,-50.776490469107664,279.4239574833207Q0,0,94.94263527109204,267.6600381225789Z"><title>IT &gt; MX 1</title></path><path style="mix-blend-mode: multiply;" fill="#4daf4a" d="M94.15915163282489,267.93666073120096Q0,0,-224.95335561850843,-173.3550916355585Q0,0,94.15915163282489,267.93666073120096Z"><title>IT &gt; US 1</title></path><path style="mix-blend-mode: multiply;" fill="#984ea3" d="M69.51045609320518,275.36211884301474Q0,0,242.7739862303986,-147.36618204256442Q0,0,69.51045609320518,275.36211884301474Z"><title>JP &gt; CR 1</title></path><path style="mix-blend-mode: multiply;" fill="#ffff33" d="M12.899848961046844,283.70688024223557Q0,0,70.31576944877642,275.15757770198974Q0,0,12.899848961046844,283.70688024223557Z"><title>KR &gt; JP 1</title></path><path style="mix-blend-mode: multiply;" fill="#ffff33" d="M12.069769134075718,283.74340639572597Q0,0,-258.6416359179437,117.3051753747032Q0,0,12.069769134075718,283.74340639572597Z"><title>KR &gt; SG 1</title></path><path style="mix-blend-mode: multiply;" fill="#a65628" d="M-13.6730032376549,283.6706699369237Q0,0,248.60191033395478,-137.3065554819154Q0,0,-13.6730032376549,283.6706699369237Z"><title>LB &gt; CY 1</title></path><path style="mix-blend-mode: multiply;" fill="#a65628" d="M-14.502863402466264,283.6294536065135Q0,0,247.80674368551882,138.7365048715714Q0,0,-14.502863402466264,283.6294536065135Z"><title>LB &gt; GB 1</title></path><path style="mix-blend-mode: multiply;" fill="#e41a1c" d="M-52.4106028874734,279.12206774988533Q0,0,248.21157642211045,138.01091743065408Q0,0,-52.4106028874734,279.12206774988533Z"><title>MX &gt; GB 1</title></path><path style="mix-blend-mode: multiply;" fill="#377eb8" d="M-103.44758148097668,264.489315258172Q0,0,164.70269332951133,-231.36339989290647Q0,0,-103.44758148097668,264.489315258172Z"><title>NL &gt; CH 1</title></path><path style="mix-blend-mode: multiply;" fill="#377eb8" d="M-104.22093967062487,264.1855327874181Q0,0,217.10958360486927,-183.08311966677945Q0,0,-104.22093967062487,264.1855327874181Z"><title>NL &gt; CN 1</title></path><path style="mix-blend-mode: multiply;" fill="#377eb8" d="M-104.99340579193334,263.87948904795616Q0,0,156.49683536600764,236.99101358579972Q0,0,-104.99340579193334,263.87948904795616Z"><title>NL &gt; IL 1</title></path><path style="mix-blend-mode: multiply;" fill="#377eb8" d="M-105.76497323305837,263.5711866593358Q0,0,-258.29733612186146,118.06136604474018Q0,0,-105.76497323305837,263.5711866593358Z"><title>NL &gt; SG 1</title></path><path style="mix-blend-mode: multiply;" fill="#4daf4a" d="M-142.33050872055077,245.76009905464562Q0,0,283.9923931597205,-2.078611896128866Q0,0,-142.33050872055077,245.76009905464562Z"><title>NO &gt; DK 1</title></path><path style="mix-blend-mode: multiply;" fill="#4daf4a" d="M-143.04890553102572,245.3426392341447Q0,0,272.29741339678316,80.68530632910421Q0,0,-143.04890553102572,245.3426392341447Z"><title>NO &gt; FI 1</title></path><path style="mix-blend-mode: multiply;" fill="#4daf4a" d="M-143.76607792920836,244.92307942873168Q0,0,248.6142846174192,137.2841486995818Q0,0,-143.76607792920836,244.92307942873168Z"><title>NO &gt; GB 1</title></path><path style="mix-blend-mode: multiply;" fill="#ffff33" d="M-189.3228654219713,211.69046418866898Q0,0,12.038512572898805,-283.74473425075604Q0,0,-189.3228654219713,211.69046418866898Z"><title>PH &gt; AR 1</title></path><path style="mix-blend-mode: multiply;" fill="#ffff33" d="M-189.9413855820669,211.13566738749896Q0,0,164.02510208995864,-231.84427076030724Q0,0,-189.9413855820669,211.13566738749896Z"><title>PH &gt; CH 1</title></path><path style="mix-blend-mode: multiply;" fill="#ffff33" d="M-190.5582799585435,210.57906339244974Q0,0,157.1895163486127,236.53214570135964Q0,0,-190.5582799585435,210.57906339244974Z"><title>PH &gt; IL 1</title></path><path style="mix-blend-mode: multiply;" fill="#ffff33" d="M-191.1735432711576,210.02065696771555Q0,0,-99.56764145348725,265.9742182531792Q0,0,-191.1735432711576,210.02065696771555Z"><title>PH &gt; NL 1</title></path><path style="mix-blend-mode: multiply;" fill="#ffff33" d="M-191.78717025362647,209.4604528929184Q0,0,-257.9508254564807,118.81654618074127Q0,0,-191.78717025362647,209.4604528929184Z"><title>PH &gt; SG 1</title></path><path style="mix-blend-mode: multiply;" fill="#ffff33" d="M-192.39915565367363,208.89845596306705Q0,0,-12.868596418470668,-283.70829953707477Q0,0,-192.39915565367363,208.89845596306705Z"><title>PH &gt; ZA 1</title></path><path style="mix-blend-mode: multiply;" fill="#f781bf" d="M-221.8278594954416,177.33696950063916Q0,0,280.53109851968,44.25271475674253Q0,0,-221.8278594954416,177.33696950063916Z"><title>PT &gt; ES 1</title></path><path style="mix-blend-mode: multiply;" fill="#f781bf" d="M-222.3457345346255,176.68722176280275Q0,0,157.88085188383158,236.07125324451437Q0,0,-222.3457345346255,176.68722176280275Z"><title>PT &gt; IL 1</title></path><path style="mix-blend-mode: multiply;" fill="#377eb8" d="M-244.87915653437628,143.84087977696896Q0,0,11.20832568492951,-283.77874028076974Q0,0,-244.87915653437628,143.84087977696896Z"><title>SE &gt; AR 1</title></path><path style="mix-blend-mode: multiply;" fill="#377eb8" d="M-245.2989353711553,143.12383556129905Q0,0,283.98509648477886,-2.9094629282448072Q0,0,-245.2989353711553,143.12383556129905Z"><title>SE &gt; DK 1</title></path><path style="mix-blend-mode: multiply;" fill="#377eb8" d="M-245.7166145971009,142.40556629198096Q0,0,-271.0676838579328,84.72491232155863Q0,0,-245.7166145971009,142.40556629198096Z"><title>SE &gt; TH 1</title></path><path style="mix-blend-mode: multiply;" fill="#4daf4a" d="M-259.9966677537025,114.27043693349046Q0,0,67.86767345555421,-275.77160640597185Q0,0,-259.9966677537025,114.27043693349046Z"><title>SG &gt; AU 1</title></path><path style="mix-blend-mode: multiply;" fill="#4daf4a" d="M-260.329869377669,113.5092908523606Q0,0,216.57301887056474,-183.71752093170102Q0,0,-260.329869377669,113.5092908523606Z"><title>SG &gt; CN 1</title></path><path style="mix-blend-mode: multiply;" fill="#ff7f00" d="M-275.15018244810847,70.34470199505166Q0,0,272.05284681120236,-81.50612579383495Q0,0,-275.15018244810847,70.34470199505166Z"><title>TR &gt; DE 1</title></path><path style="mix-blend-mode: multiply;" fill="#ff7f00" d="M-275.3548082670407,69.53941015151943Q0,0,-225.45956773442649,-172.69621685782684Q0,0,-275.3548082670407,69.53941015151943Z"><title>TR &gt; US 1</title></path><path style="mix-blend-mode: multiply;" fill="#ffff33" d="M-278.4703781545112,55.769601849785104Q0,0,216.0346004019342,-184.35034968552844Q0,0,-278.4703781545112,55.769601849785104Z"><title>TW &gt; CN 1</title></path><path style="mix-blend-mode: multiply;" fill="#ffff33" d="M-278.63234824631854,54.95465868097323Q0,0,14.559670266188162,283.626543189702Q0,0,-278.63234824631854,54.95465868097323Z"><title>TW &gt; KR 1</title></path><path style="mix-blend-mode: multiply;" fill="#ffff33" d="M-278.7919334133971,54.13924513345165Q0,0,-225.96385005252378,-172.03586390471185Q0,0,-278.7919334133971,54.13924513345165Z"><title>TW &gt; US 1</title></path><path style="mix-blend-mode: multiply;" fill="#f781bf" d="M-282.9376465235025,24.541560254831897Q0,0,249.01486482450593,136.55620489905627Q0,0,-282.9376465235025,24.541560254831897Z"><title>UK &gt; GB 1</title></path><path style="mix-blend-mode: multiply;" fill="#999999" d="M-223.4231838948982,-175.32279058430058Q0,0,0.4154415359088695,-283.99969614126394Q0,0,-223.4231838948982,-175.32279058430058Z"><title>US &gt; AM 1</title></path><path style="mix-blend-mode: multiply;" fill="#999999" d="M-222.9092960810207,-175.9756963920412Q0,0,28.60550943120663,-282.55570217247634Q0,0,-222.9092960810207,-175.9756963920412Z"><title>US &gt; AT 1</title></path><path style="mix-blend-mode: multiply;" fill="#999999" d="M-222.39350029810848,-176.6270959540331Q0,0,93.34531600802578,-268.22127428554546Q0,0,-222.39350029810848,-176.6270959540331Z"><title>US &gt; BE 1</title></path><path style="mix-blend-mode: multiply;" fill="#999999" d="M-221.87580096106223,-177.2769836946892Q0,0,235.61548583103743,-158.56021832920203Q0,0,-221.87580096106223,-177.2769836946892Z"><title>US &gt; CO 1</title></path><path style="mix-blend-mode: multiply;" fill="#999999" d="M-221.35620250107573,-177.92535405136266Q0,0,242.3418066147642,-148.07582100630825Q0,0,-221.35620250107573,-177.92535405136266Z"><title>US &gt; CR 1</title></path><path style="mix-blend-mode: multiply;" fill="#999999" d="M-220.83470936559823,-178.5722014743946Q0,0,248.1991366373922,-138.0332879143764Q0,0,-220.83470936559823,-178.5722014743946Z"><title>US &gt; CY 1</title></path><path style="mix-blend-mode: multiply;" fill="#999999" d="M-220.31132601829614,-179.21752042716145Q0,0,282.7960152925593,26.12304987268119Q0,0,-220.31132601829614,-179.21752042716145Z"><title>US &gt; EG 1</title></path><path style="mix-blend-mode: multiply;" fill="#999999" d="M-219.7860569390151,-179.86130538612247Q0,0,275.77330544202584,67.86076926751669Q0,0,-219.7860569390151,-179.86130538612247Z"><title>US &gt; ET 1</title></path><path style="mix-blend-mode: multiply;" fill="#999999" d="M-219.25890662374135,-180.503550840867Q0,0,185.61664945262183,214.94757371503988Q0,0,-219.25890662374135,-180.503550840867Z"><title>US &gt; GR 1</title></path><path style="mix-blend-mode: multiply;" fill="#999999" d="M-218.72987958456346,-181.14425129416162Q0,0,176.01252671366277,222.88021545187033Q0,0,-218.72987958456346,-181.14425129416162Z"><title>US &gt; IE 1</title></path><path style="mix-blend-mode: multiply;" fill="#999999" d="M-218.19898034963353,-181.78340126199703Q0,0,114.24309754282233,260.00868190085725Q0,0,-218.19898034963353,-181.78340126199703Z"><title>US &gt; IS 1</title></path><path style="mix-blend-mode: multiply;" fill="#999999" d="M-217.66621346312866,-182.4209952736354Q0,0,45.11116666419031,280.3943341834775Q0,0,-217.66621346312866,-182.4209952736354Z"><title>US &gt; KE 1</title></path><path style="mix-blend-mode: multiply;" fill="#999999" d="M-217.13158348521173,-183.05702787165674Q0,0,-169.37635923001207,227.9641395789827Q0,0,-217.13158348521173,-183.05702787165674Z"><title>US &gt; PE 1</title></path><path style="mix-blend-mode: multiply;" fill="#999999" d="M-216.59509499199274,-183.69149361200598Q0,0,-221.30808574366748,177.9851993410506Q0,0,-216.59509499199274,-183.69149361200598Z"><title>US &gt; PT 1</title></path><path style="mix-blend-mode: multiply;" fill="#999999" d="M-216.0567525754894,-184.32438706403923Q0,0,-13.698570116620127,-283.6694364515854Q0,0,-216.0567525754894,-184.32438706403923Z"><title>US &gt; ZA 1</title></path><path style="mix-blend-mode: multiply;" fill="#e41a1c" d="M-10.378042860462108,-283.8103173360447Q0,0,-226.46619825644802,-171.37403842843634Q0,0,-10.378042860462108,-283.8103173360447Z"><title>ZA &gt; US 1</title></path><path style="mix-blend-mode: multiply;" fill="#4daf4a" d="M34.46790477197789,-281.9006270667553A284,284,0,0,1,35.12816728494676,-281.8191119551703Q0,0,271.5954925959102,-83.01739818607237A284,284,0,0,1,271.78921710761915,-82.38095328428447Q0,0,34.46790477197789,-281.9006270667553Z"><title>AT &gt; DE 2</title></path><path style="mix-blend-mode: multiply;" fill="#4daf4a" d="M36.11678800560179,-281.69412067730207A284,284,0,0,1,36.77656224975414,-281.6087435948855Q0,0,-157.21584264910734,236.51464821471657A284,284,0,0,1,-157.76945094039613,236.14571846630196Q0,0,36.11678800560179,-281.69412067730207Z"><title>AT &gt; NZ 2</title></path><path style="mix-blend-mode: multiply;" fill="#ff7f00" d="M96.55560971360491,-267.0824109387101A284,284,0,0,1,97.18098994977014,-266.855494963815Q0,0,162.73358255359813,-232.75261783548487A284,284,0,0,1,163.27836308480994,-232.37077300802048Q0,0,96.55560971360491,-267.0824109387101Z"><title>BE &gt; CH 2</title></path><path style="mix-blend-mode: multiply;" fill="#ff7f00" d="M98.11672487822585,-266.5128670424198A284,284,0,0,1,98.74076666476036,-266.2822956909741Q0,0,-227.4154863291214,-170.11230577970898A284,284,0,0,1,-227.01637135866986,-170.6445637433039Q0,0,98.11672487822585,-266.5128670424198Z"><title>BE &gt; US 2</title></path><path style="mix-blend-mode: multiply;" fill="#f781bf" d="M192.48724133175094,-208.8172931643648A284,284,0,0,1,192.975871316937,-208.36581554916577Q0,0,215.00632897740533,-185.54858797538654A284,284,0,0,1,215.4403898336769,-185.04442285114493Q0,0,192.48724133175094,-208.8172931643648Z"><title>CL &gt; CN 2</title></path><path style="mix-blend-mode: multiply;" fill="#f781bf" d="M193.70579003338594,-207.68742597360534A284,284,0,0,1,194.19176994185554,-207.23309698706296Q0,0,-228.40696423804752,-168.77872699946303A284,284,0,0,1,-228.01097047858138,-169.31331117610185Q0,0,193.70579003338594,-207.68742597360534Z"><title>CL &gt; US 2</title></path><path style="mix-blend-mode: multiply;" fill="#ff7f00" d="M275.38689266764453,-69.41224205325184A284,284,0,0,1,275.5487364639318,-68.766953059814Q0,0,-140.24004344732217,246.95896463561147A284,284,0,0,1,-140.81816430647464,246.62977233366354Q0,0,275.38689266764453,-69.41224205325184Z"><title>DE &gt; NO 2</title></path><path style="mix-blend-mode: multiply;" fill="#999999" d="M279.2537179032708,51.704555284814695A284,284,0,0,1,279.13183290279727,52.35857007525009Q0,0,249.7702277085552,135.169646557267A284,284,0,0,1,249.45290518554572,135.754366760304Q0,0,279.2537179032708,51.704555284814695Z"><title>ES &gt; GB 2</title></path><path style="mix-blend-mode: multiply;" fill="#984ea3" d="M240.99956786495542,150.25048515364188A284,284,0,0,1,240.64694228138364,150.81461855742103Q0,0,159.19089703613946,235.1898346035161A284,284,0,0,1,158.63952401927318,235.5620967365897Q0,0,240.99956786495542,150.25048515364188Z"><title>GB &gt; IL 2</title></path><path style="mix-blend-mode: multiply;" fill="#984ea3" d="M240.11628790845748,151.65806368625033A284,284,0,0,1,239.7603674713413,152.22012412952296Q0,0,115.68690203879149,259.36950610406586A284,284,0,0,1,115.07900708606299,259.63979303659494Q0,0,240.11628790845748,151.65806368625033Z"><title>GB &gt; IS 2</title></path><path style="mix-blend-mode: multiply;" fill="#984ea3" d="M239.22478696755434,153.06044982400988A284,284,0,0,1,238.86558386272418,153.6204180632245Q0,0,-257.2862544640437,120.24883892937744A284,284,0,0,1,-257.5672335282569,119.64581151298357Q0,0,239.22478696755434,153.06044982400988Z"><title>GB &gt; SG 2</title></path><path style="mix-blend-mode: multiply;" fill="#984ea3" d="M238.32509556502066,154.45759555270752A284,284,0,0,1,237.9626220906973,155.01545241594462Q0,0,-282.71921879257803,26.941479642261804A284,284,0,0,1,-282.78155397749646,26.279131075289733Q0,0,238.32509556502066,154.45759555270752Z"><title>GB &gt; UK 2</title></path><path style="mix-blend-mode: multiply;" fill="#ff7f00" d="M210.50344977123558,190.64180452987978A284,284,0,0,1,210.0562904972805,191.1343894293283Q0,0,-213.34511778841602,187.45629014745518A284,284,0,0,1,-213.78365202779952,186.95601120492682Q0,0,210.50344977123558,190.64180452987978Z"><title>GE &gt; PL 2</title></path><path style="mix-blend-mode: multiply;" fill="#999999" d="M136.51227695417415,249.03894924446428A284,284,0,0,1,135.92852437059486,249.35804832094874Q0,0,-229.39062206068388,-167.4393696554442A284,284,0,0,1,-228.99776307004433,-167.9762617422945Q0,0,136.51227695417415,249.03894924446428Z"><title>IN &gt; US 2</title></path><path style="mix-blend-mode: multiply;" fill="#e41a1c" d="M126.20533496028942,254.41740000943557A284,284,0,0,1,125.609011542129,254.71234013963536Q0,0,66.3334172680181,-276.1446681606346A284,284,0,0,1,66.98010891862258,-275.9885233288686Q0,0,126.20533496028942,254.41740000943557Z"><title>IR &gt; AU 2</title></path><path style="mix-blend-mode: multiply;" fill="#984ea3" d="M68.62420045924243,275.5843230507311A284,284,0,0,1,67.97845114387353,275.74432030429926Q0,0,130.03786302615055,-252.48000748493357A284,284,0,0,1,130.6289450151255,-252.17469881856766Q0,0,68.62420045924243,275.5843230507311Z"><title>JP &gt; CA 2</title></path><path style="mix-blend-mode: multiply;" fill="#ffff33" d="M11.156846462309089,283.78076886395326A284,284,0,0,1,10.492054504235654,283.80612536074716Q0,0,250.55686442003312,133.7058625939833A284,284,0,0,1,250.2429686779189,134.29242952326874Q0,0,11.156846462309089,283.78076886395326Z"><title>KR &gt; GB 2</title></path><path style="mix-blend-mode: multiply;" fill="#377eb8" d="M-106.61238795426134,263.2295552074084A284,284,0,0,1,-107.22871521664834,262.9790916270473Q0,0,27.034142516017717,-282.71037324163336A284,284,0,0,1,27.696322269365048,-282.64626962468736Q0,0,-106.61238795426134,263.2295552074084Z"><title>NL &gt; AT 2</title></path><path style="mix-blend-mode: multiply;" fill="#377eb8" d="M-108.15078690667308,262.6012324637251A284,284,0,0,1,-108.76563809129165,262.34716688120375Q0,0,-243.6498117519016,145.9135676805379A284,284,0,0,1,-243.99094830027275,145.34241345021636Q0,0,-108.15078690667308,262.6012324637251Z"><title>NL &gt; SE 2</title></path><path style="mix-blend-mode: multiply;" fill="#377eb8" d="M-109.68548304516779,261.96391890706667A284,284,0,0,1,-110.29883710104282,261.70626002095867Q0,0,-15.275475239696151,-283.5888923357215A284,284,0,0,1,-14.611121455430078,-283.62389731793525Q0,0,-109.68548304516779,261.96391890706667Z"><title>NL &gt; ZA 2</title></path><path style="mix-blend-mode: multiply;" fill="#4daf4a" d="M-144.55330123552898,244.45928720731888A284,284,0,0,1,-145.1255547229056,244.11999788294472Q0,0,161.3689011548344,-233.70082956652354A284,284,0,0,1,161.9159066326581,-233.32217892717432Q0,0,-144.55330123552898,244.45928720731888Z"><title>NO &gt; CH 2</title></path><path style="mix-blend-mode: multiply;" fill="#f781bf" d="M-222.91302255179082,175.97097595008336A284,284,0,0,1,-223.32462599307905,175.44831553779974Q0,0,-282.5567374446224,28.595281510254868A284,284,0,0,1,-282.62294713474887,27.933309021111906Q0,0,-222.91302255179082,175.97097595008336Z"><title>PT &gt; UK 2</title></path><path style="mix-blend-mode: multiply;" fill="#377eb8" d="M-246.17349061174573,141.61430902288345A284,284,0,0,1,-246.5045491483264,141.0372548271567Q0,0,25.379468410105922,-282.863717332606A284,284,0,0,1,26.042011914556912,-282.803489397571Q0,0,-246.17349061174573,141.61430902288345Z"><title>SE &gt; AT 2</title></path><path style="mix-blend-mode: multiply;" fill="#377eb8" d="M-246.9978982772859,140.17146017147545A284,284,0,0,1,-247.3255746536139,139.59247874530934Q0,0,-230.3664261190334,-166.09427960391628A284,284,0,0,1,-229.97671534773514,-166.63346121912852Q0,0,-246.9978982772859,140.17146017147545Z"><title>SE &gt; US 2</title></path><path style="mix-blend-mode: multiply;" fill="#4daf4a" d="M-260.69370457447735,112.67116931688926A284,284,0,0,1,-260.9569234678759,112.06018068065548Q0,0,23.72392537432763,-283.0073768735249A284,284,0,0,1,24.386809946040646,-282.95102668245556Q0,0,-260.69370457447735,112.67116931688926Z"><title>SG &gt; AT 2</title></path><path style="mix-blend-mode: multiply;" fill="#999999" d="M-215.4626254196201,-185.0185316320624A284,284,0,0,1,-215.0286251529682,-185.52274891458535Q0,0,254.42055958305093,-126.19896537391753A284,284,0,0,1,254.7154847837158,-125.6026345718777Q0,0,-215.4626254196201,-185.0185316320624Z"><title>US &gt; CZ 2</title></path><path style="mix-blend-mode: multiply;" fill="#999999" d="M-214.37634581593954,-186.27609174181396A284,284,0,0,1,-213.93940267345658,-186.77776094525976Q0,0,268.1982566409744,93.41142935820027A284,284,0,0,1,267.97870290126474,94.03943210885363Q0,0,-214.37634581593954,-186.27609174181396Z"><title>US &gt; FR 2</title></path><path style="mix-blend-mode: multiply;" fill="#999999" d="M-213.28272649944256,-187.52727422154885A284,284,0,0,1,-212.84285544097486,-188.02637817001175Q0,0,137.96713116191728,248.2359174635095A284,284,0,0,1,137.3852557024598,248.558426764352Q0,0,-213.28272649944256,-187.52727422154885Z"><title>US &gt; IN 2</title></path><path style="mix-blend-mode: multiply;" fill="#999999" d="M-212.18180491293418,-188.7720362338912A284,284,0,0,1,-211.73902099857256,-189.26855783929363Q0,0,-36.08575704288562,281.69809750625194A284,284,0,0,1,-36.74554068796796,281.6127931034897Q0,0,-212.18180491293418,-188.7720362338912Z"><title>US &gt; LV 2</title></path><path style="mix-blend-mode: multiply;" fill="#999999" d="M-211.07361874923095,-190.01033516128618A284,284,0,0,1,-210.62793713879526,-190.5042574239634Q0,0,-138.7926221105158,247.7753176724582A284,284,0,0,1,-139.3726592620274,247.44951374013812Q0,0,-211.07361874923095,-190.01033516128618Z"><title>US &gt; NO 2</title></path><path style="mix-blend-mode: multiply;" fill="#999999" d="M-209.95820594987046,-191.2421286074587A284,284,0,0,1,-209.50964190239034,-191.73343461674116Q0,0,-212.24461047997318,188.70141844248144A284,284,0,0,1,-212.6860644733286,188.20371404105478Q0,0,-209.95820594987046,-191.2421286074587Z"><title>US &gt; PL 2</title></path><path style="mix-blend-mode: multiply;" fill="#999999" d="M-208.83560470381238,-192.46737439886536A284,284,0,0,1,-208.38417357700507,-192.95604733365738Q0,0,-242.79186284930685,147.33672771635514A284,284,0,0,1,-243.13633552856743,146.76757934141955Q0,0,-208.83560470381238,-192.46737439886536Z"><title>US &gt; SE 2</title></path><path style="mix-blend-mode: multiply;" fill="#999999" d="M-207.7058534461309,-193.68603058613803A284,284,0,0,1,-207.2515706958752,-194.1720537154939Q0,0,-270.592449382573,86.23065775662194A284,284,0,0,1,-270.79370376231054,85.59655368465486Q0,0,-207.7058534461309,-193.68603058613803Z"><title>US &gt; TH 2</title></path><path style="mix-blend-mode: multiply;" fill="#999999" d="M-206.5689908566988,-194.89805544552024A284,284,0,0,1,-206.11187203650604,-195.38141212921704Q0,0,-280.660720039405,43.4230379748208A284,284,0,0,1,-280.7616692069672,42.76546625628565Q0,0,-206.5689908566988,-194.89805544552024Z"><title>US &gt; UG 2</title></path><path style="mix-blend-mode: multiply;" fill="#ff7f00" d="M99.67448077025378,-265.9341984085167A284,284,0,0,1,101.07407638376233,-265.4054089184495Q0,0,-97.30719336760528,266.8095015529235A284,284,0,0,1,-98.71143305147848,266.29317111958295Q0,0,99.67448077025378,-265.9341984085167Z"><title>BE &gt; NL 3</title></path><path style="mix-blend-mode: multiply;" fill="#a65628" d="M168.8050303102887,-228.38752536411113A284,284,0,0,1,170.00586546047052,-227.4950674389148Q0,0,251.72072656905746,131.50161906054922A284,284,0,0,1,251.02446447352762,132.82589444750099Q0,0,168.8050303102887,-228.38752536411113Z"><title>CH &gt; GB 3</title></path><path style="mix-blend-mode: multiply;" fill="#ff7f00" d="M275.78832731872524,-67.7996940608117A284,284,0,0,1,276.1416786002095,-66.34586151267166Q0,0,91.06602504770302,-269.00367856594664A284,284,0,0,1,92.48191057190698,-268.5201970373361Q0,0,275.78832731872524,-67.7996940608117Z"><title>DE &gt; BE 3</title></path><path style="mix-blend-mode: multiply;" fill="#4daf4a" d="M266.5172883496138,98.10471451856336A284,284,0,0,1,265.99676051761674,99.50740371516906Q0,0,127.81688168450705,-253.61160217239419A284,284,0,0,1,129.15116960234045,-252.93472555255732Q0,0,266.5172883496138,98.10471451856336Z"><title>FR &gt; CA 3</title></path><path style="mix-blend-mode: multiply;" fill="#4daf4a" d="M93.29665764458538,268.238203230541A284,284,0,0,1,91.88224639738812,268.725980874514Q0,0,252.86519763132165,129.28724541451348A284,284,0,0,1,252.18058528615953,130.61758076434432Q0,0,93.29665764458538,268.238203230541Z"><title>IT &gt; GB 3</title></path><path style="mix-blend-mode: multiply;" fill="#984ea3" d="M67.01051074099834,275.9811432874184A284,284,0,0,1,65.55567336250728,276.33033436448534Q0,0,16.96579448294603,283.49278971000734A284,284,0,0,1,15.472079152281186,283.578233943837Q0,0,67.01051074099834,275.9811432874184Z"><title>JP &gt; KR 3</title></path><path style="mix-blend-mode: multiply;" fill="#377eb8" d="M-111.21642382556732,261.317636357464A284,284,0,0,1,-112.59153857603832,260.72810635042873Q0,0,253.99018944349496,127.0629122382198A284,284,0,0,1,253.31727958721584,128.3992050697056Q0,0,-111.21642382556732,261.317636357464Z"><title>NL &gt; GB 3</title></path><path style="mix-blend-mode: multiply;" fill="#999999" d="M-205.42505585886317,-196.10340748029583A284,284,0,0,1,-204.38910488658226,-197.18289429781092Q0,0,283.95018527540026,-5.319048981337533A284,284,0,0,1,283.9742664681917,-3.8230856454526987Q0,0,-205.42505585886317,-196.10340748029583Z"><title>US &gt; DK 3</title></path><path style="mix-blend-mode: multiply;" fill="#999999" d="M-203.69597833674047,-197.89883377483096A284,284,0,0,1,-202.65059280011823,-198.96918665401603Q0,0,280.8964955632561,41.870738950747615A284,284,0,0,1,280.6720166894115,43.3499601787441Q0,0,-203.69597833674047,-197.89883377483096Z"><title>US &gt; ES 3</title></path><path style="mix-blend-mode: multiply;" fill="#999999" d="M-201.95120927247706,-199.67901510520372A284,284,0,0,1,-200.89646970187718,-200.7401515923577Q0,0,272.97224730786246,78.3718839871492A284,284,0,0,1,272.55558522945427,79.80885264323551Q0,0,-201.95120927247706,-199.67901510520372Z"><title>US &gt; FI 3</title></path><path style="mix-blend-mode: multiply;" fill="#999999" d="M-200.1908830728371,-201.44381433669702A284,284,0,0,1,-199.126870719203,-202.49565268809553Q0,0,-11.265488201140816,283.7764767833831A284,284,0,0,1,-12.76030627678367,283.71319071154Q0,0,-200.1908830728371,-201.44381433669702Z"><title>US &gt; LB 3</title></path><path style="mix-blend-mode: multiply;" fill="#999999" d="M-198.41513534301492,-203.19309551954038A284,284,0,0,1,-197.34193217161086,-204.23555470773286Q0,0,-229.92831271893206,166.70024298190148A284,284,0,0,1,-230.80332239431073,165.48663502454772Q0,0,-198.41513534301492,-203.19309551954038Z"><title>US &gt; QA 3</title></path><path style="mix-blend-mode: multiply;" fill="#984ea3" d="M75.18445190484525,-273.8673003331504A284,284,0,0,1,77.42591974346334,-273.24206658543403Q0,0,-232.2943395764949,-163.38708578317957A284,284,0,0,1,-230.94779379476287,-165.28495558075358Q0,0,75.18445190484525,-273.8673003331504Z"><title>AU &gt; US 4</title></path><path style="mix-blend-mode: multiply;" fill="#f781bf" d="M194.91770673061626,-206.55044808200606A284,284,0,0,1,196.60357986053756,-204.94641345000704Q0,0,-94.17824133604442,267.92995140306687A284,284,0,0,1,-96.37042260170196,267.1492871927031Q0,0,194.91770673061626,-206.55044808200606Z"><title>CL &gt; NL 4</title></path><path style="mix-blend-mode: multiply;" fill="#ffff33" d="M283.99179667302656,2.1585695324312213A284,284,0,0,1,283.9645766176363,4.485446061047971Q0,0,-234.19044058484744,-160.6575162844087A284,284,0,0,1,-232.86619647830625,-162.57101383003942Q0,0,283.99179667302656,2.1585695324312213Z"><title>DK &gt; US 4</title></path><path style="mix-blend-mode: multiply;" fill="#ff7f00" d="M44.208847642187905,280.5380148752568A284,284,0,0,1,41.908713919724356,280.8908323487876Q0,0,-236.05446947518593,-157.9059449190831A284,284,0,0,1,-234.7527083975798,-159.83480816142915Q0,0,44.208847642187905,280.5380148752568Z"><title>KE &gt; US 4</title></path><path style="mix-blend-mode: multiply;" fill="#377eb8" d="M-113.50567907620278,260.33144415811563A284,284,0,0,1,-115.63495150413074,259.39267142815993Q0,0,87.91182342488491,-270.0509420500359A284,284,0,0,1,90.1215938498562,-269.3215519076807Q0,0,-113.50567907620278,260.33144415811563Z"><title>NL &gt; BE 4</title></path><path style="mix-blend-mode: multiply;" fill="#377eb8" d="M-116.54438754290038,258.9853388364875A284,284,0,0,1,-118.66252835538793,258.02171297064666Q0,0,270.6053994581178,-86.1900097697668A284,284,0,0,1,271.3025322075833,-83.96985183834265Q0,0,-116.54438754290038,258.9853388364875Z"><title>NL &gt; DE 4</title></path><path style="mix-blend-mode: multiply;" fill="#984ea3" d="M-158.59705952176301,235.59068893114255A284,284,0,0,1,-160.52209947655686,234.2832806233479Q0,0,-237.88617097084574,-155.13274851181342A284,284,0,0,1,-236.60707119689334,-157.0767132952184Q0,0,-158.59705952176301,235.59068893114255Z"><title>NZ &gt; US 4</title></path><path style="mix-blend-mode: multiply;" fill="#999999" d="M-196.62410287618914,-204.92672389938258A284,284,0,0,1,-194.9383903879747,-206.53092735216578Q0,0,185.03902906752793,-215.44502250399418A284,284,0,0,1,186.79811345930042,-213.9216323985172Q0,0,-196.62410287618914,-204.92672389938258Z"><title>US &gt; CL 4</title></path><path style="mix-blend-mode: multiply;" fill="#999999" d="M-194.21252196553934,-207.21364895147448A284,284,0,0,1,-192.50815201054763,-208.7980158178805Q0,0,104.20211672412728,264.1929576468899A284,284,0,0,1,102.03389588937851,265.0378917997113Q0,0,-194.21252196553934,-207.21364895147448Z"><title>US &gt; IT 4</title></path><path style="mix-blend-mode: multiply;" fill="#999999" d="M-191.77434386796452,-209.47219632689132A284,284,0,0,1,-190.05154985774814,-211.03650962965597Q0,0,-47.584741631027526,279.9851645425314A284,284,0,0,1,-49.877264026924735,279.5858696951411Q0,0,-191.77434386796452,-209.47219632689132Z"><title>US &gt; MX 4</title></path><path style="mix-blend-mode: multiply;" fill="#999999" d="M-189.30990248921884,-211.7020567201048A284,284,0,0,1,-187.56892035848406,-213.24610222827675Q0,0,-154.43730833938892,238.33824240537757A284,284,0,0,1,-156.38500061439774,237.06482569718102Q0,0,-189.30990248921884,-211.7020567201048Z"><title>US &gt; NZ 4</title></path><path style="mix-blend-mode: multiply;" fill="#999999" d="M-186.81953533178333,-213.9029247542365A284,284,0,0,1,-185.06060350607925,-215.4264910125162Q0,0,-277.81587414263055,58.94353293081494A284,284,0,0,1,-278.289514867224,56.665209034866336Q0,0,-186.81953533178333,-213.9029247542365Z"><title>US &gt; TW 4</title></path><path style="mix-blend-mode: multiply;" fill="#999999" d="M-184.30358344864533,-216.07449902287922A284,284,0,0,1,-182.52694281171142,-217.57737738057745Q0,0,-282.20275852340524,31.899891563775547A284,284,0,0,1,-282.45466398532017,29.58653059991771Q0,0,-184.30358344864533,-216.07449902287922Z"><title>US &gt; UK 4</title></path><path style="mix-blend-mode: multiply;" fill="#984ea3" d="M237.41724450405198,155.84945303754904A284,284,0,0,1,235.6696417626771,158.47971463708362Q0,0,-90.24896442494594,269.27889709411846A284,284,0,0,1,-93.23755843622116,268.25875138912477Q0,0,237.41724450405198,155.84945303754904Z"><title>GB &gt; NL 5</title></path><path style="mix-blend-mode: multiply;" fill="#984ea3" d="M-271.33885828822713,83.85239401973799A284,284,0,0,1,-272.25445780353976,80.8301317956404Q0,0,-240.12995571249473,-151.63642164570928A284,284,0,0,1,-238.42903092334262,-154.29710694940374Q0,0,-271.33885828822713,83.85239401973799Z"><title>TH &gt; US 5</title></path><path style="mix-blend-mode: multiply;" fill="#999999" d="M-181.7623913965918,-218.21648213137377A284,284,0,0,1,-179.32475609799639,-220.2240492098765Q0,0,157.9331290250113,-236.0362827117245A284,284,0,0,1,160.54790658263136,-234.26559647531403Q0,0,-181.7623913965918,-218.21648213137377Z"><title>US &gt; CH 5</title></path><path style="mix-blend-mode: multiply;" fill="#ff7f00" d="M276.3727707643799,-65.37653692280992A284,284,0,0,1,277.26370183413934,-61.48853263194255Q0,0,256.1813901737572,122.58505344715218A284,284,0,0,1,254.43445981244184,126.17093825422286Q0,0,276.3727707643799,-65.37653692280992Z"><title>DE &gt; GB 6</title></path><path style="mix-blend-mode: multiply;" fill="#999999" d="M278.94640073750725,53.337655700171354A284,284,0,0,1,278.1697798362577,57.25009681955044Q0,0,-242.7546299581639,-147.39806523111122A284,284,0,0,1,-240.66053406445693,-150.79292869299397Q0,0,278.94640073750725,53.337655700171354Z"><title>ES &gt; US 6</title></path><path style="mix-blend-mode: multiply;" fill="#984ea3" d="M235.1121230099111,159.30564840510974A284,284,0,0,1,232.85154318065725,162.5920011513067Q0,0,281.5881750920433,36.933719665541176A284,284,0,0,1,281.0416810112275,40.88488148916967Q0,0,235.1121230099111,159.30564840510974Z"><title>GB &gt; ES 6</title></path><path style="mix-blend-mode: multiply;" fill="#ff7f00" d="M277.47774386717396,-60.51530102695532A284,284,0,0,1,278.4647277703798,-55.7978080910735Q0,0,153.0664389634198,-239.22095489956072A284,284,0,0,1,157.10396104688255,-236.58897992801695Q0,0,277.47774386717396,-60.51530102695532Z"><title>DE &gt; CH 7</title></path><path style="mix-blend-mode: multiply;" fill="#f781bf" d="M152.24293330570364,239.74588475816446A284,284,0,0,1,147.4430366443359,242.7273180857421Q0,0,-246.13770340186258,-141.67650110041797A284,284,0,0,1,-243.27032075782859,-146.54538900416892Q0,0,152.24293330570364,239.74588475816446Z"><title>IL &gt; US 8</title></path><path style="mix-blend-mode: multiply;" fill="#4daf4a" d="M37.76443469024548,-281.4779697818751A284,284,0,0,1,44.998522814166186,-280.4124336482656Q0,0,-250.1767324603725,-134.41578231536354A284,284,0,0,1,-246.63329775380436,-140.8119896851233Q0,0,37.76443469024548,-281.4779697818751Z"><title>AT &gt; US 10</title></path><path style="mix-blend-mode: multiply;" fill="#a65628" d="M170.80304561850807,-226.8971564551699A284,284,0,0,1,176.58786335146615,-222.42465357276365Q0,0,267.968342118763,-94.06895142458845A284,284,0,0,1,270.30131321691357,-87.13896988840291Q0,0,170.80304561850807,-226.8971564551699Z"><title>CH &gt; DE 10</title></path><path style="mix-blend-mode: multiply;" fill="#999999" d="M-178.5509378459192,-220.85190194866487A284,284,0,0,1,-172.8059596841855,-225.37546516341936Q0,0,166.0026125884679,230.4324903606326A284,284,0,0,1,160.01514289587865,234.62982343259677Q0,0,-178.5509378459192,-220.85190194866487Z"><title>US &gt; IL 10</title></path><path style="mix-blend-mode: multiply;" fill="#ffff33" d="M135.91104396750552,-249.36757633594385A284,284,0,0,1,143.72164515797675,-244.94915536307656Q0,0,-254.74063618866347,-125.55161597603986A284,284,0,0,1,-250.64682579513774,-133.5371435924173Q0,0,135.91104396750552,-249.36757633594385Z"><title>CA &gt; US 12</title></path><path style="mix-blend-mode: multiply;" fill="#984ea3" d="M64.5856916881417,276.5586527830296A284,284,0,0,1,55.81593411011611,278.4610951271563Q0,0,-258.9905905841035,-116.53271638856313A284,284,0,0,1,-255.17959915503835,-124.6570181541094Q0,0,64.5856916881417,276.5586527830296Z"><title>JP &gt; US 12</title></path><path style="mix-blend-mode: multiply;" fill="#ffff33" d="M9.496180995078486,283.8411924765479A284,284,0,0,1,-0.3070410775998904,283.9998340242062Q0,0,-263.2343593704569,-106.60052554666484A284,284,0,0,1,-259.3978821921128,-115.62326199449132Q0,0,9.496180995078486,283.8411924765479Z"><title>KR &gt; US 13</title></path><path style="mix-blend-mode: multiply;" fill="#999999" d="M-172.01410645347644,-225.98041326852217A284,284,0,0,1,-164.111262112977,-231.78329026848715Q0,0,55.785259170160124,-278.4672419860513A284,284,0,0,1,65.36408226509563,-276.3757166424753Q0,0,-172.01410645347644,-225.98041326852217Z"><title>US &gt; AU 13</title></path><path style="mix-blend-mode: multiply;" fill="#999999" d="M-163.2969788537871,-232.35769128054662A284,284,0,0,1,-155.17919981109594,-237.8558722125396Q0,0,-252.527820705719,129.94498747400857A284,284,0,0,1,-256.8627457934472,121.15085564473304Q0,0,-163.2969788537871,-232.35769128054662Z"><title>US &gt; SG 13</title></path><path style="mix-blend-mode: multiply;" fill="#ff7f00" d="M278.6587949966604,-54.820397399227254A284,284,0,0,1,280.5159638832781,-44.34855134765274Q0,0,-79.14695096060117,272.7485291502783A284,284,0,0,1,-89.30357257964216,269.593901868185Q0,0,278.6587949966604,-54.820397399227254Z"><title>DE &gt; NL 14</title></path><path style="mix-blend-mode: multiply;" fill="#984ea3" d="M232.27961272947493,163.40802156028064A284,284,0,0,1,225.99849937486218,171.9903435670457Q0,0,-267.37861799032436,-95.73230719868914A284,284,0,0,1,-263.6067751340358,-105.6762419062766Q0,0,232.27961272947493,163.40802156028064Z"><title>GB &gt; US 14</title></path><path style="mix-blend-mode: multiply;" fill="#377eb8" d="M-119.56713538651776,257.6037657633563A284,284,0,0,1,-129.12837234112143,252.94636478220576Q0,0,-271.0743734781609,-84.70350667724769A284,284,0,0,1,-267.71287422173117,-94.79354923168324Q0,0,-119.56713538651776,257.6037657633563Z"><title>NL &gt; US 14</title></path><path style="mix-blend-mode: multiply;" fill="#999999" d="M-154.34366427395875,-238.39889533822827A284,284,0,0,1,-145.30942615669701,-244.01059540522294Q0,0,219.19361075512234,180.5828369589201A284,284,0,0,1,212.27862194620147,188.66315661681713Q0,0,-154.34366427395875,-238.39889533822827Z"><title>US &gt; GE 14</title></path><path style="mix-blend-mode: multiply;" fill="#999999" d="M-144.452355899598,-244.5189499303804A284,284,0,0,1,-135.19590925448443,-249.75601318257225Q0,0,81.44451189159587,272.0712985280507A284,284,0,0,1,71.20064340199016,274.9299335815266Q0,0,-144.452355899598,-244.5189499303804Z"><title>US &gt; JP 14</title></path><path style="mix-blend-mode: multiply;" fill="#999999" d="M-134.31874193424733,-250.22884638906254A284,284,0,0,1,-123.3609227965371,-255.80868383772045Q0,0,-177.98212893921365,221.3105550538996A284,284,0,0,1,-187.39539204925438,213.39861067660738Q0,0,-134.31874193424733,-250.22884638906254Z"><title>US &gt; PH 16</title></path><path style="mix-blend-mode: multiply;" fill="#999999" d="M221.38669409402505,-177.88741292772397A284,284,0,0,1,229.3704988956272,-167.466934755405Q0,0,-274.9502436371523,-71.12217322235438A284,284,0,0,1,-271.369909493195,-83.75184906409625Q0,0,221.38669409402505,-177.88741292772397Z"><title>CN &gt; US 17</title></path><path style="mix-blend-mode: multiply;" fill="#999999" d="M-122.46259093200959,-256.23995360251547A284,284,0,0,1,-110.4907273958296,-261.6253029803128Q0,0,261.9589757233458,109.69728819791094A284,284,0,0,1,256.60993530126285,121.68541861982345Q0,0,-122.46259093200959,-256.23995360251547Z"><title>US &gt; GB 17</title></path><path style="mix-blend-mode: multiply;" fill="#999999" d="M-109.57206560870422,-262.0113784518562A284,284,0,0,1,-97.34727102866447,-266.7948815537355Q0,0,31.038793288903133,282.29876604613196A284,284,0,0,1,17.960399547811022,283.4315156225274Q0,0,-109.57206560870422,-262.0113784518562Z"><title>US &gt; KR 17</title></path><path style="mix-blend-mode: multiply;" fill="#999999" d="M-96.4105513141911,-267.1348079065956A284,284,0,0,1,-82.37414879406215,-271.7912794967007Q0,0,204.3654075659121,-197.20745470295645A284,284,0,0,1,214.3539591144407,-186.3018524115224Q0,0,-96.4105513141911,-267.1348079065956Z"><title>US &gt; CN 19</title></path><path style="mix-blend-mode: multiply;" fill="#4daf4a" d="M-261.34850989611704,111.14385441885311A284,284,0,0,1,-267.06355052939847,96.6077635525812Q0,0,-278.63888720821313,-54.921494292933104A284,284,0,0,1,-275.19810208954635,-70.15699969576542Q0,0,-261.34850989611704,111.14385441885311Z"><title>SG &gt; US 20</title></path><path style="mix-blend-mode: multiply;" fill="#999999" d="M-81.41999006526511,-272.07863792986785A284,284,0,0,1,-66.33894806005654,-276.143339536345Q0,0,-63.06129371784424,276.9102259481072A284,284,0,0,1,-78.18945333375301,273.024558212936Q0,0,-81.41999006526511,-272.07863792986785Z"><title>US &gt; NL 20</title></path><path style="mix-blend-mode: multiply;" fill="#ffff33" d="M-193.07022873796046,208.27838768117934A284,284,0,0,1,-204.80513637000757,196.75074616494493Q0,0,-281.485339029247,-37.709467134791375A284,284,0,0,1,-278.82987858346706,-53.943477910948666Q0,0,-193.07022873796046,208.27838768117934Z"><title>PH &gt; US 21</title></path><path style="mix-blend-mode: multiply;" fill="#999999" d="M-65.36961768491791,-276.37440743261243A284,284,0,0,1,-48.44010572054248,-279.83844653260684Q0,0,111.23997565330347,-261.30761147860284A284,284,0,0,1,126.92623143293893,-254.0585203732243Q0,0,-65.36961768491791,-276.37440743261243Z"><title>US &gt; CA 22</title></path><path style="mix-blend-mode: multiply;" fill="#999999" d="M-47.45792026481209,-280.0066888560678A284,284,0,0,1,-26.206917620764845,-282.78825553551275Q0,0,259.7097317054704,-114.92108273712266A284,284,0,0,1,267.6366267579928,-95.00861022877255Q0,0,-47.45792026481209,-280.0066888560678Z"><title>US &gt; DE 27</title></path><path style="mix-blend-mode: multiply;" fill="#ff7f00" d="M209.38435184230448,191.87025096032485A284,284,0,0,1,193.7120294946005,207.68160638121765Q0,0,-283.6270366352597,-14.550054621927002A284,284,0,0,1,-281.6159199286743,-36.72156917571054Q0,0,209.38435184230448,191.87025096032485Z"><title>GE &gt; US 28</title></path><path style="mix-blend-mode: multiply;" fill="#ff7f00" d="M280.66984573444745,-43.364013829458386A284,284,0,0,1,283.5334671169658,-16.271847609674495Q0,0,-283.6699321242029,13.688301890670278A284,284,0,0,1,-283.67634342117077,-13.554784513004575Q0,0,280.66984573444745,-43.364013829458386Z"><title>DE &gt; US 34</title></path></g></svg>