<svg viewBox="-375,-375,750,750" xmlns="http://www.w3.org/2000/svg" xmlns:xlink="http://www.w3.org/1999/xlink"><g font-size="12" font-family="sans-serif"><g><path fill="#1f77b4" d="M1.8369701987210297e-14,-300A300,300,0,0,1,154.35808243147088,-257.24226400045393L146.64017830989735,-244.38015080043124A285,285,0,0,0,1.7451216887849784e-14,-285Z"/><text dy="0.35em" transform="&#xA;        rotate(-74.51707983248733)&#xA;        translate(305)&#xA;        &#xA;      ">M_Asian</text><title>M_Asian
315 outgoing →
271 incoming ←</title></g><g><path fill="#ff7f0e" d="M163.28726575259515,-251.6689667858184A300,300,0,0,1,176.50961715427883,-242.57855439434445L167.68413629656487,-230.4496266746272A285,285,0,0,0,155.1229024649654,-239.0855184465275Z"/><text dy="0.35em" transform="&#xA;        rotate(-55.49134223897831)&#xA;        translate(305)&#xA;        &#xA;      ">M_Black</text><title>M_Black
23 outgoing →
35 incoming ←</title></g><g><path fill="#2ca02c" d="M184.91075540621603,-236.2371954944914A300,300,0,0,1,217.25382124709847,-206.8834869039426L206.39113018474353,-196.53931255874548A285,285,0,0,0,175.66521763590524,-224.42533571976682Z"/><text dy="0.35em" transform="&#xA;        rotate(-47.773949068157734)&#xA;        translate(305)&#xA;        &#xA;      ">M_HLS</text><title>M_HLS
80 outgoing →
78 incoming ←</title></g><g><path fill="#d62728" d="M224.37767946790765,-199.13477083773415A300,300,0,0,1,225.29358024720037,-198.09796238073295L214.02890123484036,-188.1930642616963A285,285,0,0,0,213.15879549451228,-189.17803229584746Z"/><text dy="0.35em" transform="&#xA;        rotate(-41.456888267436426)&#xA;        translate(305)&#xA;        &#xA;      ">M_Indigenous</text><title>M_Indigenous
3 outgoing →
2 incoming ←</title></g><g><path fill="#9467bd" d="M232.10428913980718,-190.0726149736063A300,300,0,0,1,241.11426299233253,-178.50465591032716L229.0585498427159,-169.57942311481082A285,285,0,0,0,220.49907468281683,-180.568984224926Z"/><text dy="0.35em" transform="&#xA;        rotate(-37.91407084144009)&#xA;        translate(305)&#xA;        &#xA;      ">M_MENA</text><title>M_MENA
25 outgoing →
28 incoming ←</title></g><g><path fill="#8c564b" d="M247.22789070234882,-169.93637061814482A300,300,0,0,1,-12.139955827064089,299.75426848089575L-11.532958035710884,284.76655505685096A285,285,0,0,0,234.86649616723136,-161.4395520872376Z"/><text dy="0.35em" transform="&#xA;        rotate(28.907916893759094)&#xA;        translate(305)&#xA;        &#xA;      ">M_White</text><title>M_White
1289 outgoing →
1111 incoming ←</title></g><g><path fill="#e377c2" d="M-22.648019176384196,299.14389050653557A300,300,0,0,1,-23.199768974447853,299.1016060129605L-22.03978052572546,284.14652571231244A285,285,0,0,0,-21.515618217564985,284.1866959812088Z"/><text dy="0.35em" transform="&#xA;        rotate(94.38241498980611)&#xA;        translate(305)&#xA;        rotate(180)&#xA;      " text-anchor="end">N_Asian</text><title>N_Asian
2 outgoing →
0 incoming ←</title></g><g><path fill="#7f7f7f" d="M-33.678129149764864,298.10364576263026A300,300,0,0,1,-33.95304971081257,298.07245833074734L-32.25539722527194,283.1688354142099A285,285,0,0,0,-31.99422269227662,283.19846347449874Z"/><text dy="0.35em" transform="&#xA;        rotate(96.47205731475606)&#xA;        translate(305)&#xA;        rotate(180)&#xA;      " text-anchor="end">N_HLS</text><title>N_HLS
0 outgoing →
1 incoming ←</title></g><g><path fill="#bcbd22" d="M-44.38868808905128,296.6979008515782A300,300,0,0,1,-44.93588913154883,296.6155185892288L-42.689094674971386,281.7847426597674A285,285,0,0,0,-42.169253684598715,281.8630058089993Z"/><text dy="0.35em" transform="&#xA;        rotate(98.561699639706)&#xA;        translate(305)&#xA;        rotate(180)&#xA;      " text-anchor="end">N_White</text><title>N_White
2 outgoing →
0 incoming ←</title></g><g><path fill="#17becf" d="M-55.313657248932024,294.8565741538548A300,300,0,0,1,-200.3802304835292,223.266126475486L-190.36121895935275,212.1028201517117A285,285,0,0,0,-52.54797438648543,280.11374544616206Z"/><text dy="0.35em" transform="&#xA;        rotate(116.26636895953649)&#xA;        translate(305)&#xA;        rotate(180)&#xA;      " text-anchor="end">W_Asian</text><title>W_Asian
304 outgoing →
288 incoming ←</title></g><g><path fill="#1f77b4" d="M-208.08918609875536,216.09926105555652A300,300,0,0,1,-220.2871121856208,203.65065235574303L-209.27275657633976,193.4681197379559A285,285,0,0,0,-197.6847267938176,205.29429800277867Z"/><text dy="0.35em" transform="&#xA;        rotate(135.58274157325485)&#xA;        translate(305)&#xA;        rotate(180)&#xA;      " text-anchor="end">W_Black</text><title>W_Black
16 outgoing →
47 incoming ←</title></g><g><path fill="#ff7f0e" d="M-227.29569386571396,195.79751671076843A300,300,0,0,1,-251.3723924215916,163.7434588868983L-238.803772800512,155.55628594255342A285,285,0,0,0,-215.93090917242827,186.00764087523Z"/><text dy="0.35em" transform="&#xA;        rotate(143.0887638202869)&#xA;        translate(305)&#xA;        rotate(180)&#xA;      " text-anchor="end">W_HLS</text><title>W_HLS
63 outgoing →
82 incoming ←</title></g><g><path fill="#2ca02c" d="M-256.96187567336455,154.82439875687015A300,300,0,0,1,-259.2184783422345,151.01582859401358L-246.25755442512278,143.46503716431292A285,285,0,0,0,-244.11378188969636,147.08317881902664Z"/><text dy="0.35em" transform="&#xA;        rotate(149.35298189006105)&#xA;        translate(305)&#xA;        rotate(180)&#xA;      " text-anchor="end">W_Indigenous</text><title>W_Indigenous
6 outgoing →
10 incoming ←</title></g><g><path fill="#d62728" d="M-264.35664035321713,141.8293576843659A300,300,0,0,1,-270.4940685023558,129.7418934078074L-256.969365077238,123.25479873741702A285,285,0,0,0,-251.1388083355563,134.7378898001476Z"/><text dy="0.35em" transform="&#xA;        rotate(153.0807488743724)&#xA;        translate(305)&#xA;        rotate(180)&#xA;      " text-anchor="end">W_MENA</text><title>W_MENA
26 outgoing →
23 incoming ←</title></g><g><path fill="#9467bd" d="M-274.8789895552865,120.17296326988321A300,300,0,0,1,-10.524156013574276,-299.81534673895857L-9.997948212895562,-284.8245794020106A285,285,0,0,0,-261.13504007752215,114.16431510638905Z"/><text dy="0.35em" transform="&#xA;        rotate(212.18769789128896)&#xA;        translate(305)&#xA;        rotate(180)&#xA;      " text-anchor="end">W_White</text><title>W_White
967 outgoing →
1145 incoming ←</title></g></g><g fill-opacity="0.75"><path style="mix-blend-mode: multiply;" fill="#1f77b4" d="M70.37249078053357,-275.1430764917477Q0,0,162.07977467469888,-233.20837601038014Q0,0,70.37249078053357,-275.1430764917477Z"><title>M_Asian --&gt; M_Black 1</title></path><path style="mix-blend-mode: multiply;" fill="#ff7f0e" d="M162.29478904895757,-233.0587939717237Q0,0,-205.58064074604886,195.94029741338048Q0,0,162.29478904895757,-233.0587939717237Z"><title>M_Black --&gt; W_Black 1</title></path><path style="mix-blend-mode: multiply;" fill="#2ca02c" d="M190.7672871417733,-210.38973871500534Q0,0,-205.39984159114329,196.12981689262153Q0,0,190.7672871417733,-210.38973871500534Z"><title>M_HLS --&gt; W_Black 1</title></path><path style="mix-blend-mode: multiply;" fill="#d62728" d="M212.84496203323943,-188.02399351430887Q0,0,259.08579545071865,116.32089492291733Q0,0,212.84496203323943,-188.02399351430887Z"><title>M_Indigenous --&gt; M_White 1</title></path><path style="mix-blend-mode: multiply;" fill="#9467bd" d="M224.37854617844388,-174.09844345900373Q0,0,70.11870202935114,-275.2078625797582Q0,0,224.37854617844388,-174.09844345900373Z"><title>M_MENA --&gt; M_Asian 1</title></path><path style="mix-blend-mode: multiply;" fill="#9467bd" d="M224.53901817741405,-173.89142967933444Q0,0,-123.68240972792029,255.65340115847246Q0,0,224.53901817741405,-173.89142967933444Z"><title>M_MENA --&gt; W_Asian 1</title></path><path style="mix-blend-mode: multiply;" fill="#8c564b" d="M258.97840488359674,116.55979497214221Q0,0,-32.01209473102484,282.1900526080462Q0,0,258.97840488359674,116.55979497214221Z"><title>M_White --&gt; N_HLS 1</title></path><path style="mix-blend-mode: multiply;" fill="#e377c2" d="M-21.570712514136112,283.17963267444304Q0,0,-205.2188677231989,196.31916954390417Q0,0,-21.570712514136112,283.17963267444304Z"><title>N_Asian --&gt; W_Black 1</title></path><path style="mix-blend-mode: multiply;" fill="#e377c2" d="M-21.831874112987574,283.1596180120228Q0,0,-228.48492786290345,168.67316840411758Q0,0,-21.831874112987574,283.1596180120228Z"><title>N_Asian --&gt; W_HLS 1</title></path><path style="mix-blend-mode: multiply;" fill="#bcbd22" d="M-42.15080911028244,280.8546052521634Q0,0,190.5731678633407,-210.5655899963975Q0,0,-42.15080911028244,280.8546052521634Z"><title>N_White --&gt; M_HLS 1</title></path><path style="mix-blend-mode: multiply;" fill="#bcbd22" d="M-42.40981763127034,280.815610977172Q0,0,-227.2167072658476,-170.37772137009614Q0,0,-42.40981763127034,280.815610977172Z"><title>N_White --&gt; W_White 1</title></path><path style="mix-blend-mode: multiply;" fill="#17becf" d="M-123.91814101936801,255.53922267687992Q0,0,-252.989713837055,129.04342173332594Q0,0,-123.91814101936801,255.53922267687992Z"><title>W_Asian --&gt; W_MENA 1</title></path><path style="mix-blend-mode: multiply;" fill="#1f77b4" d="M-205.76126503412834,195.75061126738584Q0,0,69.86485363522355,-275.2724145760501Q0,0,-205.76126503412834,195.75061126738584Z"><title>W_Black --&gt; M_Asian 1</title></path><path style="mix-blend-mode: multiply;" fill="#1f77b4" d="M-205.94171430174237,195.56075861598495Q0,0,161.8646224354365,-233.35775968206752Q0,0,-205.94171430174237,195.56075861598495Z"><title>W_Black --&gt; M_Black 1</title></path><path style="mix-blend-mode: multiply;" fill="#1f77b4" d="M-206.1219883954012,195.37073962066606Q0,0,190.3788864834334,-210.74126217076704Q0,0,-206.1219883954012,195.37073962066606Z"><title>W_Black --&gt; M_HLS 1</title></path><path style="mix-blend-mode: multiply;" fill="#1f77b4" d="M-206.30208716176344,195.1805544430596Q0,0,224.2178833231552,-174.30530915059347Q0,0,-206.30208716176344,195.1805544430596Z"><title>W_Black --&gt; M_MENA 1</title></path><path style="mix-blend-mode: multiply;" fill="#ff7f0e" d="M-228.64039449541073,168.46236970012905Q0,0,-205.0377192961524,196.50835520616474Q0,0,-228.64039449541073,168.46236970012905Z"><title>W_HLS --&gt; W_Black 1</title></path><path style="mix-blend-mode: multiply;" fill="#2ca02c" d="M-244.66516047018368,144.20457431059273Q0,0,69.61094581407416,-275.33673242571547Q0,0,-244.66516047018368,144.20457431059273Z"><title>W_Indigenous --&gt; M_Asian 1</title></path><path style="mix-blend-mode: multiply;" fill="#2ca02c" d="M-244.79805333826909,143.97886331609223Q0,0,-123.44657323225478,255.76736218136503Q0,0,-244.79805333826909,143.97886331609223Z"><title>W_Indigenous --&gt; W_Asian 1</title></path><path style="mix-blend-mode: multiply;" fill="#2ca02c" d="M-244.93073798120975,143.75302985321727Q0,0,-204.85639646408822,196.6973737184823Q0,0,-244.93073798120975,143.75302985321727Z"><title>W_Indigenous --&gt; W_Black 1</title></path><path style="mix-blend-mode: multiply;" fill="#2ca02c" d="M-245.06321428614416,143.5270741140618Q0,0,-227.37374651200315,-170.1680915950324Q0,0,-245.06321428614416,143.5270741140618Z"><title>W_Indigenous --&gt; W_White 1</title></path><path style="mix-blend-mode: multiply;" fill="#d62728" d="M-253.10862034433885,128.81003962186077Q0,0,69.35697878187676,-275.4008160740456Q0,0,-253.10862034433885,128.81003962186077Z"><title>W_MENA --&gt; M_Asian 1</title></path><path style="mix-blend-mode: multiply;" fill="#1f77b4" d="M70.75306160457748,-275.0454585583606Q0,0,223.97653148361243,-174.61532963795122Q0,0,70.75306160457748,-275.0454585583606Z"><title>M_Asian --&gt; M_MENA 2</title></path><path style="mix-blend-mode: multiply;" fill="#1f77b4" d="M71.2602786052774,-274.9144825088308Q0,0,-204.5840855440099,196.9805877291497Q0,0,71.2602786052774,-274.9144825088308Z"><title>M_Asian --&gt; W_Black 2</title></path><path style="mix-blend-mode: multiply;" fill="#d62728" d="M213.10487432549206,-187.72935982077027Q0,0,-227.60894270697293,-169.85337559146097Q0,0,213.10487432549206,-187.72935982077027Z"><title>M_Indigenous --&gt; W_White 2</title></path><path style="mix-blend-mode: multiply;" fill="#8c564b" d="M258.816906023485,116.91795908426795Q0,0,212.5846423878477,-188.31826735829668Q0,0,258.816906023485,116.91795908426795Z"><title>M_White --&gt; M_Indigenous 2</title></path><path style="mix-blend-mode: multiply;" fill="#1f77b4" d="M-206.5719062375595,194.8949654387741Q0,0,-228.25136355075236,168.98909739158407Q0,0,-206.5719062375595,194.8949654387741Z"><title>W_Black --&gt; W_HLS 2</title></path><path style="mix-blend-mode: multiply;" fill="#2ca02c" d="M-245.26153786333575,143.18791165776366Q0,0,259.24646806360664,115.96235939538907Q0,0,-245.26153786333575,143.18791165776366Z"><title>W_Indigenous --&gt; M_White 2</title></path><path style="mix-blend-mode: multiply;" fill="#d62728" d="M-253.28657639725103,128.45976108089067Q0,0,223.65406231062497,-175.02817033824894Q0,0,-253.28657639725103,128.45976108089067Z"><title>W_MENA --&gt; M_MENA 2</title></path><path style="mix-blend-mode: multiply;" fill="#1f77b4" d="M71.89395870048605,-274.74944713751984Q0,0,-252.75125534490667,129.50985646495707Q0,0,71.89395870048605,-274.74944713751984Z"><title>M_Asian --&gt; W_MENA 3</title></path><path style="mix-blend-mode: multiply;" fill="#ff7f0e" d="M162.7244034710164,-232.75903530261047Q0,0,-122.97458543077045,255.99463146349404Q0,0,162.7244034710164,-232.75903530261047Z"><title>M_Black --&gt; W_Asian 3</title></path><path style="mix-blend-mode: multiply;" fill="#9467bd" d="M224.8593890605714,-173.47695856022662Q0,0,-252.3919554353497,130.20868185923877Q0,0,224.8593890605714,-173.47695856022662Z"><title>M_MENA --&gt; W_MENA 3</title></path><path style="mix-blend-mode: multiply;" fill="#17becf" d="M-124.38928718764875,255.31021372626014Q0,0,-204.12936417254247,197.45177305487417Q0,0,-124.38928718764875,255.31021372626014Z"><title>W_Asian --&gt; W_Black 3</title></path><path style="mix-blend-mode: multiply;" fill="#9467bd" d="M-226.90204909590597,-170.79654597233247Q0,0,-252.03072336624987,130.90651045492288Q0,0,-226.90204909590597,-170.79654597233247Z"><title>W_White --&gt; W_MENA 3</title></path><path style="mix-blend-mode: multiply;" fill="#17becf" d="M-125.18978729006393,254.91864811792124A284,284,0,0,1,-125.23575897386701,254.89606641578345Q0,0,161.3050629824359,-233.74489653515943A284,284,0,0,1,161.3472154641249,-233.71580190901352Q0,0,-125.18978729006393,254.91864811792124Z"><title>W_Asian --&gt; M_Black 4</title></path><path style="mix-blend-mode: multiply;" fill="#17becf" d="M-126.12935838354764,254.45507452938446A284,284,0,0,1,-126.17524644813548,254.432323386303Q0,0,223.15309257645683,-175.66643752738682A284,284,0,0,1,223.18476979785441,-175.6261897618881Q0,0,-126.12935838354764,254.45507452938446Z"><title>W_Asian --&gt; M_MENA 4</title></path><path style="mix-blend-mode: multiply;" fill="#1f77b4" d="M-207.0928342695785,194.34134401663707A284,284,0,0,1,-207.12787970864912,194.3039923609378Q0,0,259.57671544155994,115.22121679869295A284,284,0,0,1,259.55593146178757,115.26802871136407Q0,0,-207.0928342695785,194.34134401663707Z"><title>W_Black --&gt; M_White 4</title></path><path style="mix-blend-mode: multiply;" fill="#d62728" d="M-253.6295124706647,127.7813382458211A284,284,0,0,1,-253.65255328004864,127.73559493935937Q0,0,-122.12448089326523,256.4012698224221A284,284,0,0,1,-122.17072001274909,256.37924091385884Q0,0,-253.6295124706647,127.7813382458211Z"><title>W_MENA --&gt; W_Asian 4</title></path><path style="mix-blend-mode: multiply;" fill="#9467bd" d="M-226.3650066288604,-171.5076784692627A284,284,0,0,1,-226.33407211538596,-171.54849984674087Q0,0,222.50352122085027,-176.4884785030531A284,284,0,0,1,222.53534670513304,-176.44834787219241Q0,0,-226.3650066288604,-171.5076784692627Z"><title>W_White --&gt; M_MENA 4</title></path><path style="mix-blend-mode: multiply;" fill="#2ca02c" d="M191.23294245590446,-209.96657286257908A284,284,0,0,1,191.4643408198701,-209.75558680143095Q0,0,-120.9408182428033,256.96170625749124A284,284,0,0,1,-121.22407739514261,256.8281975556743Q0,0,191.23294245590446,-209.96657286257908Z"><title>M_HLS --&gt; W_Asian 5</title></path><path style="mix-blend-mode: multiply;" fill="#8c564b" d="M258.5030289660832,117.61030573619105A284,284,0,0,1,258.37319163715983,117.89526641569402Q0,0,-244.18532174625923,145.01561517186988A284,284,0,0,1,-244.34507130291976,144.74628192106027Q0,0,258.5030289660832,117.61030573619105Z"><title>M_White --&gt; W_Indigenous 5</title></path><path style="mix-blend-mode: multiply;" fill="#17becf" d="M-127.06721290939552,253.9880379140686A284,284,0,0,1,-127.34718949336543,253.84777589756598Q0,0,189.67856816607448,-211.37180696220543A284,284,0,0,1,189.91151692265774,-211.16253394041067Q0,0,-127.06721290939552,253.9880379140686Z"><title>W_Asian --&gt; M_HLS 5</title></path><path style="mix-blend-mode: multiply;" fill="#17becf" d="M-128.23709770084437,253.39938195122753A284,284,0,0,1,-128.51642450625084,253.25783034711705Q0,0,-227.61107588700057,169.8505170247123A284,284,0,0,1,-227.79821912876477,169.59944387221105Q0,0,-128.23709770084437,253.39938195122753Z"><title>W_Asian --&gt; W_HLS 5</title></path><path style="mix-blend-mode: multiply;" fill="#ff7f0e" d="M-229.01306576730533,167.95539797178262A284,284,0,0,1,-229.19811854917393,167.70278010074495Q0,0,68.44277685932596,-275.62943655528613A284,284,0,0,1,68.7466514505519,-275.5538022135357Q0,0,-229.01306576730533,167.95539797178262Z"><title>W_HLS --&gt; M_Asian 5</title></path><path style="mix-blend-mode: multiply;" fill="#9467bd" d="M-225.7307555372934,-172.3415968492885A284,284,0,0,1,-225.54058998301704,-172.5903886956414Q0,0,-243.51400307396568,146.1401050598111A284,284,0,0,1,-243.67499293055977,145.87151133888906Q0,0,-225.7307555372934,-172.3415968492885Z"><title>W_White --&gt; W_Indigenous 5</title></path><path style="mix-blend-mode: multiply;" fill="#1f77b4" d="M72.75571366452577,-274.52250568790447A284,284,0,0,1,73.31144637213055,-274.3746195092145Q0,0,-226.66769774320983,171.10743642458345A284,284,0,0,1,-227.01370927025084,170.64810518538442Q0,0,72.75571366452577,-274.52250568790447Z"><title>M_Asian --&gt; W_HLS 6</title></path><path style="mix-blend-mode: multiply;" fill="#2ca02c" d="M192.1991452212515,-209.08249227570505A284,284,0,0,1,192.62212327566516,-208.69287871121634Q0,0,66.91649222648483,-276.00395480518534A284,284,0,0,1,67.47523669823183,-275.8678894552927Q0,0,192.1991452212515,-209.08249227570505Z"><title>M_HLS --&gt; M_Asian 6</title></path><path style="mix-blend-mode: multiply;" fill="#2ca02c" d="M193.35319175738047,-208.01572834099267A284,284,0,0,1,193.77400735073383,-207.6237801294393Q0,0,-225.71737869171372,172.35911625597728A284,284,0,0,1,-226.06592669918606,171.9017067560361Q0,0,193.35319175738047,-208.01572834099267Z"><title>M_HLS --&gt; W_HLS 6</title></path><path style="mix-blend-mode: multiply;" fill="#1f77b4" d="M-207.80837167985578,193.57603327831393A284,284,0,0,1,-208.19991863437795,193.1548443105645Q0,0,-228.4050019406818,-168.78138252922668A284,284,0,0,1,-228.06276749648674,-169.24353483026593Q0,0,-207.80837167985578,193.57603327831393Z"><title>W_Black --&gt; W_White 6</title></path><path style="mix-blend-mode: multiply;" fill="#ff7f0e" d="M-229.7851372665056,166.89754549247624A284,284,0,0,1,-230.27601664482725,166.2196022080165Q0,0,-119.27937555485997,257.73713462992225A284,284,0,0,1,-120.03845559139614,257.3844773470856Q0,0,-229.7851372665056,166.89754549247624Z"><title>W_HLS --&gt; W_Asian 7</title></path><path style="mix-blend-mode: multiply;" fill="#d62728" d="M-254.09918601273017,126.84480150036875A284,284,0,0,1,-254.5881040518448,125.86062639001545Q0,0,260.4197717515248,113.3028794024393A284,284,0,0,1,259.97940169803616,114.30971390363622Q0,0,-254.09918601273017,126.84480150036875Z"><title>W_MENA --&gt; M_White 8</title></path><path style="mix-blend-mode: multiply;" fill="#1f77b4" d="M74.2737110741515,-274.11569791471896A284,284,0,0,1,75.58634583696906,-273.7566516507208Q0,0,187.9175588309392,-212.9389374516096A284,284,0,0,1,188.93574661406657,-212.0360432836484Q0,0,74.2737110741515,-274.11569791471896Z"><title>M_Asian --&gt; M_HLS 9</title></path><path style="mix-blend-mode: multiply;" fill="#ff7f0e" d="M163.45395375929866,-232.24729277314094A284,284,0,0,1,164.56494275195502,-231.4613998424916Q0,0,-229.7980902040543,-166.87971038616206A284,284,0,0,1,-228.99581010238717,-167.97892414095116Q0,0,163.45395375929866,-232.24729277314094Z"><title>M_Black --&gt; W_White 9</title></path><path style="mix-blend-mode: multiply;" fill="#9467bd" d="M225.40261814724784,-172.77054069593572A284,284,0,0,1,226.22789961617505,-171.68848952464413Q0,0,261.3512621777034,111.137382361298A284,284,0,0,1,260.81572182377425,112.38843022991122Q0,0,225.40261814724784,-172.77054069593572Z"><title>M_MENA --&gt; M_White 9</title></path><path style="mix-blend-mode: multiply;" fill="#ff7f0e" d="M165.37607333011067,-230.8825553607588A284,284,0,0,1,166.69263496062518,-229.93382841566344Q0,0,262.36512991058964,108.72230041256218A284,284,0,0,1,261.7396082963044,110.21967813823966Q0,0,165.37607333011067,-230.8825553607588Z"><title>M_Black --&gt; M_White 10</title></path><path style="mix-blend-mode: multiply;" fill="#ff7f0e" d="M-230.85782460462653,165.4105946389756A284,284,0,0,1,-231.7992108955742,164.08877422965023Q0,0,185.94570213022234,-214.66298204231353A284,284,0,0,1,187.16924942704742,-213.59698515876977Q0,0,-230.85782460462653,165.4105946389756Z"><title>W_HLS --&gt; M_HLS 10</title></path><path style="mix-blend-mode: multiply;" fill="#9467bd" d="M226.82892153403535,-170.89365218084154A284,284,0,0,1,227.95802064256873,-169.3845944137843Q0,0,-231.47924291222097,-164.53984350541054A284,284,0,0,1,-230.3822172701351,-166.0723756851098Q0,0,226.82892153403535,-170.89365218084154Z"><title>M_MENA --&gt; W_White 11</title></path><path style="mix-blend-mode: multiply;" fill="#d62728" d="M-255.0281522020087,124.96656186528097A284,284,0,0,1,-255.85184645678805,123.27137812425137Q0,0,-233.13657138660017,-162.18304190667004A284,284,0,0,1,-232.05514958718868,-163.72662443862785Q0,0,-255.0281522020087,124.96656186528097Z"><title>W_MENA --&gt; W_White 11</title></path><path style="mix-blend-mode: multiply;" fill="#9467bd" d="M-224.93362254654363,-173.38069514247843A284,284,0,0,1,-223.61669707427833,-175.07590579400252Q0,0,158.7082991480435,-235.51576546281382A284,284,0,0,1,160.4839141825784,-234.30943917955761Q0,0,-224.93362254654363,-173.38069514247843Z"><title>W_White --&gt; M_Black 12</title></path><path style="mix-blend-mode: multiply;" fill="#8c564b" d="M257.9579344078931,118.80111142583277A284,284,0,0,1,256.9411337256072,120.98451884352663Q0,0,-250.49278713477904,133.82587041917674A284,284,0,0,1,-251.6187241575648,131.6966880878912Q0,0,257.9579344078931,118.80111142583277Z"><title>M_White --&gt; W_MENA 13</title></path><path style="mix-blend-mode: multiply;" fill="#8c564b" d="M256.5150458517466,121.88532008275789A284,284,0,0,1,255.24287679433232,124.52740198748744Q0,0,220.0407315699205,-179.54964898371202A284,284,0,0,1,221.8828949997328,-177.26810459453094Q0,0,256.5150458517466,121.88532008275789Z"><title>M_White --&gt; M_MENA 15</title></path><path style="mix-blend-mode: multiply;" fill="#8c564b" d="M254.804368231071,125.42222263364962A284,284,0,0,1,253.37756856784364,128.2801923394555Q0,0,-201.26789693828934,200.36774606217972A284,284,0,0,1,-203.50879503439234,198.0913181935283Q0,0,254.804368231071,125.42222263364962Z"><title>M_White --&gt; W_Black 16</title></path><path style="mix-blend-mode: multiply;" fill="#8c564b" d="M252.92590382849684,129.1684449567229A284,284,0,0,1,251.33523498471564,132.23690731099916Q0,0,154.9963500079597,-237.97506483707497A284,284,0,0,1,157.88095277073813,-236.07118577285954Q0,0,252.92590382849684,129.1684449567229Z"><title>M_White --&gt; M_Black 17</title></path><path style="mix-blend-mode: multiply;" fill="#ff7f0e" d="M-232.3735329049385,163.27443524715517A284,284,0,0,1,-234.6388547456206,160.0018995001733Q0,0,264.22992658778844,104.10833730019866A284,284,0,0,1,262.7449958337286,107.80105363276351Q0,0,-232.3735329049385,163.27443524715517Z"><title>W_HLS --&gt; M_White 19</title></path><path style="mix-blend-mode: multiply;" fill="#2ca02c" d="M194.50131752636048,-206.94259465008622A284,284,0,0,1,197.75864426195338,-203.83208437258884Q0,0,-236.2337903938556,-157.63754716485502A284,284,0,0,1,-233.70419839716922,-161.36402217203369Q0,0,194.50131752636048,-206.94259465008622Z"><title>M_HLS --&gt; W_White 21</title></path><path style="mix-blend-mode: multiply;" fill="#ff7f0e" d="M-235.19881939298568,159.17762203320444A284,284,0,0,1,-237.69355055063468,155.4277196211566Q0,0,-239.24239745486733,-153.0329221443781A284,284,0,0,1,-236.78544926713747,-156.80768799826066Q0,0,-235.19881939298568,159.17762203320444Z"><title>W_HLS --&gt; W_White 21</title></path><path style="mix-blend-mode: multiply;" fill="#9467bd" d="M-223.00102038604683,-175.8594464530749A284,284,0,0,1,-220.1841216295392,-179.37377897069652Q0,0,-197.3496945296774,204.22805406956954A284,284,0,0,1,-200.56361470623165,201.07271434973535Q0,0,-223.00102038604683,-175.8594464530749Z"><title>W_White --&gt; W_Black 21</title></path><path style="mix-blend-mode: multiply;" fill="#9467bd" d="M-219.5533858455118,-180.14524907355124A284,284,0,0,1,-216.16012210555422,-184.20315309818096Q0,0,181.149037200412,-218.72591598016854A284,284,0,0,1,185.1913555977027,-215.3141003554696Q0,0,-219.5533858455118,-180.14524907355124Z"><title>W_White --&gt; M_HLS 24</title></path><path style="mix-blend-mode: multiply;" fill="#9467bd" d="M-215.51246595459003,-184.96047420508975A284,284,0,0,1,-212.03022023771535,-188.94228141404963Q0,0,-221.84727858216507,177.31267576145603A284,284,0,0,1,-225.1112216475554,173.1500444364517Q0,0,-215.51246595459003,-184.96047420508975Z"><title>W_White --&gt; W_HLS 24</title></path><path style="mix-blend-mode: multiply;" fill="#8c564b" d="M250.86969963549163,133.11796950373838A284,284,0,0,1,247.83695177953703,138.68253434599268Q0,0,175.44092601630206,-223.33043115200942A284,284,0,0,1,180.38046431558334,-219.36017891425638Q0,0,250.86969963549163,133.11796950373838Z"><title>M_White --&gt; M_HLS 28</title></path><path style="mix-blend-mode: multiply;" fill="#8c564b" d="M247.3488217760096,139.55128220844065A284,284,0,0,1,242.82540244953515,147.28144460596954Q0,0,-215.49810973494706,184.97720048877568A284,284,0,0,1,-221.22376448643178,178.08999417836975Q0,0,247.3488217760096,139.55128220844065Z"><title>M_White --&gt; W_HLS 38</title></path><path style="mix-blend-mode: multiply;" fill="#2ca02c" d="M198.47262574087645,-203.13694108044942A284,284,0,0,1,205.32303848229046,-196.21021856264232Q0,0,267.97680234897706,94.04484782707272A284,284,0,0,1,264.59359172070043,103.18057578991936Q0,0,198.47262574087645,-203.13694108044942Z"><title>M_HLS --&gt; M_White 41</title></path><path style="mix-blend-mode: multiply;" fill="#9467bd" d="M-211.36596102304185,-189.68508249413276A284,284,0,0,1,-202.17743555529782,-199.4499550069726Q0,0,52.83601813131579,-279.0418520366206A284,284,0,0,1,65.94764736436673,-276.2370500260693Q0,0,-211.36596102304185,-189.68508249413276Z"><title>W_White --&gt; M_Asian 55</title></path><path style="mix-blend-mode: multiply;" fill="#1f77b4" d="M76.546428231488,-273.4897517732642A284,284,0,0,1,92.09976111901791,-268.6515103285664Q0,0,-248.10874474415078,-138.19569740582313A284,284,0,0,1,-239.77788126209737,-152.1925348282876Q0,0,76.546428231488,-273.4897517732642Z"><title>M_Asian --&gt; W_White 66</title></path><path style="mix-blend-mode: multiply;" fill="#1f77b4" d="M93.04182912153287,-268.32670018788565A284,284,0,0,1,108.51413217765538,-262.4512966585045Q0,0,-103.13557396717218,264.61113616486733A284,284,0,0,1,-118.37430233512798,258.15407133468125Q0,0,93.04182912153287,-268.32670018788565Z"><title>M_Asian --&gt; W_Asian 67</title></path><path style="mix-blend-mode: multiply;" fill="#17becf" d="M-129.40425553609006,252.805337461752A284,284,0,0,1,-145.71322004322306,243.76968126622157Q0,0,33.42345999500488,-282.02636813241827A284,284,0,0,1,51.856600678190155,-279.2255234861289Q0,0,-129.40425553609006,252.805337461752Z"><title>W_Asian --&gt; M_Asian 75</title></path><path style="mix-blend-mode: multiply;" fill="#9467bd" d="M-201.47636803724652,-200.1581203012258A284,284,0,0,1,-187.31890077180142,-213.4657570048274Q0,0,-83.84969112481123,271.3396935545438A284,284,0,0,1,-102.20648087024628,264.9713857534809Q0,0,-201.47636803724652,-200.1581203012258Z"><title>W_White --&gt; W_Asian 78</title></path><path style="mix-blend-mode: multiply;" fill="#17becf" d="M-146.5676535313155,243.25690727772619A284,284,0,0,1,-165.42245270673249,230.84932778868745Q0,0,-258.7123077395988,-117.14922886665151A284,284,0,0,1,-248.59211364165046,-137.3242914970864Q0,0,-146.5676535313155,243.25690727772619Z"><title>W_Asian --&gt; W_White 90</title></path><path style="mix-blend-mode: multiply;" fill="#17becf" d="M-166.23143038945022,230.26747827402238A284,284,0,0,1,-189.3221885614544,211.69106952892724Q0,0,276.5465619931394,64.63744309434531A284,284,0,0,1,268.3051340001935,93.1040013594378Q0,0,-166.23143038945022,230.26747827402238Z"><title>W_Asian --&gt; M_White 117</title></path><path style="mix-blend-mode: multiply;" fill="#8c564b" d="M242.3071317427341,148.1325551882816A284,284,0,0,1,224.75301368026985,173.6147541012469Q0,0,-52.85321800976819,279.03859472483714A284,284,0,0,1,-82.8971078217948,271.63223209844176Q0,0,242.3071317427341,148.1325551882816Z"><title>M_White --&gt; W_Asian 122</title></path><path style="mix-blend-mode: multiply;" fill="#8c564b" d="M224.14245683470054,174.40229082240978A284,284,0,0,1,203.10726180890916,198.50299796347466Q0,0,0.4982453584459319,-283.99956294255594A284,284,0,0,1,32.43369007560824,-282.1419071107293Q0,0,224.14245683470054,174.40229082240978Z"><title>M_White --&gt; M_Asian 126</title></path><path style="mix-blend-mode: multiply;" fill="#1f77b4" d="M109.43434404662497,-262.06893051845145A284,284,0,0,1,145.69819394384803,-243.77866248197532Q0,0,283.0231153403013,23.53542400447723A284,284,0,0,1,276.7716572266648,63.66670838048383Q0,0,109.43434404662497,-262.06893051845145Z"><title>M_Asian --&gt; M_White 159</title></path><path style="mix-blend-mode: multiply;" fill="#9467bd" d="M-186.56874656722198,-214.12170091874316A284,284,0,0,1,-10.460791043659745,-283.8072794181659Q0,0,234.3242763818956,-160.46224944858835A284,284,0,0,1,283.10395339096783,22.54221760175118Q0,0,-186.56874656722198,-214.12170091874316Z"><title>W_White --&gt; M_White 741</title></path><path style="mix-blend-mode: multiply;" fill="#8c564b" d="M202.40951121656997,199.21443162850738A284,284,0,0,1,-10.994636586943932,283.78709971794177Q0,0,-260.41796172317555,113.30703955159484A284,284,0,0,1,-259.1217642578821,-116.24074710652273Q0,0,202.40951121656997,199.21443162850738Z"><title>M_White --&gt; W_White 906</title></path></g></svg>