<svg viewBox="-375,-375,750,750" xmlns="http://www.w3.org/2000/svg" xmlns:xlink="http://www.w3.org/1999/xlink"><g font-size="12" font-family="sans-serif"><g><path fill="#e41a1c" d="M1.8369701987210297e-14,-300A300,300,0,0,1,0.698106966370118,-299.9991877433396L0.6632016180516122,-284.9992283561726A285,285,0,0,0,1.7451216887849784e-14,-285Z"/><text dy="0.35em" transform="&#xA;        rotate(-89.9333356351321)&#xA;        translate(305)&#xA;        &#xA;      ">AM</text><title>AM
  0 outgoing →
  1 incoming ←</title></g><g><path fill="#377eb8" d="M11.22180479313409,-299.7900450268234A300,300,0,0,1,13.314371422849094,-299.70440022397804L12.64865285170664,-284.7191802127791A285,285,0,0,0,10.660714553477385,-284.8005427754822Z"/><text dy="0.35em" transform="&#xA;        rotate(-87.65629994713126)&#xA;        translate(305)&#xA;        &#xA;      ">AR</text><title>AR
  1 outgoing →
  2 incoming ←</title></g><g><path fill="#4daf4a" d="M23.819962502217447,-299.0528538342227A300,300,0,0,1,43.24093335334978,-296.8673469459569L41.07888668568229,-282.0239795986591A285,285,0,0,0,22.628964377106573,-284.10021114251157Z"/><text dy="0.35em" transform="&#xA;        rotate(-83.57932640769693)&#xA;        translate(305)&#xA;        &#xA;      ">AT</text><title>AT
  19 outgoing →
  9 incoming ←</title></g><g><path fill="#984ea3" d="M53.62857900415503,-295.1677074376448A300,300,0,0,1,82.17497839074272,-288.52603509298945L78.06622947120559,-274.09973333833995A285,285,0,0,0,50.947150053947276,-280.4093220657626Z"/><text dy="0.35em" transform="&#xA;        rotate(-76.9024426384142)&#xA;        translate(305)&#xA;        &#xA;      ">AU</text><title>AU
  13 outgoing →
  29 incoming ←</title></g><g><path fill="#ff7f00" d="M92.2460421559472,-285.46570320541696A300,300,0,0,1,92.91007771796487,-285.25027161852404L88.26457383206663,-270.9877580375978A285,285,0,0,0,87.63374004814983,-271.1924180451461Z"/><text dy="0.35em" transform="&#xA;        rotate(-72.02549672056497)&#xA;        translate(305)&#xA;        &#xA;      ">BD</text><title>BD
  0 outgoing →
  1 incoming ←</title></g><g><path fill="#ffff33" d="M102.85961842661197,-281.81536313184165A300,300,0,0,1,117.14596779192709,-276.1825885715694L111.28866940233073,-262.37345914299095A285,285,0,0,0,97.71663750528138,-267.7245949752496Z"/><text dy="0.35em" transform="&#xA;        rotate(-68.4818381000739)&#xA;        translate(305)&#xA;        &#xA;      ">BE</text><title>BE
  10 outgoing →
  12 incoming ←</title></g><g><path fill="#a65628" d="M126.76249200989344,-271.90305371481526A300,300,0,0,1,127.39487351755072,-271.6073382687722L121.02512984167319,-258.0269713553336A285,285,0,0,0,120.42436740939877,-258.30790102907446Z"/><text dy="0.35em" transform="&#xA;        rotate(-64.93817947958283)&#xA;        translate(305)&#xA;        &#xA;      ">BN</text><title>BN
  0 outgoing →
  1 incoming ←</title></g><g><path fill="#f781bf" d="M136.84458726267667,-266.97108258556335A300,300,0,0,1,173.80673388790748,-244.52243098582616L165.1163971935121,-232.29630943653484A285,285,0,0,0,130.00235789954283,-253.62252845628518Z"/><text dy="0.35em" transform="&#xA;        rotate(-58.72794626437545)&#xA;        translate(305)&#xA;        &#xA;      ">CA</text><title>CA
  24 outgoing →
  38 incoming ←</title></g><g><path fill="#999999" d="M182.27772799560884,-238.27469415940678A300,300,0,0,1,202.09261274831064,-221.71733327045354L191.9879821108951,-210.63146660693087A285,285,0,0,0,173.16384159582842,-226.36095945143646Z"/><text dy="0.35em" transform="&#xA;        rotate(-50.11779591392343)&#xA;        translate(305)&#xA;        &#xA;      ">CH</text><title>CH
  15 outgoing →
  22 incoming ←</title></g><g><path fill="#e41a1c" d="M209.74618190256388,-214.49134988921253A300,300,0,0,1,219.4979985334506,-204.50092576760946L208.5230986067781,-194.275879479229A285,285,0,0,0,199.25887280743567,-203.7667823947519Z"/><text dy="0.35em" transform="&#xA;        rotate(-44.30754888792351)&#xA;        translate(305)&#xA;        &#xA;      ">CL</text><title>CL
  15 outgoing →
  5 incoming ←</title></g><g><path fill="#377eb8" d="M226.53689395504335,-196.6749492874002A300,300,0,0,1,247.8370213921325,-169.0467711240758L235.44517032252588,-160.59443256787202A285,285,0,0,0,215.2100492572912,-186.8412018230302Z"/><text dy="0.35em" transform="&#xA;        rotate(-37.63066511864079)&#xA;        translate(305)&#xA;        &#xA;      ">CN</text><title>CN
  24 outgoing →
  26 incoming ←</title></g><g><path fill="#4daf4a" d="M253.6147236544466,-160.24846940198424A300,300,0,0,1,255.8273447976449,-156.69195784655608L243.03597755776266,-148.85735995422826A285,285,0,0,0,240.93398747172427,-152.23604593188503Z"/><text dy="0.35em" transform="&#xA;        rotate(-31.887082457508775)&#xA;        translate(305)&#xA;        &#xA;      ">CO</text><title>CO
  2 outgoing →
  4 incoming ←</title></g><g><path fill="#984ea3" d="M261.1667156542096,-147.62095594594024A300,300,0,0,1,261.8509201240069,-146.4038784671053L248.75837411780657,-139.08368454375005A285,285,0,0,0,248.10837987149912,-140.23990814864322Z"/><text dy="0.35em" transform="&#xA;        rotate(-29.343389310036315)&#xA;        translate(305)&#xA;        &#xA;      ">CR</text><title>CR
  0 outgoing →
  2 incoming ←</title></g><g><path fill="#ff7f00" d="M266.8256722295832,-137.12789883619982A300,300,0,0,1,268.0904952650633,-134.6383539283405L254.68597050181012,-127.9064362319235A285,285,0,0,0,253.484388618104,-130.27150389438984Z"/><text dy="0.35em" transform="&#xA;        rotate(-26.933024892299656)&#xA;        translate(305)&#xA;        &#xA;      ">CY</text><title>CY
  0 outgoing →
  4 incoming ←</title></g><g><path fill="#ffff33" d="M272.64866612489004,-125.15072856487183A300,300,0,0,1,273.8017538037598,-122.60750227447454L260.11166611357186,-116.47712716075081A285,285,0,0,0,259.01623281864556,-118.89319213662823Z"/><text dy="0.35em" transform="&#xA;        rotate(-24.38933174482719)&#xA;        translate(305)&#xA;        &#xA;      ">CZ</text><title>CZ
  1 outgoing →
  3 incoming ←</title></g><g><path fill="#a65628" d="M277.93436078926896,-112.92692811132545A300,300,0,0,1,299.1765114510788,-22.21294658442455L284.2176858785249,-21.102299255203324A285,285,0,0,0,264.0376427498055,-107.28058170575918Z"/><text dy="0.35em" transform="&#xA;        rotate(-13.179271164526767)&#xA;        translate(305)&#xA;        &#xA;      ">DE</text><title>DE
  82 outgoing →
  52 incoming ←</title></g><g><path fill="#f781bf" d="M299.77160677410967,-11.704006667315149A300,300,0,0,1,299.9995189264962,-0.537255870939028L284.9995429801714,-0.5103930773920766A285,285,0,0,0,284.7830264354042,-11.118806333949392Z"/><text dy="0.35em" transform="&#xA;        rotate(-1.1692382058114674)&#xA;        translate(305)&#xA;        &#xA;      ">DK</text><title>DK
  5 outgoing →
  11 incoming ←</title></g><g><path fill="#999999" d="M299.8337131769105,9.987213953157239A300,300,0,0,1,299.80966089169095,10.684906925625114L284.8191778471064,10.15066157934386A285,285,0,0,0,284.842027518065,9.487853255499378Z"/><text dy="0.35em" transform="&#xA;        rotate(1.9744342254721374)&#xA;        translate(305)&#xA;        &#xA;      ">EE</text><title>EE
  0 outgoing →
  1 incoming ←</title></g><g><path fill="#e41a1c" d="M299.25029269485356,21.19580906793783A300,300,0,0,1,299.20015932814835,21.892114059876093L284.24015136174097,20.79750835688229A285,285,0,0,0,284.2877780601109,20.13601861454094Z"/><text dy="0.35em" transform="&#xA;        rotate(4.1181411837371655)&#xA;        translate(305)&#xA;        &#xA;      ">EG</text><title>EG
  0 outgoing →
  1 incoming ←</title></g><g><path fill="#377eb8" d="M298.2480116316243,32.37473641255632A300,300,0,0,1,295.6267715108244,51.0373585335958L280.8454329352832,48.48549060691601A285,285,0,0,0,283.3356110500431,30.755999591928504Z"/><text dy="0.35em" transform="&#xA;        rotate(7.995121628567759)&#xA;        translate(305)&#xA;        &#xA;      ">ES</text><title>ES
  11 outgoing →
  16 incoming ←</title></g><g><path fill="#4daf4a" d="M293.654392940361,61.37668536853451A300,300,0,0,1,293.5107728924776,62.059859781185715L278.83523424785375,58.95686679212643A285,285,0,0,0,278.9716732933429,58.30785110010778Z"/><text dy="0.35em" transform="&#xA;        rotate(11.872102073398366)&#xA;        translate(305)&#xA;        &#xA;      ">ET</text><title>ET
  0 outgoing →
  1 incoming ←</title></g><g><path fill="#984ea3" d="M291.1530216662,72.31817181484377A300,300,0,0,1,289.9364442175704,77.0510111190741L275.4396220066919,73.1984605631204A285,285,0,0,0,276.59537058289004,68.70226322410159Z"/><text dy="0.35em" transform="&#xA;        rotate(14.415795220870834)&#xA;        translate(305)&#xA;        &#xA;      ">FI</text><title>FI
  1 outgoing →
  6 incoming ←</title></g><g><path fill="#ff7f00" d="M287.05499564443545,87.17470662739937A300,300,0,0,1,284.06317017565044,96.47857456326498L269.8600116668679,91.65464583510173A285,285,0,0,0,272.70224586221366,82.8159712960294Z"/><text dy="0.35em" transform="&#xA;        rotate(17.82612511162607)&#xA;        translate(305)&#xA;        &#xA;      ">FR</text><title>FR
  8 outgoing →
  6 incoming ←</title></g><g><path fill="#ffff33" d="M280.50380763769715,106.3842746873513A300,300,0,0,1,241.97691400485587,177.33350808205032L229.87806830461307,168.4668326779478A285,285,0,0,0,266.47861725581225,101.06506095298373Z"/><text dy="0.35em" transform="&#xA;        rotate(28.502870772983343)&#xA;        translate(305)&#xA;        &#xA;      ">GB</text><title>GB
  51 outgoing →
  65 incoming ←</title></g><g><path fill="#a65628" d="M235.60702289899564,185.7130333624222A300,300,0,0,1,235.17422644663023,186.26079355363302L223.4155151242987,176.94775387595135A285,285,0,0,0,223.82667175404586,176.4273816943011Z"/><text dy="0.35em" transform="&#xA;        rotate(38.31297969105785)&#xA;        translate(305)&#xA;        &#xA;      ">GE</text><title>GE
  0 outgoing →
  1 incoming ←</title></g><g><path fill="#f781bf" d="M228.49534865197268,194.3961821755084A300,300,0,0,1,227.13269727416426,195.98657563456445L215.77606241045603,186.18724685283624A285,285,0,0,0,217.07058121937405,184.67637306673296Z"/><text dy="0.35em" transform="&#xA;        rotate(40.59001537905871)&#xA;        translate(305)&#xA;        &#xA;      ">GH</text><title>GH
  3 outgoing →
  0 incoming ←</title></g><g><path fill="#999999" d="M220.11758363487905,203.8338769065192A300,300,0,0,1,218.68925167450908,205.3655550525531L207.75478909078365,195.09727729992545A285,285,0,0,0,209.1117044531351,193.64218306119326Z"/><text dy="0.35em" transform="&#xA;        rotate(43.00037979679536)&#xA;        translate(305)&#xA;        &#xA;      ">GR</text><title>GR
  2 outgoing →
  1 incoming ←</title></g><g><path fill="#e41a1c" d="M211.3503155922951,212.9108829981156A300,300,0,0,1,210.35713219800274,213.89220867865197L199.8392755881026,203.19759824471936A285,285,0,0,0,200.78279981268034,202.2653388482098Z"/><text dy="0.35em" transform="&#xA;        rotate(45.34407984966418)&#xA;        translate(305)&#xA;        &#xA;      ">HK</text><title>HK
  0 outgoing →
  2 incoming ←</title></g><g><path fill="#377eb8" d="M202.72420518244854,221.13999329190662A300,300,0,0,1,201.1754827253707,222.54982621924032L191.11670858910216,211.42233490827832A285,285,0,0,0,192.5879949233261,210.08299362731128Z"/><text dy="0.35em" transform="&#xA;        rotate(47.687779902532924)&#xA;        translate(305)&#xA;        &#xA;      ">HU</text><title>HU
  0 outgoing →
  3 incoming ←</title></g><g><path fill="#4daf4a" d="M193.24449338919592,229.47018493641608A300,300,0,0,1,192.7099877265119,229.91924806428807L183.0744883401863,218.42328566107366A285,285,0,0,0,183.58226871973613,217.9966756895953Z"/><text dy="0.35em" transform="&#xA;        rotate(49.96481559053376)&#xA;        translate(305)&#xA;        &#xA;      ">ID</text><title>ID
  0 outgoing →
  1 incoming ←</title></g><g><path fill="#984ea3" d="M184.5256858437729,236.5380968552111A300,300,0,0,1,182.31600340918084,238.24540898179663L173.2002032387218,226.3331385327068A285,285,0,0,0,175.29940155158425,224.71119201245054Z"/><text dy="0.35em" transform="&#xA;        rotate(52.30851564340256)&#xA;        translate(305)&#xA;        &#xA;      ">IE</text><title>IE
  1 outgoing →
  3 incoming ←</title></g><g><path fill="#ff7f00" d="M173.84601308180655,244.49450655497424A300,300,0,0,1,155.17483090690018,256.75040769785534L147.41608936155515,243.91288731296257A285,285,0,0,0,165.15371242771621,232.26978122722554Z"/><text dy="0.35em" transform="&#xA;        rotate(56.71881100717653)&#xA;        translate(305)&#xA;        &#xA;      ">IL</text><title>IL
  14 outgoing →
  18 incoming ←</title></g><g><path fill="#ffff33" d="M146.0723812878332,262.0359887971533A300,300,0,0,1,143.0137409234693,263.7177845862406L135.86305387729584,250.53189535692857A285,285,0,0,0,138.76876222344154,248.93418935729568Z"/><text dy="0.35em" transform="&#xA;        rotate(61.19577073581834)&#xA;        translate(305)&#xA;        &#xA;      ">IN</text><title>IN
  2 outgoing →
  3 incoming ←</title></g><g><path fill="#a65628" d="M133.67435738288404,268.5724598283916A300,300,0,0,1,132.4229643627372,269.19167615174365L125.80181614460034,255.73209234415648A285,285,0,0,0,126.99063951373982,255.14383683697199Z"/><text dy="0.35em" transform="&#xA;        rotate(63.67279951842292)&#xA;        translate(305)&#xA;        &#xA;      ">IR</text><title>IR
  2 outgoing →
  0 incoming ←</title></g><g><path fill="#f781bf" d="M122.89807259745909,273.6714522047005A300,300,0,0,1,120.9845721861673,274.52273729680405L114.93534357685894,260.79660043196384A285,285,0,0,0,116.75316896758613,259.9878795944655Z"/><text dy="0.35em" transform="&#xA;        rotate(66.01649957129169)&#xA;        translate(305)&#xA;        &#xA;      ">IS</text><title>IS
  0 outgoing →
  3 incoming ←</title></g><g><path fill="#999999" d="M111.27970447824902,278.5979672776411A300,300,0,0,1,100.17433978469553,282.78101359302815L95.16562279546075,268.64196291337674A285,285,0,0,0,105.71571925433656,264.66806891375904Z"/><text dy="0.35em" transform="&#xA;        rotate(69.3601650971791)&#xA;        translate(305)&#xA;        &#xA;      ">IT</text><title>IT
  10 outgoing →
  7 incoming ←</title></g><g><path fill="#e41a1c" d="M90.19257637388151,286.12112674013A300,300,0,0,1,62.52553034642551,293.41192554989686L59.39925382910423,278.741329272402A285,285,0,0,0,85.68294755518744,271.8150704031235Z"/><text dy="0.35em" transform="&#xA;        rotate(75.23707648804702)&#xA;        translate(305)&#xA;        &#xA;      ">JP</text><title>JP
  21 outgoing →
  20 incoming ←</title></g><g><path fill="#377eb8" d="M52.19400226706623,295.4247554409506A300,300,0,0,1,48.753242516771934,296.0120290530451L46.31558039093334,281.2114276003929A285,285,0,0,0,49.58430215371292,280.6535176689031Z"/><text dy="0.35em" transform="&#xA;        rotate(80.3140155005)&#xA;        translate(305)&#xA;        &#xA;      ">KE</text><title>KE
  4 outgoing →
  1 incoming ←</title></g><g><path fill="#4daf4a" d="M38.33897844721656,297.54011953285203A300,300,0,0,1,8.42437724084684,299.8816931193098L8.003158378804498,284.8876084633443A285,285,0,0,0,36.42202952485573,282.6631135562094Z"/><text dy="0.35em" transform="&#xA;        rotate(85.5242832426888)&#xA;        translate(305)&#xA;        &#xA;      ">KR</text><title>KR
  18 outgoing →
  25 incoming ←</title></g><g><path fill="#984ea3" d="M-2.100813801595855,299.9926442121057A300,300,0,0,1,-6.289015827097743,299.93407322264426L-5.974565035742856,284.937369561512A285,285,0,0,0,-1.9957731115160624,284.9930120015004Z"/><text dy="0.35em" transform="&#xA;        rotate(90.80121534974555)&#xA;        translate(305)&#xA;        rotate(180)&#xA;      " text-anchor="end">LB</text><title>LB
  2 outgoing →
  4 incoming ←</title></g><g><path fill="#ff7f00" d="M-16.806988137435496,299.52883859446337A300,300,0,0,1,-17.503953194980507,299.48891736180815L-16.628755535231484,284.51447149371774A285,285,0,0,0,-15.96663873056372,284.55239666474023Z"/><text dy="0.35em" transform="&#xA;        rotate(93.27824413235012)&#xA;        translate(305)&#xA;        rotate(180)&#xA;      " text-anchor="end">LT</text><title>LT
  0 outgoing →
  1 incoming ←</title></g><g><path fill="#ffff33" d="M-27.999406290361083,298.6905308967582A300,300,0,0,1,-29.38921889365401,298.55698587174425L-27.91975794897131,283.62913657815704A285,285,0,0,0,-26.59943597584303,283.7560043519203Z"/><text dy="0.35em" transform="&#xA;        rotate(95.48861545548309)&#xA;        translate(305)&#xA;        rotate(180)&#xA;      " text-anchor="end">LV</text><title>LV
  0 outgoing →
  2 incoming ←</title></g><g><path fill="#a65628" d="M-39.844663837484575,297.34223171907126A300,300,0,0,1,-46.06277674303211,296.44260928335115L-43.75963790588051,281.6204788191836A285,285,0,0,0,-37.85243064561035,282.4751201331177Z"/><text dy="0.35em" transform="&#xA;        rotate(98.23230169755925)&#xA;        translate(305)&#xA;        rotate(180)&#xA;      " text-anchor="end">MX</text><title>MX
  3 outgoing →
  6 incoming ←</title></g><g><path fill="#f781bf" d="M-56.433785500470165,294.64423947209104A300,300,0,0,1,-57.11927669199737,294.5121189869494L-54.2633128573975,279.78651303760194A285,285,0,0,0,-53.61209622544666,279.9120274984865Z"/><text dy="0.35em" transform="&#xA;        rotate(100.9093235747676)&#xA;        translate(305)&#xA;        rotate(180)&#xA;      " text-anchor="end">NG</text><title>NG
  0 outgoing →
  1 incoming ←</title></g><g><path fill="#999999" d="M-67.41575744999106,292.3270696453614A300,300,0,0,1,-125.45189721749806,272.5102227156448L-119.17930235662315,258.88471157986254A285,285,0,0,0,-64.04496957749151,277.7107161630933Z"/><text dy="0.35em" transform="&#xA;        rotate(108.85283027654063)&#xA;        translate(305)&#xA;        rotate(180)&#xA;      " text-anchor="end">NL</text><title>NL
  36 outgoing →
  52 incoming ←</title></g><g><path fill="#e41a1c" d="M-134.93448054159416,267.9415719162858A300,300,0,0,1,-141.13245388398826,264.7293532283187L-134.07583118978886,251.49288556690274A285,285,0,0,0,-128.18775651451443,254.54449332047147Z"/><text dy="0.35em" transform="&#xA;        rotate(117.39631626212477)&#xA;        translate(305)&#xA;        rotate(180)&#xA;      " text-anchor="end">NO</text><title>NO
  5 outgoing →
  5 incoming ←</title></g><g><path fill="#377eb8" d="M-150.33242870698666,259.6154095562488A300,300,0,0,1,-157.52245785671872,255.3168135293449L-149.6463349638828,242.55097285287763A285,285,0,0,0,-142.8158072716373,246.63463907843632Z"/><text dy="0.35em" transform="&#xA;        rotate(120.87331051774797)&#xA;        translate(305)&#xA;        rotate(180)&#xA;      " text-anchor="end">NZ</text><title>NZ
  4 outgoing →
  8 incoming ←</title></g><g><path fill="#4daf4a" d="M-166.38214766652368,249.6336935148681A300,300,0,0,1,-166.96260058477642,249.24584250488195L-158.6144705555376,236.78355037963786A285,285,0,0,0,-158.0630402831975,237.1520088391247Z"/><text dy="0.35em" transform="&#xA;        rotate(123.75032548956003)&#xA;        translate(305)&#xA;        rotate(180)&#xA;      " text-anchor="end">PE</text><title>PE
  0 outgoing →
  1 incoming ←</title></g><g><path fill="#984ea3" d="M-175.6035070633988,243.23529412286132A300,300,0,0,1,-214.19655391720943,210.04722395211988L-203.48672622134896,199.54486275451387A285,285,0,0,0,-166.82333171022887,231.07352941671826Z"/><text dy="0.35em" transform="&#xA;        rotate(130.69386671831444)&#xA;        translate(305)&#xA;        rotate(180)&#xA;      " text-anchor="end">PH</text><title>PH
  45 outgoing →
  28 incoming ←</title></g><g><path fill="#ff7f00" d="M-221.4332794602296,202.40381109921785A300,300,0,0,1,-224.23759746742172,199.2924983084876L-213.02571759405066,189.32787339306324A285,285,0,0,0,-210.36161548721813,192.28362054425693Z"/><text dy="0.35em" transform="&#xA;        rotate(137.97072977140834)&#xA;        translate(305)&#xA;        rotate(180)&#xA;      " text-anchor="end">PL</text><title>PL
  1 outgoing →
  5 incoming ←</title></g><g><path fill="#ffff33" d="M-231.09086127046658,191.3034600765861A300,300,0,0,1,-233.30100910666644,188.60180049461655L-221.6359586513331,179.1717104698857A285,285,0,0,0,-219.53631820694324,181.7382870727568Z"/><text dy="0.35em" transform="&#xA;        rotate(140.71441601348454)&#xA;        translate(305)&#xA;        rotate(180)&#xA;      " text-anchor="end">PT</text><title>PT
  4 outgoing →
  1 incoming ←</title></g><g><path fill="#a65628" d="M-239.77365904236953,180.30139330973995A300,300,0,0,1,-244.30983200569358,174.10544501924628L-232.0943404054089,165.40017276828394A285,285,0,0,0,-227.78497609025106,171.28632364425295Z"/><text dy="0.35em" transform="&#xA;        rotate(143.79142407990025)&#xA;        translate(305)&#xA;        rotate(180)&#xA;      " text-anchor="end">QA</text><title>QA
  7 outgoing →
  4 incoming ←</title></g><g><path fill="#f781bf" d="M-250.26716620239802,165.42776526635816A300,300,0,0,1,-251.41592220470307,163.67661427937315L-238.8451260944679,155.49278356540452A285,285,0,0,0,-237.7538078922781,157.15637700304026Z"/><text dy="0.35em" transform="&#xA;        rotate(146.73510341658013)&#xA;        translate(305)&#xA;        rotate(180)&#xA;      " text-anchor="end">RU</text><title>RU
  1 outgoing →
  2 incoming ←</title></g><g><path fill="#999999" d="M-257.0030337198271,154.75606824549854A300,300,0,0,1,-262.2472077175168,145.69283456768073L-249.134847331641,138.4081928392967A285,285,0,0,0,-244.15288203383577,147.0182648332236Z"/><text dy="0.35em" transform="&#xA;        rotate(149.94544021273168)&#xA;        translate(305)&#xA;        rotate(180)&#xA;      " text-anchor="end">SE</text><title>SE
  10 outgoing →
  5 incoming ←</title></g><g><path fill="#e41a1c" d="M-267.1967721140047,136.40339061715667A300,300,0,0,1,-280.4890226653947,106.42325011110913L-266.464571532125,101.10208760555368A285,285,0,0,0,-253.8369335083045,129.58322108629883Z"/><text dy="0.35em" transform="&#xA;        rotate(156.08900906307122)&#xA;        translate(305)&#xA;        rotate(180)&#xA;      " text-anchor="end">SG</text><title>SG
  25 outgoing →
  22 incoming ←</title></g><g><path fill="#377eb8" d="M-284.0497615817936,96.51804466174305A300,300,0,0,1,-284.2735922419537,95.85679294580764L-270.059912629856,91.06395329851726A285,285,0,0,0,-269.8472735027039,91.6921424286559Z"/><text dy="0.35em" transform="&#xA;        rotate(161.2992768052599)&#xA;        translate(305)&#xA;        rotate(180)&#xA;      " text-anchor="end">SK</text><title>SK
  1 outgoing →
  0 incoming ←</title></g><g><path fill="#4daf4a" d="M-287.4613249022447,85.82532659679254A300,300,0,0,1,-289.009163992397,80.45932592568599L-274.5587057927772,76.43635962940168A285,285,0,0,0,-273.0882586571325,81.5340602669529Z"/><text dy="0.35em" transform="&#xA;        rotate(163.90963431760028)&#xA;        translate(305)&#xA;        rotate(180)&#xA;      " text-anchor="end">TH</text><title>TH
  5 outgoing →
  3 incoming ←</title></g><g><path fill="#984ea3" d="M-291.6538307063538,70.27121056527719A300,300,0,0,1,-291.8165637859016,69.59233506779908L-277.2257355966065,66.11271831440914A285,285,0,0,0,-277.07113917103607,66.75765003701333Z"/><text dy="0.35em" transform="&#xA;        rotate(166.51999182994064)&#xA;        translate(305)&#xA;        rotate(180)&#xA;      " text-anchor="end">TJ</text><title>TJ
  1 outgoing →
  0 incoming ←</title></g><g><path fill="#ff7f00" d="M-294.0782828241469,59.31242341365794A300,300,0,0,1,-294.3511399603302,57.943130775391246L-279.6335829623137,55.04597423662169A285,285,0,0,0,-279.3743686829396,56.34680224297504Z"/><text dy="0.35em" transform="&#xA;        rotate(168.73036315307354)&#xA;        translate(305)&#xA;        rotate(180)&#xA;      " text-anchor="end">TR</text><title>TR
  2 outgoing →
  0 incoming ←</title></g><g><path fill="#ffff33" d="M-296.2026387946979,47.581475082827275A300,300,0,0,1,-297.3234283177456,39.984734254242305L-282.45725690185833,37.98549754153019A285,285,0,0,0,-281.392506854963,45.20240132868591Z"/><text dy="0.35em" transform="&#xA;        rotate(171.60737812488554)&#xA;        translate(305)&#xA;        rotate(180)&#xA;      " text-anchor="end">TW</text><title>TW
  4 outgoing →
  7 incoming ←</title></g><g><path fill="#a65628" d="M-298.54310778717934,29.529862728644755A300,300,0,0,1,-298.67730752366174,28.140113191243756L-283.7434421474786,26.73310753168157A285,285,0,0,0,-283.6159523978204,28.053369592212515Z"/><text dy="0.35em" transform="&#xA;        rotate(174.4843930966976)&#xA;        translate(305)&#xA;        rotate(180)&#xA;      " text-anchor="end">UG</text><title>UG
  0 outgoing →
  2 incoming ←</title></g><g><path fill="#f781bf" d="M-299.4806381990984,17.64503737204116A300,300,0,0,1,-299.96786310094717,4.391025694687274L-284.96946994589985,4.171474409952911A285,285,0,0,0,-284.50660628914346,16.7627855034391Z"/><text dy="0.35em" transform="&#xA;        rotate(177.89472298745284)&#xA;        translate(305)&#xA;        rotate(180)&#xA;      " text-anchor="end">UK</text><title>UK
  5 outgoing →
  14 incoming ←</title></g><g><path fill="#999999" d="M-299.93726908541805,-6.134705663803801A300,300,0,0,1,-37.068827820316166,-297.7010278854068L-35.21538642930035,-282.8159764911365A285,285,0,0,0,-284.94040563114714,-5.8279703806136105Z"/><text dy="0.35em" transform="&#xA;        rotate(222.03697981249962)&#xA;        translate(305)&#xA;        rotate(180)&#xA;      " text-anchor="end">US</text><title>US
  339 outgoing →
  274 incoming ←</title></g><g><path fill="#e41a1c" d="M-26.60250467762259,-298.8181834240967A300,300,0,0,1,-25.90707579899589,-298.87927901335865L-24.611722009046098,-283.9353150626907A285,285,0,0,0,-25.27237944374146,-283.8772742528918Z"/><text dy="0.35em" transform="&#xA;        rotate(264.97927806992413)&#xA;        translate(305)&#xA;        rotate(180)&#xA;      " text-anchor="end">VE</text><title>VE
  0 outgoing →
  1 incoming ←</title></g><g><path fill="#377eb8" d="M-15.40628917368877,-299.60414926014744A300,300,0,0,1,-10.524156013570815,-299.8153467389587L-9.997948212892274,-284.8245794020107A285,285,0,0,0,-14.63597471500433,-284.62394179714005Z"/><text dy="0.35em" transform="&#xA;        rotate(267.5229712173965)&#xA;        translate(305)&#xA;        rotate(180)&#xA;      " text-anchor="end">ZA</text><title>ZA
  1 outgoing →
  6 incoming ←</title></g></g><g fill-opacity="0.75"><path style="mix-blend-mode: multiply;" fill="#377eb8" d="M12.27415115181673,-283.73463872693156Q0,0,-224.89791293703206,-173.42701276492986Q0,0,12.27415115181673,-283.73463872693156Z"><title>AR &gt; US 1</title></path><path style="mix-blend-mode: multiply;" fill="#4daf4a" d="M28.80203761303642,-282.5357369065677Q0,0,183.62096160672579,-216.65489253331285Q0,0,28.80203761303642,-282.5357369065677Z"><title>AT &gt; CH 1</title></path><path style="mix-blend-mode: multiply;" fill="#4daf4a" d="M29.459426851490086,-282.4679489244429Q0,0,200.67507378322398,-200.96147581588272Q0,0,29.459426851490086,-282.4679489244429Z"><title>AT &gt; CL 1</title></path><path style="mix-blend-mode: multiply;" fill="#4daf4a" d="M30.116656565839264,-282.3986313658324Q0,0,241.31617782786327,-149.74145157086957Q0,0,30.116656565839264,-282.3986313658324Z"><title>AT &gt; CO 1</title></path><path style="mix-blend-mode: multiply;" fill="#4daf4a" d="M30.773723197155945,-282.32778460609364Q0,0,281.0526099831292,40.809685390493605Q0,0,30.773723197155945,-282.32778460609364Z"><title>AT &gt; ES 1</title></path><path style="mix-blend-mode: multiply;" fill="#4daf4a" d="M31.43062318739494,-282.2554090288652Q0,0,-96.44775183652139,267.12137908763646Q0,0,31.43062318739494,-282.2554090288652Z"><title>AT &gt; NL 1</title></path><path style="mix-blend-mode: multiply;" fill="#984ea3" d="M69.81553800412124,-275.2849263094423Q0,0,225.1190878183367,-173.13981719939528Q0,0,69.81553800412124,-275.2849263094423Z"><title>AU &gt; CN 1</title></path><path style="mix-blend-mode: multiply;" fill="#984ea3" d="M70.45594339297982,-275.12171859125414Q0,0,270.66695568235883,85.9965063339435Q0,0,70.45594339297982,-275.12171859125414Z"><title>AU &gt; FR 1</title></path><path style="mix-blend-mode: multiply;" fill="#984ea3" d="M71.09596725977636,-274.95702107674356Q0,0,247.49888406187026,139.28496827773236Q0,0,71.09596725977636,-274.95702107674356Z"><title>AU &gt; GB 1</title></path><path style="mix-blend-mode: multiply;" fill="#984ea3" d="M71.73560613875344,-274.790834657755Q0,0,-95.82589305006707,267.3450920087315Q0,0,71.73560613875344,-274.790834657755Z"><title>AU &gt; NL 1</title></path><path style="mix-blend-mode: multiply;" fill="#984ea3" d="M72.37485656623791,-274.62316023419527Q0,0,-237.46477512946763,155.77702196637145Q0,0,72.37485656623791,-274.62316023419527Z"><title>AU &gt; RU 1</title></path><path style="mix-blend-mode: multiply;" fill="#ffff33" d="M105.09168596666106,-263.8403637442245Q0,0,253.64386518405723,-127.75284597413793Q0,0,105.09168596666106,-263.8403637442245Z"><title>BE &gt; CY 1</title></path><path style="mix-blend-mode: multiply;" fill="#ffff33" d="M105.7053640817196,-263.595098596979Q0,0,247.82233330869792,138.70865551014697Q0,0,105.7053640817196,-263.595098596979Z"><title>BE &gt; GB 1</title></path><path style="mix-blend-mode: multiply;" fill="#ffff33" d="M106.31846979753814,-263.34840607057026Q0,0,101.34365471564101,265.30258884691824Q0,0,106.31846979753814,-263.34840607057026Z"><title>BE &gt; IT 1</title></path><path style="mix-blend-mode: multiply;" fill="#f781bf" d="M151.63881692287828,-240.12844313456455Q0,0,104.4774387754565,-264.0842001841851Q0,0,151.63881692287828,-240.12844313456455Z"><title>CA &gt; BE 1</title></path><path style="mix-blend-mode: multiply;" fill="#f781bf" d="M152.19719082066769,-239.77492593325363Q0,0,283.9697753661414,-4.143269059958441Q0,0,152.19719082066769,-239.77492593325363Z"><title>CA &gt; DK 1</title></path><path style="mix-blend-mode: multiply;" fill="#f781bf" d="M152.75474056391081,-239.42011034007209Q0,0,281.1468141125028,40.1555589475453Q0,0,152.75474056391081,-239.42011034007209Z"><title>CA &gt; ES 1</title></path><path style="mix-blend-mode: multiply;" fill="#f781bf" d="M153.31146313345104,-239.06399827636216Q0,0,155.0148673696386,237.96300320506413Q0,0,153.31146313345104,-239.06399827636216Z"><title>CA &gt; IL 1</title></path><path style="mix-blend-mode: multiply;" fill="#f781bf" d="M153.86735551461095,-238.70659167048643Q0,0,101.96074561034614,265.06604149642084Q0,0,153.86735551461095,-238.70659167048643Z"><title>CA &gt; IT 1</title></path><path style="mix-blend-mode: multiply;" fill="#999999" d="M184.1246254148145,-216.22701569381718Q0,0,270.8663387127512,85.36642520539989Q0,0,184.1246254148145,-216.22701569381718Z"><title>CH &gt; FR 1</title></path><path style="mix-blend-mode: multiply;" fill="#999999" d="M184.62729217988093,-215.7979679754304Q0,0,-225.3008727068329,-172.90320054163107Q0,0,184.62729217988093,-215.7979679754304Z"><title>CH &gt; US 1</title></path><path style="mix-blend-mode: multiply;" fill="#e41a1c" d="M201.1421724718034,-200.49395615160896Q0,0,274.00498844465557,-74.68109739046537Q0,0,201.1421724718034,-200.49395615160896Z"><title>CL &gt; DE 1</title></path><path style="mix-blend-mode: multiply;" fill="#e41a1c" d="M201.60818196658758,-200.02535080366016Q0,0,281.2394958193943,39.501215060462286Q0,0,201.60818196658758,-200.02535080366016Z"><title>CL &gt; ES 1</title></path><path style="mix-blend-mode: multiply;" fill="#e41a1c" d="M202.07309974411447,-199.55566230955506Q0,0,274.7261001151842,71.9831224350668Q0,0,202.07309974411447,-199.55566230955506Z"><title>CL &gt; FI 1</title></path><path style="mix-blend-mode: multiply;" fill="#e41a1c" d="M202.53692328683357,-199.0848932126777Q0,0,248.14444058658674,138.13159162903293Q0,0,202.53692328683357,-199.0848932126777Z"><title>CL &gt; GB 1</title></path><path style="mix-blend-mode: multiply;" fill="#e41a1c" d="M202.9996500831199,-198.6130460622637Q0,0,-41.31903936558823,280.9781788429574Q0,0,202.9996500831199,-198.6130460622637Z"><title>CL &gt; MX 1</title></path><path style="mix-blend-mode: multiply;" fill="#e41a1c" d="M203.46127762728725,-198.14012341338625Q0,0,-211.61842975088916,189.40337956268888Q0,0,203.46127762728725,-198.14012341338625Z"><title>CL &gt; PL 1</title></path><path style="mix-blend-mode: multiply;" fill="#e41a1c" d="M203.921803419602,-197.66612782694256Q0,0,-259.08750905424336,116.3170780756952Q0,0,203.921803419602,-197.66612782694256Z"><title>CL &gt; SG 1</title></path><path style="mix-blend-mode: multiply;" fill="#377eb8" d="M225.5213786785516,-172.61549107460004Q0,0,69.17475456102447,-275.44664334753116Q0,0,225.5213786785516,-172.61549107460004Z"><title>CN &gt; AU 1</title></path><path style="mix-blend-mode: multiply;" fill="#377eb8" d="M225.92244833048719,-172.09023022925604Q0,0,283.9593650283557,-4.804062103370994Q0,0,225.92244833048719,-172.09023022925604Z"><title>CN &gt; DK 1</title></path><path style="mix-blend-mode: multiply;" fill="#377eb8" d="M226.32229460233344,-171.56403750767404Q0,0,222.83660885741372,176.0677305837955Q0,0,226.32229460233344,-171.56403750767404Z"><title>CN &gt; GE 1</title></path><path style="mix-blend-mode: multiply;" fill="#377eb8" d="M226.7209153289051,-171.036915759211Q0,0,199.3735437254154,202.25278752682215Q0,0,226.7209153289051,-171.036915759211Z"><title>CN &gt; HK 1</title></path><path style="mix-blend-mode: multiply;" fill="#377eb8" d="M227.11830835165318,-170.50886783825462Q0,0,20.185283094630403,283.28175787789377Q0,0,227.11830835165318,-170.50886783825462Z"><title>CN &gt; KR 1</title></path><path style="mix-blend-mode: multiply;" fill="#377eb8" d="M227.51447151867688,-169.9798966042078Q0,0,-258.8161350273523,116.91966579452465Q0,0,227.51447151867688,-169.9798966042078Z"><title>CN &gt; SG 1</title></path><path style="mix-blend-mode: multiply;" fill="#ffff33" d="M259.06377109035043,-116.36993816465886Q0,0,-225.702612462404,-172.3784520398239Q0,0,259.06377109035043,-116.36993816465886Z"><title>CZ &gt; US 1</title></path><path style="mix-blend-mode: multiply;" fill="#a65628" d="M274.17803121788086,-74.0432792188916Q0,0,28.14449241027012,-282.6019949451317Q0,0,274.17803121788086,-74.0432792188916Z"><title>DE &gt; AT 1</title></path><path style="mix-blend-mode: multiply;" fill="#a65628" d="M274.34958930489285,-73.40506009967311Q0,0,151.07962189416205,-240.4806600296935Q0,0,274.34958930489285,-73.40506009967311Z"><title>DE &gt; CA 1</title></path><path style="mix-blend-mode: multiply;" fill="#a65628" d="M274.51966177669686,-72.76644348879478Q0,0,224.7155779282653,-173.66320576439247Q0,0,274.51966177669686,-72.76644348879478Z"><title>DE &gt; CN 1</title></path><path style="mix-blend-mode: multiply;" fill="#a65628" d="M274.6882477123429,-72.12743284439394Q0,0,281.3306546019281,38.84665727254575Q0,0,274.6882477123429,-72.12743284439394Z"><title>DE &gt; ES 1</title></path><path style="mix-blend-mode: multiply;" fill="#a65628" d="M274.8553461989306,-71.48803162674157Q0,0,274.8928626856121,71.34363352471767Q0,0,274.8553461989306,-71.48803162674157Z"><title>DE &gt; FI 1</title></path><path style="mix-blend-mode: multiply;" fill="#a65628" d="M275.0209563316143,-70.84824329822366Q0,0,155.5681930976964,237.60163571894418Q0,0,275.0209563316143,-70.84824329822366Z"><title>DE &gt; IL 1</title></path><path style="mix-blend-mode: multiply;" fill="#a65628" d="M275.18507721360777,-70.20807132332246Q0,0,-180.62291380644405,219.1605872598216Q0,0,275.18507721360777,-70.20807132332246Z"><title>DE &gt; PH 1</title></path><path style="mix-blend-mode: multiply;" fill="#a65628" d="M275.3477079561891,-69.56751916859758Q0,0,-244.81695474663957,143.94672163193516Q0,0,275.3477079561891,-69.56751916859758Z"><title>DE &gt; SE 1</title></path><path style="mix-blend-mode: multiply;" fill="#a65628" d="M275.50884767870565,-68.92659030266742Q0,0,-258.54335949959795,117.52162038817228Q0,0,275.50884767870565,-68.92659030266742Z"><title>DE &gt; SG 1</title></path><path style="mix-blend-mode: multiply;" fill="#a65628" d="M275.66849550857864,-68.28528819619022Q0,0,-10.953507611193833,-283.7886901745937Q0,0,275.66849550857864,-68.28528819619022Z"><title>DE &gt; ZA 1</title></path><path style="mix-blend-mode: multiply;" fill="#f781bf" d="M283.9786479949844,-3.4824535805599557Q0,0,-95.20351536214693,267.56735724428245Q0,0,283.9786479949844,-3.4824535805599557Z"><title>DK &gt; NL 1</title></path><path style="mix-blend-mode: multiply;" fill="#377eb8" d="M280.95688394139296,41.46359084718345Q0,0,68.53359653356009,-275.60686882981565Q0,0,280.95688394139296,41.46359084718345Z"><title>ES &gt; AU 1</title></path><path style="mix-blend-mode: multiply;" fill="#377eb8" d="M280.859636505655,42.11727177668775Q0,0,240.9670726239676,-150.30259449202975Q0,0,280.859636505655,42.11727177668775Z"><title>ES &gt; CO 1</title></path><path style="mix-blend-mode: multiply;" fill="#377eb8" d="M280.76086820251425,42.77072463929525Q0,0,258.7922741210759,-116.97247050157532Q0,0,280.76086820251425,42.77072463929525Z"><title>ES &gt; CZ 1</title></path><path style="mix-blend-mode: multiply;" fill="#984ea3" d="M274.55784989072544,72.62222155361167Q0,0,248.46520415131144,137.5537797592168Q0,0,274.55784989072544,72.62222155361167Z"><title>FI &gt; GB 1</title></path><path style="mix-blend-mode: multiply;" fill="#ff7f00" d="M270.4661069783831,86.62612178758683Q0,0,183.1163034829767,-217.08159617694537Q0,0,270.4661069783831,86.62612178758683Z"><title>FR &gt; CH 1</title></path><path style="mix-blend-mode: multiply;" fill="#ff7f00" d="M270.2637936884286,87.25526815693424Q0,0,273.83046192225123,-75.31851116058074Q0,0,270.2637936884286,87.25526815693424Z"><title>FR &gt; DE 1</title></path><path style="mix-blend-mode: multiply;" fill="#ff7f00" d="M270.0600169080308,87.88394203513019Q0,0,248.78462226592313,136.97522302957552Q0,0,270.0600169080308,87.88394203513019Z"><title>FR &gt; GB 1</title></path><path style="mix-blend-mode: multiply;" fill="#ffff33" d="M247.1740945975957,139.86052681102987Q0,0,182.61065377631334,-217.50712431409556Q0,0,247.1740945975957,139.86052681102987Z"><title>GB &gt; CH 1</title></path><path style="mix-blend-mode: multiply;" fill="#ffff33" d="M246.8479666746237,140.4353279933645Q0,0,283.9474170379998,-5.464829132573942Q0,0,246.8479666746237,140.4353279933645Z"><title>GB &gt; DK 1</title></path><path style="mix-blend-mode: multiply;" fill="#ffff33" d="M246.5205020589514,141.00936871216228Q0,0,173.3786826100249,224.9351738088382Q0,0,246.5205020589514,141.00936871216228Z"><title>GB &gt; IE 1</title></path><path style="mix-blend-mode: multiply;" fill="#ffff33" d="M246.19170252381426,141.5826458589673Q0,0,102.57728438308644,264.828058801539Q0,0,246.19170252381426,141.5826458589673Z"><title>GB &gt; IT 1</title></path><path style="mix-blend-mode: multiply;" fill="#ffff33" d="M245.8615698496763,142.15515632945835Q0,0,-4.301685320260264,283.96741979214Q0,0,245.8615698496763,142.15515632945835Z"><title>GB &gt; LB 1</title></path><path style="mix-blend-mode: multiply;" fill="#ffff33" d="M245.5301058242207,142.72689702346574Q0,0,-130.38706196324057,252.29984952947171Q0,0,245.5301058242207,142.72689702346574Z"><title>GB &gt; NO 1</title></path><path style="mix-blend-mode: multiply;" fill="#ffff33" d="M245.1973122423398,143.29786484498828Q0,0,-180.1124329901619,219.58030759238054Q0,0,245.1973122423398,143.29786484498828Z"><title>GB &gt; PH 1</title></path><path style="mix-blend-mode: multiply;" fill="#ffff33" d="M244.86319090612562,143.86805670220988Q0,0,-11.613860826288748,-283.76243274384933Q0,0,244.86319090612562,143.86805670220988Z"><title>GB &gt; ZA 1</title></path><path style="mix-blend-mode: multiply;" fill="#999999" d="M207.70316735783808,193.68891106493913Q0,0,273.65445259573676,-75.9555170776138Q0,0,207.70316735783808,193.68891106493913Z"><title>GR &gt; DE 1</title></path><path style="mix-blend-mode: multiply;" fill="#999999" d="M207.25188640315756,194.1717167414778Q0,0,249.10269320075847,136.3959245730194Q0,0,207.25188640315756,194.1717167414778Z"><title>GR &gt; GB 1</title></path><path style="mix-blend-mode: multiply;" fill="#984ea3" d="M172.85478381066704,225.3380210123617Q0,0,273.4769614182104,-76.59211169214927Q0,0,172.85478381066704,225.3380210123617Z"><title>IE &gt; DE 1</title></path><path style="mix-blend-mode: multiply;" fill="#ff7f00" d="M154.46070222919093,238.32308211095545Q0,0,67.89206739362744,-275.7656018886677Q0,0,154.46070222919093,238.32308211095545Z"><title>IL &gt; AU 1</title></path><path style="mix-blend-mode: multiply;" fill="#ff7f00" d="M153.90570067718218,238.68187048677493Q0,0,103.86262583428201,-264.32660659647553Q0,0,153.90570067718218,238.68187048677493Z"><title>IL &gt; BE 1</title></path><path style="mix-blend-mode: multiply;" fill="#ff7f00" d="M153.3498657189704,239.03936638966758Q0,0,273.2979893507948,-77.22829155699903Q0,0,153.3498657189704,239.03936638966758Z"><title>IL &gt; DE 1</title></path><path style="mix-blend-mode: multiply;" fill="#ff7f00" d="M152.79320036442658,239.39556788377723Q0,0,249.41941523344929,135.81588752647536Q0,0,152.79320036442658,239.39556788377723Z"><title>IL &gt; GB 1</title></path><path style="mix-blend-mode: multiply;" fill="#999999" d="M100.72601504054563,265.5376995721168Q0,0,253.34589459850048,-128.3427352446779Q0,0,100.72601504054563,265.5376995721168Z"><title>IT &gt; CY 1</title></path><path style="mix-blend-mode: multiply;" fill="#999999" d="M100.10782992960631,265.7713723988816Q0,0,283.83138917915,9.784810505773809Q0,0,100.10782992960631,265.7713723988816Z"><title>IT &gt; EE 1</title></path><path style="mix-blend-mode: multiply;" fill="#999999" d="M99.48910273032286,266.0036060618639Q0,0,281.42028996647537,38.19188912825518Q0,0,99.48910273032286,266.0036060618639Z"><title>IT &gt; ES 1</title></path><path style="mix-blend-mode: multiply;" fill="#999999" d="M98.8698367931305,266.234399303508Q0,0,173.9016425561179,224.53110857136076Q0,0,98.8698367931305,266.234399303508Z"><title>IT &gt; IE 1</title></path><path style="mix-blend-mode: multiply;" fill="#999999" d="M98.25003547138182,266.4637508740583Q0,0,-16.240523223574925,283.53526307220505Q0,0,98.25003547138182,266.4637508740583Z"><title>IT &gt; LT 1</title></path><path style="mix-blend-mode: multiply;" fill="#999999" d="M97.62970212132846,266.6916595315659Q0,0,-40.66508474654424,281.0735684523829Q0,0,97.62970212132846,266.6916595315659Z"><title>IT &gt; MX 1</title></path><path style="mix-blend-mode: multiply;" fill="#999999" d="M97.00884010210311,266.9181240418953Q0,0,-226.1031300283068,-171.8527701010449Q0,0,97.00884010210311,266.9181240418953Z"><title>IT &gt; US 1</title></path><path style="mix-blend-mode: multiply;" fill="#e41a1c" d="M72.3688988902358,274.6247302655295Q0,0,247.72411214617907,-138.88399569924283Q0,0,72.3688988902358,274.6247302655295Z"><title>JP &gt; CR 1</title></path><path style="mix-blend-mode: multiply;" fill="#e41a1c" d="M71.7296448253824,274.79239082118795Q0,0,249.73478664893167,135.23511503086976Q0,0,71.7296448253824,274.79239082118795Z"><title>JP &gt; GB 1</title></path><path style="mix-blend-mode: multiply;" fill="#4daf4a" d="M19.526025213794473,283.32796250873344Q0,0,73.00776107428835,274.4555826047625Q0,0,19.526025213794473,283.32796250873344Z"><title>KR &gt; JP 1</title></path><path style="mix-blend-mode: multiply;" fill="#4daf4a" d="M18.866661598664994,283.3726329060756Q0,0,-258.2691839480718,118.1229385970272Q0,0,18.866661598664994,283.3726329060756Z"><title>KR &gt; SG 1</title></path><path style="mix-blend-mode: multiply;" fill="#984ea3" d="M-4.962472453281936,283.95664082241575Q0,0,253.04655213367522,-128.93192953360779Q0,0,-4.962472453281936,283.95664082241575Z"><title>LB &gt; CY 1</title></path><path style="mix-blend-mode: multiply;" fill="#984ea3" d="M-5.623232714294927,283.94432421487295Q0,0,250.04880573945542,134.65361023111146Q0,0,-5.623232714294927,283.94432421487295Z"><title>LB &gt; GB 1</title></path><path style="mix-blend-mode: multiply;" fill="#a65628" d="M-41.972770240199374,280.8812677242173Q0,0,281.50840142765657,37.53691417318915Q0,0,-41.972770240199374,280.8812677242173Z"><title>MX &gt; ES 1</title></path><path style="mix-blend-mode: multiply;" fill="#a65628" d="M-42.62627383039597,280.78283562094055Q0,0,250.36147080459324,134.07137627607474Q0,0,-42.62627383039597,280.78283562094055Z"><title>MX &gt; GB 1</title></path><path style="mix-blend-mode: multiply;" fill="#a65628" d="M-43.27954659742702,280.6828830661413Q0,0,-226.50242323572087,-171.32615757188506Q0,0,-43.27954659742702,280.6828830661413Z"><title>MX &gt; US 1</title></path><path style="mix-blend-mode: multiply;" fill="#999999" d="M-97.06908835411696,266.8962196924127Q0,0,182.10401522485137,-217.93147464050966Q0,0,-97.06908835411696,266.8962196924127Z"><title>NL &gt; CH 1</title></path><path style="mix-blend-mode: multiply;" fill="#999999" d="M-97.68989923828896,266.6696150423084Q0,0,224.31085119336146,-174.1856539354193Q0,0,-97.68989923828896,266.6696150423084Z"><title>NL &gt; CN 1</title></path><path style="mix-blend-mode: multiply;" fill="#999999" d="M-98.31018112731887,266.4415663643977Q0,0,156.1206764170809,237.2389816094166Q0,0,-98.31018112731887,266.4415663643977Z"><title>NL &gt; IL 1</title></path><path style="mix-blend-mode: multiply;" fill="#999999" d="M-98.92993066235272,266.2120748935744Q0,0,-257.9936098574467,118.72361716492463Q0,0,-98.92993066235272,266.2120748935744Z"><title>NL &gt; SG 1</title></path><path style="mix-blend-mode: multiply;" fill="#e41a1c" d="M-130.97381654594452,251.9957527010907Q0,0,283.9339314597725,-6.125566569484484Q0,0,-130.97381654594452,251.9957527010907Z"><title>NO &gt; DK 1</title></path><path style="mix-blend-mode: multiply;" fill="#e41a1c" d="M-131.55986189961607,251.69029130451963Q0,0,275.05813669898254,70.70375828542515Q0,0,-131.55986189961607,251.69029130451963Z"><title>NO &gt; FI 1</title></path><path style="mix-blend-mode: multiply;" fill="#e41a1c" d="M-132.145194850794,251.38346699384527Q0,0,250.67278015124987,133.48841631858235Q0,0,-132.145194850794,251.38346699384527Z"><title>NO &gt; GB 1</title></path><path style="mix-blend-mode: multiply;" fill="#984ea3" d="M-181.1324165416276,218.73968016295152Q0,0,11.613860826294006,-283.7624327438491Q0,0,-181.1324165416276,218.73968016295152Z"><title>PH &gt; AR 1</title></path><path style="mix-blend-mode: multiply;" fill="#984ea3" d="M-181.64093843673297,218.31758858100048Q0,0,181.596390572061,-218.3546448583118Q0,0,-181.64093843673297,218.31758858100048Z"><title>PH &gt; CH 1</title></path><path style="mix-blend-mode: multiply;" fill="#984ea3" d="M-182.14847673809115,217.89431479961354Q0,0,156.67231433607037,236.8750428402696Q0,0,-182.14847673809115,217.89431479961354Z"><title>PH &gt; IL 1</title></path><path style="mix-blend-mode: multiply;" fill="#984ea3" d="M-182.65502869736005,217.4698611108366Q0,0,-94.58062214296382,267.78817359071314Q0,0,-182.65502869736005,217.4698611108366Z"><title>PH &gt; NL 1</title></path><path style="mix-blend-mode: multiply;" fill="#984ea3" d="M-183.160591571538,217.04422981310572Q0,0,-257.71663871996856,119.32365283916343Q0,0,-183.160591571538,217.04422981310572Z"><title>PH &gt; SG 1</title></path><path style="mix-blend-mode: multiply;" fill="#984ea3" d="M-183.66516262297992,216.61742321123282Q0,0,-12.274151151811095,-283.7346387269318Q0,0,-183.66516262297992,216.61742321123282Z"><title>PH &gt; ZA 1</title></path><path style="mix-blend-mode: multiply;" fill="#ff7f00" d="M-212.05860285171485,188.91042574876244Q0,0,283.918908366699,-6.786270836180059Q0,0,-212.05860285171485,188.91042574876244Z"><title>PL &gt; DK 1</title></path><path style="mix-blend-mode: multiply;" fill="#ffff33" d="M-219.3968199008476,180.33589608670553Q0,0,281.5949885083443,36.88173595406613Q0,0,-219.3968199008476,180.33589608670553Z"><title>PT &gt; ES 1</title></path><path style="mix-blend-mode: multiply;" fill="#ffff33" d="M-219.8158716969025,179.8248663286891Q0,0,157.22310386752105,236.50982138224765Q0,0,-219.8158716969025,179.8248663286891Z"><title>PT &gt; IL 1</title></path><path style="mix-blend-mode: multiply;" fill="#f781bf" d="M-237.82662893576725,155.22401415067475Q0,0,-226.90048992245573,-170.7986173039746Q0,0,-237.82662893576725,155.22401415067475Z"><title>RU &gt; US 1</title></path><path style="mix-blend-mode: multiply;" fill="#999999" d="M-245.15125926315724,143.37663715434343Q0,0,10.953507611199344,-283.78869017459346Q0,0,-245.15125926315724,143.37663715434343Z"><title>SE &gt; AR 1</title></path><path style="mix-blend-mode: multiply;" fill="#999999" d="M-245.48423627472062,142.80577628589518Q0,0,250.9827320936714,132.9047335153883Q0,0,-245.48423627472062,142.80577628589518Z"><title>SE &gt; GB 1</title></path><path style="mix-blend-mode: multiply;" fill="#999999" d="M-245.81588397824436,142.2341421178274Q0,0,-272.5981118397909,79.6634760814569Q0,0,-245.81588397824436,142.2341421178274Z"><title>SE &gt; TH 1</title></path><path style="mix-blend-mode: multiply;" fill="#999999" d="M-246.14620057784143,141.6617377455644Q0,0,-283.893119131133,7.7908221643366575Q0,0,-246.14620057784143,141.6617377455644Z"><title>SE &gt; UK 1</title></path><path style="mix-blend-mode: multiply;" fill="#e41a1c" d="M-259.3574801107686,115.71386049472315Q0,0,67.25017061513527,-275.9228416645407Q0,0,-259.3574801107686,115.71386049472315Z"><title>SG &gt; AU 1</title></path><path style="mix-blend-mode: multiply;" fill="#e41a1c" d="M-259.6260467350229,115.1100163180585Q0,0,223.90490980523833,-174.70715888339575Q0,0,-259.6260467350229,115.1100163180585Z"><title>SG &gt; CN 1</title></path><path style="mix-blend-mode: multiply;" fill="#377eb8" d="M-269.0065695619502,91.05748476930192Q0,0,-227.29732793296267,-170.27015215396744Q0,0,-269.0065695619502,91.05748476930192Z"><title>SK &gt; US 1</title></path><path style="mix-blend-mode: multiply;" fill="#984ea3" d="M-276.1761736646779,66.20212307726744Q0,0,-227.6929351183462,-169.74076498352593Q0,0,-276.1761736646779,66.20212307726744Z"><title>TJ &gt; US 1</title></path><path style="mix-blend-mode: multiply;" fill="#ff7f00" d="M-278.45924946777905,55.82514116275206Q0,0,273.1175373626317,-77.86405322722081Q0,0,-278.45924946777905,55.82514116275206Z"><title>TR &gt; DE 1</title></path><path style="mix-blend-mode: multiply;" fill="#ff7f00" d="M-278.5884019329933,55.17700887526421Q0,0,-228.08730933637585,-169.2104586593051Q0,0,-278.5884019329933,55.17700887526421Z"><title>TR &gt; US 1</title></path><path style="mix-blend-mode: multiply;" fill="#ffff33" d="M-281.1485561126231,40.14336054426949Q0,0,199.8436508502536,201.7882930569609Q0,0,-281.1485561126231,40.14336054426949Z"><title>TW &gt; HK 1</title></path><path style="mix-blend-mode: multiply;" fill="#ffff33" d="M-281.24120942883036,39.48901263653926Q0,0,20.8444316712621,283.2340192637567Q0,0,-281.24120942883036,39.48901263653926Z"><title>TW &gt; KR 1</title></path><path style="mix-blend-mode: multiply;" fill="#f781bf" d="M-283.91047990829907,7.130175189946142Q0,0,-228.48044845149772,-168.67923605293714Q0,0,-283.91047990829907,7.130175189946142Z"><title>UK &gt; US 1</title></path><path style="mix-blend-mode: multiply;" fill="#999999" d="M-224.49373533504658,-173.94988587325386Q0,0,0.33043752108197316,-283.99980776585863Q0,0,-224.49373533504658,-173.94988587325386Z"><title>US &gt; AM 1</title></path><path style="mix-blend-mode: multiply;" fill="#999999" d="M-224.08834208951615,-174.47181703522202Q0,0,87.6406227292381,-270.13907760194815Q0,0,-224.08834208951615,-174.47181703522202Z"><title>US &gt; BD 1</title></path><path style="mix-blend-mode: multiply;" fill="#999999" d="M-223.6817353956631,-174.99280342455387Q0,0,120.30123444591695,-257.26175967443845Q0,0,-223.6817353956631,-174.99280342455387Z"><title>US &gt; BN 1</title></path><path style="mix-blend-mode: multiply;" fill="#999999" d="M-223.27391745528078,-175.51284222008505Q0,0,247.40025514459572,-139.4600794291647Q0,0,-223.27391745528078,-175.51284222008505Z"><title>US &gt; CR 1</title></path><path style="mix-blend-mode: multiply;" fill="#999999" d="M-222.86489047672146,-176.03193060578226Q0,0,252.74583941053413,-129.52042565041427Q0,0,-222.86489047672146,-176.03193060578226Z"><title>US &gt; CY 1</title></path><path style="mix-blend-mode: multiply;" fill="#999999" d="M-222.45465667488438,-176.550065770759Q0,0,283.2667390286987,20.39496408545778Q0,0,-222.45465667488438,-176.550065770759Z"><title>US &gt; EG 1</title></path><path style="mix-blend-mode: multiply;" fill="#999999" d="M-222.04321827120376,-177.06724490929022Q0,0,277.92503328299006,58.42667091875812Q0,0,-222.04321827120376,-177.06724490929022Z"><title>US &gt; ET 1</title></path><path style="mix-blend-mode: multiply;" fill="#999999" d="M-221.63057749363688,-177.58346522082797Q0,0,208.15332359064476,193.20505655434675Q0,0,-221.63057749363688,-177.58346522082797Z"><title>US &gt; GR 1</title></path><path style="mix-blend-mode: multiply;" fill="#999999" d="M-221.21673657665184,-178.09872391001636Q0,0,182.6852447175659,217.44447880432162Q0,0,-221.21673657665184,-178.09872391001636Z"><title>US &gt; ID 1</title></path><path style="mix-blend-mode: multiply;" fill="#999999" d="M-220.8016977612156,-178.61301818670668Q0,0,174.4236608170948,224.12582748796058Q0,0,-220.8016977612156,-178.61301818670668Z"><title>US &gt; IE 1</title></path><path style="mix-blend-mode: multiply;" fill="#999999" d="M-220.3854632947817,-179.1263452659726Q0,0,114.83435952099722,259.7480892584243Q0,0,-220.3854632947817,-179.1263452659726Z"><title>US &gt; IS 1</title></path><path style="mix-blend-mode: multiply;" fill="#999999" d="M-219.96803543127837,-179.6387023681252Q0,0,49.08489062174477,279.72606870410084Q0,0,-219.96803543127837,-179.6387023681252Z"><title>US &gt; KE 1</title></path><path style="mix-blend-mode: multiply;" fill="#999999" d="M-219.54941643109598,-180.15008671872798Q0,0,-53.74848581908494,278.86753176401805Q0,0,-219.54941643109598,-180.15008671872798Z"><title>US &gt; NG 1</title></path><path style="mix-blend-mode: multiply;" fill="#999999" d="M-219.12960856107497,-180.660495548612Q0,0,-157.7832876394235,236.13647355225527Q0,0,-219.12960856107497,-180.660495548612Z"><title>US &gt; PE 1</title></path><path style="mix-blend-mode: multiply;" fill="#999999" d="M-218.70861409449367,-181.1699260938908Q0,0,-218.97658006127108,180.8459493178372Q0,0,-218.70861409449367,-181.1699260938908Z"><title>US &gt; PT 1</title></path><path style="mix-blend-mode: multiply;" fill="#999999" d="M-218.28643531105573,-181.67837559597535Q0,0,-237.10163544086654,156.32918624257726Q0,0,-218.28643531105573,-181.67837559597535Z"><title>US &gt; RU 1</title></path><path style="mix-blend-mode: multiply;" fill="#999999" d="M-217.86307449687803,-182.185841301589Q0,0,-24.85455158250087,-282.91032371695593Q0,0,-217.86307449687803,-182.185841301589Z"><title>US &gt; VE 1</title></path><path style="mix-blend-mode: multiply;" fill="#999999" d="M-217.4385339444782,-182.69232046278245Q0,0,-12.934375012260451,-283.7053082743469Q0,0,-217.4385339444782,-182.69232046278245Z"><title>US &gt; ZA 1</title></path><path style="mix-blend-mode: multiply;" fill="#377eb8" d="M-10.293095082369343,-283.81341087697973Q0,0,-228.87235033484606,-168.14710004101613Q0,0,-10.293095082369343,-283.81341087697973Z"><title>ZA &gt; US 1</title></path><path style="mix-blend-mode: multiply;" fill="#4daf4a" d="M32.25408088662656,-282.1624962076976A284,284,0,0,1,32.57721436323823,-282.125371252448Q0,0,272.7989082749868,-78.97313241840767A284,284,0,0,1,272.88917559252604,-78.66064991106735Q0,0,32.25408088662656,-282.1624962076976Z"><title>AT &gt; DE 2</title></path><path style="mix-blend-mode: multiply;" fill="#4daf4a" d="M33.56692537870123,-282.00932878296896A284,284,0,0,1,33.88988257495529,-281.97070035564997Q0,0,-146.15960577507192,243.50229904392188A284,284,0,0,1,-146.4383878576707,243.33474589882638Q0,0,33.56692537870123,-282.00932878296896Z"><title>AT &gt; NZ 2</title></path><path style="mix-blend-mode: multiply;" fill="#984ea3" d="M73.17586986661495,-274.4108089512223A284,284,0,0,1,73.49009866496097,-274.32682223620475Q0,0,150.10126189856294,-241.09253654242184A284,284,0,0,1,150.3772815470061,-240.9204706838596Q0,0,73.17586986661495,-274.4108089512223Z"><title>AU &gt; CA 2</title></path><path style="mix-blend-mode: multiply;" fill="#ffff33" d="M107.08644005481491,-263.0370589030879A284,284,0,0,1,107.38762050256867,-262.91424260164433Q0,0,180.7076803459503,-219.0906987162756A284,284,0,0,1,180.9584816907376,-218.88359441534897Q0,0,107.08644005481491,-263.0370589030879Z"><title>BE &gt; CH 2</title></path><path style="mix-blend-mode: multiply;" fill="#ffff33" d="M108.30946367444163,-262.5358262762528A284,284,0,0,1,108.61006926916558,-262.41160960092265Q0,0,-229.55367067023184,-167.21576564972196A284,284,0,0,1,-229.3620115066782,-167.47855885936693Q0,0,108.30946367444163,-262.5358262762528Z"><title>BE &gt; US 2</title></path><path style="mix-blend-mode: multiply;" fill="#f781bf" d="M154.56322113893782,-238.25660677336066A284,284,0,0,1,154.83598993180115,-238.07943258887184Q0,0,251.52067432361724,131.88385188412144A284,284,0,0,1,251.36946563328647,132.17182660172332Q0,0,154.56322113893782,-238.25660677336066Z"><title>CA &gt; GB 2</title></path><path style="mix-blend-mode: multiply;" fill="#e41a1c" d="M204.49770421586913,-197.07026404417002A284,284,0,0,1,204.72327042884038,-196.83592798297747Q0,0,223.19319732317646,-175.61547958154947A284,284,0,0,1,223.39417957248813,-175.35974604547914Q0,0,204.49770421586913,-197.07026404417002Z"><title>CL &gt; CN 2</title></path><path style="mix-blend-mode: multiply;" fill="#e41a1c" d="M205.41266116859163,-196.11639052266227A284,284,0,0,1,205.63713433070495,-195.88100720655797Q0,0,-230.32941241913016,-166.14560413883433A284,284,0,0,1,-230.13897837975045,-166.40928649064256Q0,0,205.41266116859163,-196.11639052266227Z"><title>CL &gt; US 2</title></path><path style="mix-blend-mode: multiply;" fill="#4daf4a" d="M241.7520802853709,-149.0366789676138A284,284,0,0,1,241.9226102352762,-148.7597077738143Q0,0,-231.10016519880025,-165.07184388952356A284,284,0,0,1,-230.91096040842405,-165.3364096720962Q0,0,241.7520802853709,-149.0366789676138Z"><title>CO &gt; US 2</title></path><path style="mix-blend-mode: multiply;" fill="#a65628" d="M275.8665712362157,-67.48062591865873A284,284,0,0,1,275.94367442170926,-67.16463762014729Q0,0,66.12849513297742,-276.19381262339635A284,284,0,0,1,66.44477058891891,-276.1178959455289Q0,0,275.8665712362157,-67.48062591865873Z"><title>DE &gt; AU 2</title></path><path style="mix-blend-mode: multiply;" fill="#a65628" d="M276.1776406974685,-66.19600274019564A284,284,0,0,1,276.2532724276941,-65.87965902302632Q0,0,-129.3608494475893,252.82755116916775A284,284,0,0,1,-129.65032255776046,252.67923116209744Q0,0,276.1776406974685,-66.19600274019564Z"><title>DE &gt; NO 2</title></path><path style="mix-blend-mode: multiply;" fill="#377eb8" d="M280.634872524215,43.58977315056368A284,284,0,0,1,280.58476604662087,43.91114963836659Q0,0,252.13174224588593,130.71183784207972A284,284,0,0,1,251.98187543723773,131.000513171256Q0,0,280.634872524215,43.58977315056368Z"><title>ES &gt; GB 2</title></path><path style="mix-blend-mode: multiply;" fill="#ff7f00" d="M269.8024311756895,88.67157454160468A284,284,0,0,1,269.70070058616477,88.98051530156422Q0,0,-231.86591231462256,-163.99450815959582A284,284,0,0,1,-231.67794087145367,-164.25995164239885Q0,0,269.8024311756895,88.67157454160468Z"><title>FR &gt; US 2</title></path><path style="mix-blend-mode: multiply;" fill="#ffff33" d="M244.44235669882704,144.58192920113981A284,284,0,0,1,244.27660981621315,144.8617889462144Q0,0,158.18278474134348,235.869045471155A284,284,0,0,1,157.91254526230622,236.05005411729962Q0,0,244.44235669882704,144.58192920113981Z"><title>GB &gt; IL 2</title></path><path style="mix-blend-mode: multiply;" fill="#ffff33" d="M243.76682017860372,145.71800636850713A284,284,0,0,1,243.59977261431638,145.9970916910791Q0,0,115.88881124453583,259.2793540340772A284,284,0,0,1,115.59178818102295,259.41190895005866Q0,0,243.76682017860372,145.71800636850713Z"><title>GB &gt; IS 2</title></path><path style="mix-blend-mode: multiply;" fill="#ffff33" d="M243.08600363290748,146.85092726224818A284,284,0,0,1,242.9176590052217,147.12923211728807Q0,0,-257.2296795199376,120.36981338388048A284,284,0,0,1,-257.3673677754014,120.07513482966097Q0,0,243.08600363290748,146.85092726224818Z"><title>GB &gt; SG 2</title></path><path style="mix-blend-mode: multiply;" fill="#ffff33" d="M136.10968073608294,249.2592120863772A284,284,0,0,1,135.8241202638498,249.41493210020778Q0,0,-232.62663718040113,-162.91362028430288A284,284,0,0,1,-232.43990315592887,-163.17993571779104Q0,0,136.10968073608294,249.2592120863772Z"><title>IN &gt; US 2</title></path><path style="mix-blend-mode: multiply;" fill="#a65628" d="M126.09881363950063,254.47021279259874A284,284,0,0,1,125.80729168583304,254.61446415841291Q0,0,64.8423636057007,-276.49858567816597A284,284,0,0,1,65.15898895514347,-276.42414177915697Q0,0,126.09881363950063,254.47021279259874Z"><title>IR &gt; AU 2</title></path><path style="mix-blend-mode: multiply;" fill="#e41a1c" d="M70.92752426604277,275.0005205476708A284,284,0,0,1,70.61252557614758,275.08157195958785Q0,0,148.97758346675792,-241.7885018449082A284,284,0,0,1,149.25440092621653,-241.61772245461677Q0,0,70.92752426604277,275.0005205476708Z"><title>JP &gt; CA 2</title></path><path style="mix-blend-mode: multiply;" fill="#4daf4a" d="M18.03972983932467,283.4264774987054A284,284,0,0,1,17.715115767893263,283.44695213272297Q0,0,252.7373489572293,129.53699256224724A284,284,0,0,1,252.58882727640093,129.82636225024748Q0,0,18.03972983932467,283.4264774987054Z"><title>KR &gt; GB 2</title></path><path style="mix-blend-mode: multiply;" fill="#999999" d="M-99.70628825657306,265.92227451286806A284,284,0,0,1,-100.01077791976134,265.8079086481141Q0,0,26.996001223930378,-282.71401790133706A284,284,0,0,1,27.319769794874187,-282.68291454977447Q0,0,-99.70628825657306,265.92227451286806Z"><title>NL &gt; AT 2</title></path><path style="mix-blend-mode: multiply;" fill="#999999" d="M-100.94281969487898,265.4553581151587A284,284,0,0,1,-101.24677379781673,265.33957638379866Q0,0,-244.23005440971204,144.94026536138637A284,284,0,0,1,-244.39589120020665,144.66045888374867Q0,0,-100.94281969487898,265.4553581151587Z"><title>NL &gt; SE 2</title></path><path style="mix-blend-mode: multiply;" fill="#999999" d="M-102.17716469674163,264.98269191502857A284,284,0,0,1,-102.48057665573793,264.86549682491193Q0,0,-14.08701005051406,-283.6504118590994A284,284,0,0,1,-13.762142104201178,-283.6663593814109Q0,0,-102.17716469674163,264.98269191502857Z"><title>NL &gt; ZA 2</title></path><path style="mix-blend-mode: multiply;" fill="#e41a1c" d="M-132.87814273232468,250.99681110326472A284,284,0,0,1,-133.1655168285757,250.84446401660594Q0,0,179.686067742183,-219.9293456075192A284,284,0,0,1,179.93783024119838,-219.72341078749363Q0,0,-132.87814273232468,250.99681110326472Z"><title>NO &gt; CH 2</title></path><path style="mix-blend-mode: multiply;" fill="#ffff33" d="M-220.33964591258476,179.18270128312267A284,284,0,0,1,-220.54471549553185,178.93023351852787Q0,0,-283.85912027543037,8.94426276776122A284,284,0,0,1,-283.86917778316285,8.619159164970048Q0,0,-220.33964591258476,179.18270128312267Z"><title>PT &gt; UK 2</title></path><path style="mix-blend-mode: multiply;" fill="#999999" d="M-246.55850672122543,140.94290604141608A284,284,0,0,1,-246.71976389511107,140.66043545908937Q0,0,25.679948248446863,-282.83659639084385A284,284,0,0,1,26.003858069003797,-282.8070002060188Q0,0,-246.55850672122543,140.94290604141608Z"><title>SE &gt; AT 2</title></path><path style="mix-blend-mode: multiply;" fill="#999999" d="M-247.21178952875758,139.79388798509495A284,284,0,0,1,-247.37173032856668,139.51066996560112Q0,0,283.8889909570751,-7.939824517817174A284,284,0,0,1,283.8978980837228,-7.614687363520239Q0,0,-247.21178952875758,139.79388798509495Z"><title>SE &gt; DK 2</title></path><path style="mix-blend-mode: multiply;" fill="#999999" d="M-247.85971769226984,138.6418419724302A284,284,0,0,1,-248.01833865366098,138.35788265031357Q0,0,-233.38232331872243,-161.8292036758363A284,284,0,0,1,-233.19683075763348,-162.09638529157783Q0,0,-247.85971769226984,138.6418419724302Z"><title>SE &gt; US 2</title></path><path style="mix-blend-mode: multiply;" fill="#e41a1c" d="M-259.96082037232844,114.35196487750437A284,284,0,0,1,-260.09161472433834,114.05416235318349Q0,0,24.363339041476234,-282.9530485977313A284,284,0,0,1,24.687383095711557,-282.92496022070156Q0,0,-259.96082037232844,114.35196487750437Z"><title>SG &gt; AT 2</title></path><path style="mix-blend-mode: multiply;" fill="#ffff33" d="M-281.3552369394268,38.66821235535744A284,284,0,0,1,-281.3993382885708,38.34595690231861Q0,0,-234.1329543613127,-160.7412818228207A284,284,0,0,1,-233.94870728140344,-161.00932383362218Q0,0,-281.3552369394268,38.66821235535744Z"><title>TW &gt; US 2</title></path><path style="mix-blend-mode: multiply;" fill="#999999" d="M-216.9045313805639,-183.3260054290661A284,284,0,0,1,-216.69442980206898,-183.57430128630804Q0,0,23.046202120969106,-283.0633719996274A284,284,0,0,1,23.3703733900406,-283.0367920387915Q0,0,-216.9045313805639,-183.3260054290661Z"><title>US &gt; AT 2</title></path><path style="mix-blend-mode: multiply;" fill="#999999" d="M-216.04897685510676,-184.33350102426186A284,284,0,0,1,-215.83772197470518,-184.58081637258482Q0,0,102.78776555741543,-264.7464357677244A284,284,0,0,1,103.09090653688322,-264.628541524537Q0,0,-216.04897685510676,-184.33350102426186Z"><title>US &gt; BE 2</title></path><path style="mix-blend-mode: multiply;" fill="#999999" d="M-215.1887426767733,-185.33700392849087A284,284,0,0,1,-214.9763390702771,-185.5833334110077Q0,0,240.3543790991251,-151.28044304494233A284,284,0,0,1,240.52747970035992,-151.00507113667723Q0,0,-215.1887426767733,-185.33700392849087Z"><title>US &gt; CO 2</title></path><path style="mix-blend-mode: multiply;" fill="#999999" d="M-214.32384747836343,-186.33649240573143A284,284,0,0,1,-214.11029974646627,-186.581830686909Q0,0,258.3148592865107,-118.02302093994284A284,284,0,0,1,258.44985909943705,-117.72710109180949Q0,0,-214.32384747836343,-186.33649240573143Z"><title>US &gt; CZ 2</title></path><path style="mix-blend-mode: multiply;" fill="#999999" d="M-213.4543099936354,-187.3319448069149A284,284,0,0,1,-213.23962276181274,-187.57628657268964Q0,0,-27.00213439914885,282.71343218511976A284,284,0,0,1,-27.325902295262157,282.68232180974775Q0,0,-213.4543099936354,-187.3319448069149Z"><title>US &gt; LV 2</title></path><path style="mix-blend-mode: multiply;" fill="#999999" d="M-212.5801490569,-188.32333957039464A284,284,0,0,1,-212.3643269753092,-188.56667952828772Q0,0,-128.1827804807851,253.42686279914142A284,284,0,0,1,-128.47294074227332,253.27989161603875Q0,0,-212.5801490569,-188.32333957039464Z"><title>US &gt; NO 2</title></path><path style="mix-blend-mode: multiply;" fill="#999999" d="M-211.70138360261285,-189.3106552224131A284,284,0,0,1,-211.48443134599216,-189.55298810164487Q0,0,-243.55285248012171,146.07535058590844A284,284,0,0,1,-243.71998970340763,145.79631894863078Q0,0,-211.70138360261285,-189.3106552224131Z"><title>US &gt; SE 2</title></path><path style="mix-blend-mode: multiply;" fill="#999999" d="M-210.818032664964,-190.29387037756678A284,284,0,0,1,-210.59995493253143,-190.53519092917122Q0,0,-272.2721756857984,80.7704299067532A284,284,0,0,1,-272.36450175488983,80.4585494761781Q0,0,-210.818032664964,-190.29387037756678Z"><title>US &gt; TH 2</title></path><path style="mix-blend-mode: multiply;" fill="#999999" d="M-209.93011537746563,-191.2729637392697A284,284,0,0,1,-209.71091689281727,-191.5132667362078Q0,0,-282.66941749370466,27.459067969792734A284,284,0,0,1,-282.70068038931873,27.13531476538016Q0,0,-209.93011537746563,-191.2729637392697Z"><title>US &gt; UG 2</title></path><path style="mix-blend-mode: multiply;" fill="#ffff33" d="M109.53014129502408,-262.02890708448956A284,284,0,0,1,110.43932320183555,-261.6470062712748Q0,0,-92.86748201132663,268.3870913156516A284,284,0,0,1,-93.79884187239902,268.06300987528414Q0,0,109.53014129502408,-262.02890708448956Z"><title>BE &gt; NL 3</title></path><path style="mix-blend-mode: multiply;" fill="#999999" d="M185.25618191047434,-215.25832635220698A284,284,0,0,1,186.00250595745013,-214.61376418475288Q0,0,253.6354905915751,127.76947175429282A284,284,0,0,1,253.19030800410934,128.64939927098084Q0,0,185.25618191047434,-215.25832635220698Z"><title>CH &gt; GB 3</title></path><path style="mix-blend-mode: multiply;" fill="#ff7f00" d="M269.3868286866568,89.9262838670975A284,284,0,0,1,269.07295393309073,90.861132844142Q0,0,147.28602305059664,-242.82262541604135A284,284,0,0,1,148.12828743297013,-242.3097407496764Q0,0,269.3868286866568,89.9262838670975Z"><title>FR &gt; CA 3</title></path><path style="mix-blend-mode: multiply;" fill="#ffff33" d="M242.39992180832562,147.9806673431284A284,284,0,0,1,241.88462767887216,148.82145978538645Q0,0,62.910541600162105,-276.944513857152A284,284,0,0,1,63.87179596800493,-276.7244002248836Q0,0,242.39992180832562,147.9806673431284Z"><title>GB &gt; AU 3</title></path><path style="mix-blend-mode: multiply;" fill="#f781bf" d="M215.98574052032876,184.40759174146064A284,284,0,0,1,215.34412052484717,185.15644670218776Q0,0,-235.24938708464828,-159.10287827785302A284,284,0,0,1,-234.69551644148177,-159.9187748898364Q0,0,215.98574052032876,184.40759174146064Z"><title>GH &gt; US 3</title></path><path style="mix-blend-mode: multiply;" fill="#999999" d="M96.22958820724128,267.20004931411364A284,284,0,0,1,95.30121014797326,267.53257623013286Q0,0,254.52127124355127,125.99572407255177A284,284,0,0,1,254.08224229506345,126.87873797572495Q0,0,96.22958820724128,267.20004931411364Z"><title>IT &gt; GB 3</title></path><path style="mix-blend-mode: multiply;" fill="#e41a1c" d="M69.64689438662796,275.3276413698739A284,284,0,0,1,68.69045516560288,275.56781627966336Q0,0,22.653916550133093,283.09503716056133A284,284,0,0,1,21.67078991798718,283.17199166642604Q0,0,69.64689438662796,275.3276413698739Z"><title>JP &gt; KR 3</title></path><path style="mix-blend-mode: multiply;" fill="#999999" d="M-103.40929652606522,264.5042861504976A284,284,0,0,1,-104.32711058347734,264.1436238058812Q0,0,255.39464774443968,124.2158359610141A284,284,0,0,1,254.96179383110382,125.10189321679233Q0,0,-103.40929652606522,264.5042861504976Z"><title>NL &gt; GB 3</title></path><path style="mix-blend-mode: multiply;" fill="#999999" d="M-209.03765097253796,-192.2479141002144A284,284,0,0,1,-208.3688489349575,-192.97259596512885Q0,0,281.82491926907545,35.08154613153612A284,284,0,0,1,281.701406754628,36.05991448220073Q0,0,-209.03765097253796,-192.2479141002144Z"><title>US &gt; ES 3</title></path><path style="mix-blend-mode: multiply;" fill="#999999" d="M-207.69047083316332,-193.702525345177A284,284,0,0,1,-207.01662607463493,-194.4225206314196Q0,0,275.50432903055764,68.94464943287662A284,284,0,0,1,275.26327186549116,69.90086667491813Q0,0,-207.69047083316332,-193.702525345177Z"><title>US &gt; FI 3</title></path><path style="mix-blend-mode: multiply;" fill="#999999" d="M-206.33316885223445,-195.14769645423772A284,284,0,0,1,-205.6543142127332,-195.8629700726771Q0,0,191.54467898155988,209.68222612766007A284,284,0,0,1,190.81544528899892,210.3460620956833Q0,0,-206.33316885223445,-195.14769645423772Z"><title>US &gt; HU 3</title></path><path style="mix-blend-mode: multiply;" fill="#999999" d="M-204.96581117816703,-196.58335699665926A284,284,0,0,1,-204.28197974182564,-197.2938740882756Q0,0,137.84644742853015,248.3029539319528A284,284,0,0,1,136.98343481313483,248.78010086579602Q0,0,-204.96581117816703,-196.58335699665926Z"><title>US &gt; IN 3</title></path><path style="mix-blend-mode: multiply;" fill="#999999" d="M-203.58846444944314,-198.00943700520395A284,284,0,0,1,-202.8996895429396,-198.71516294278786Q0,0,-2.4870004800783683,283.9891104049803A284,284,0,0,1,-3.473080039569464,283.9787627887669Q0,0,-203.58846444944314,-198.00943700520395Z"><title>US &gt; LB 3</title></path><path style="mix-blend-mode: multiply;" fill="#e41a1c" d="M206.3231688526128,-195.15826909105397A284,284,0,0,1,207.45148004401383,-193.9584579943554Q0,0,-90.36532083033548,269.2398722166361A284,284,0,0,1,-91.92520318378696,268.7112893415896Q0,0,206.3231688526128,-195.15826909105397Z"><title>CL &gt; NL 4</title></path><path style="mix-blend-mode: multiply;" fill="#a65628" d="M276.48272811006984,-64.90994574649707A284,284,0,0,1,276.8545108027946,-63.30544880296863Q0,0,100.31906173037302,-265.6917120527805A284,284,0,0,1,101.85819986703105,-265.1054641455886Q0,0,276.48272811006984,-64.90994574649707Z"><title>DE &gt; BE 4</title></path><path style="mix-blend-mode: multiply;" fill="#f781bf" d="M283.98760051203686,-2.653819024679303A284,284,0,0,1,283.9982152428599,-1.0068460012537992Q0,0,-236.72012038750228,-156.90629242871822A284,284,0,0,1,-235.80619351978225,-158.2764641306818Q0,0,283.98760051203686,-2.653819024679303Z"><title>DK &gt; US 4</title></path><path style="mix-blend-mode: multiply;" fill="#377eb8" d="M48.268470511068806,279.8681024241992A284,284,0,0,1,46.64462062105168,280.14331933336933Q0,0,-238.17034422977432,-154.69611219895222A284,284,0,0,1,-237.2692104662392,-156.07473134600454Q0,0,48.268470511068806,279.8681024241992Z"><title>KE &gt; US 4</title></path><path style="mix-blend-mode: multiply;" fill="#999999" d="M-105.2532862044443,263.77593852200647A284,284,0,0,1,-106.7812312274716,263.16110779814187Q0,0,97.84166624738356,-266.6139687749605A284,284,0,0,1,99.38619448458329,-266.0420725108579Q0,0,-105.2532862044443,263.77593852200647Z"><title>NL &gt; BE 4</title></path><path style="mix-blend-mode: multiply;" fill="#999999" d="M-107.70394432401015,262.7848176304151A284,284,0,0,1,-109.22610033235225,262.15579147939286Q0,0,272.052011308723,-81.50891449944874A284,284,0,0,1,272.52013085583803,-79.9298334685923Q0,0,-107.70394432401015,262.7848176304151Z"><title>NL &gt; DE 4</title></path><path style="mix-blend-mode: multiply;" fill="#377eb8" d="M-147.29129079594608,242.81943014442658A284,284,0,0,1,-148.69699589223706,241.96116095899364Q0,0,-239.59993296389098,-152.4725290788441A284,284,0,0,1,-238.71167037888173,-153.85947622725135Q0,0,-147.29129079594608,242.81943014442658Z"><title>NZ &gt; US 4</title></path><path style="mix-blend-mode: multiply;" fill="#f781bf" d="M-283.93007638231444,6.301724012768445A284,284,0,0,1,-283.96184736436754,4.655023245445621Q0,0,256.53978091906606,121.83325000178556A284,284,0,0,1,255.82891974708954,123.31895158910986Q0,0,-283.93007638231444,6.301724012768445Z"><title>UK &gt; GB 4</title></path><path style="mix-blend-mode: multiply;" fill="#999999" d="M-202.2011957913637,-199.42586697954354A284,284,0,0,1,-201.04126576137847,-200.59513817902663Q0,0,198.9156443623569,-202.70314853970166A284,284,0,0,1,200.08783511476727,-201.5461690012631Q0,0,-202.2011957913637,-199.42586697954354Z"><title>US &gt; CL 4</title></path><path style="mix-blend-mode: multiply;" fill="#999999" d="M-200.33618705896245,-201.29930987133662A284,284,0,0,1,-199.16542373962417,-202.4577338276213Q0,0,283.80278924477363,-10.581909888417298A284,284,0,0,1,283.8593844357546,-8.935875321113313Q0,0,-200.33618705896245,-201.29930987133662Z"><title>US &gt; DK 4</title></path><path style="mix-blend-mode: multiply;" fill="#999999" d="M-198.45382117447426,-203.1553121659628A284,284,0,0,1,-197.27232600086205,-204.30278851305383Q0,0,271.6001963684866,83.00200800341837A284,284,0,0,1,271.11427583895056,84.57570239921994Q0,0,-198.45382117447426,-203.1553121659628Z"><title>US &gt; FR 4</title></path><path style="mix-blend-mode: multiply;" fill="#999999" d="M-196.55426122631266,-204.99371305915324A284,284,0,0,1,-195.36213656331492,-206.1301423795576Q0,0,104.88192430710318,263.9238184659336A284,284,0,0,1,103.3495880373694,264.52762171936985Q0,0,-196.55426122631266,-204.99371305915324Z"><title>US &gt; IT 4</title></path><path style="mix-blend-mode: multiply;" fill="#999999" d="M-194.63767179258716,-206.8143532716265A284,284,0,0,1,-193.43502092603248,-207.939637104967Q0,0,-38.21338834087553,281.4173714458818A284,284,0,0,1,-39.84476861742967,281.19102833096133Q0,0,-194.63767179258716,-206.8143532716265Z"><title>US &gt; MX 4</title></path><path style="mix-blend-mode: multiply;" fill="#999999" d="M-192.70421892684394,-208.61707506288886A284,284,0,0,1,-191.49114605455253,-209.73111591443467Q0,0,-209.9593378235133,191.24088595463004A284,284,0,0,1,-211.06486980118953,190.0200535096412Q0,0,-192.70421892684394,-208.61707506288886Z"><title>US &gt; PL 4</title></path><path style="mix-blend-mode: multiply;" fill="#999999" d="M-190.754070143679,-210.4017222449008A284,284,0,0,1,-189.53068036643495,-211.5044235940144Q0,0,-227.2848290183609,170.2868359506819A284,284,0,0,1,-228.26855089333017,168.96588020384212Q0,0,-190.754070143679,-210.4017222449008Z"><title>US &gt; QA 4</title></path><path style="mix-blend-mode: multiply;" fill="#ffff33" d="M241.36095921228485,149.66925993044052A284,284,0,0,1,240.13673769808105,151.6256812275645Q0,0,-283.73584133008353,12.246319639372393A284,284,0,0,1,-283.82598960048085,9.940202578808417Q0,0,241.36095921228485,149.66925993044052Z"><title>GB &gt; UK 5</title></path><path style="mix-blend-mode: multiply;" fill="#4daf4a" d="M-272.8294009899254,78.867724421835A284,284,0,0,1,-273.4612925818269,76.64803624018336Q0,0,-241.35771223921049,-149.67449596592755A284,284,0,0,1,-240.13344828280418,-151.6308907044004Q0,0,-272.8294009899254,78.867724421835Z"><title>TH &gt; US 5</title></path><path style="mix-blend-mode: multiply;" fill="#984ea3" d="M74.45219455786021,-274.0672740870725A284,284,0,0,1,77.31300396669677,-273.2740372184038Q0,0,-243.4238974373082,-146.29014374328457A284,284,0,0,1,-241.88139909780188,-148.82670718150655Q0,0,74.45219455786021,-274.0672740870725Z"><title>AU &gt; US 6</title></path><path style="mix-blend-mode: multiply;" fill="#377eb8" d="M280.4289649483506,44.89538526393059A284,284,0,0,1,279.9443434339656,47.82430950182039Q0,0,-245.44262994119546,-142.87727393658298A284,284,0,0,1,-243.9356966813001,-145.4351260342863Q0,0,280.4289649483506,44.89538526393059Z"><title>ES &gt; US 6</title></path><path style="mix-blend-mode: multiply;" fill="#ffff33" d="M239.6032406377476,152.46733117586083A284,284,0,0,1,237.9963797323941,154.96361906677993Q0,0,282.28724796573056,31.14337226335875A284,284,0,0,1,281.94627732160745,34.09247284206904Q0,0,239.6032406377476,152.46733117586083Z"><title>GB &gt; ES 6</title></path><path style="mix-blend-mode: multiply;" fill="#ffff33" d="M237.45118380897313,155.79773845507918A284,284,0,0,1,235.80962710476342,158.271348527497Q0,0,-86.5974671235773,270.47528295166074A284,284,0,0,1,-89.42006519788634,269.5552854981808Q0,0,237.45118380897313,155.79773845507918Z"><title>GB &gt; NL 6</title></path><path style="mix-blend-mode: multiply;" fill="#999999" d="M-188.78739440422473,-212.16814019560923A284,284,0,0,1,-186.55924600028246,-214.12997859198998Q0,0,176.59796670379507,-222.41663192325632A284,284,0,0,1,178.91328131157337,-220.55846791797816Q0,0,-188.78739440422473,-212.16814019560923Z"><title>US &gt; CH 6</title></path><path style="mix-blend-mode: multiply;" fill="#999999" d="M-185.80676587465766,-214.783252967265A284,284,0,0,1,-183.55144405089044,-216.71379140892913Q0,0,-142.74565407223196,245.51920137433385A284,284,0,0,1,-145.30431377683863,244.01363977827558Q0,0,-185.80676587465766,-214.783252967265Z"><title>US &gt; NZ 6</title></path><path style="mix-blend-mode: multiply;" fill="#999999" d="M-182.78991644921254,-217.35649620954487A284,284,0,0,1,-180.50786085471802,-219.25535836018642Q0,0,-283.53720638757295,16.206560212792176A284,284,0,0,1,-283.69112527331833,13.241806567020726Q0,0,-182.78991644921254,-217.35649620954487Z"><title>US &gt; UK 6</title></path><path style="mix-blend-mode: multiply;" fill="#a65628" d="M277.0749304860788,-62.333641768587576A284,284,0,0,1,277.8489297760448,-58.787517572240596Q0,0,172.95171448438347,-225.26363323206942A284,284,0,0,1,175.81647198021537,-223.03490350263598Q0,0,277.0749304860788,-62.333641768587576Z"><title>DE &gt; CH 7</title></path><path style="mix-blend-mode: multiply;" fill="#a65628" d="M278.0534909801949,-57.812249166821715A284,284,0,0,1,278.7696266958406,-54.253988165495066Q0,0,258.4902225280335,117.63844974075329A284,284,0,0,1,256.9656859390006,120.93236229355206Q0,0,278.0534909801949,-57.812249166821715Z"><title>DE &gt; GB 7</title></path><path style="mix-blend-mode: multiply;" fill="#a65628" d="M-228.86000725392535,168.16389945447042A284,284,0,0,1,-230.99046094108417,165.2253217706822Q0,0,-247.73731843859187,-138.86043732055484A284,284,0,0,1,-245.94244180120097,-142.01519397889393Q0,0,-228.86000725392535,168.16389945447042Z"><title>QA &gt; US 7</title></path><path style="mix-blend-mode: multiply;" fill="#999999" d="M-179.73743422805057,-219.88736829822034A284,284,0,0,1,-176.91258219460292,-222.16646520399487Q0,0,-280.48375736411333,44.55178845915397A284,284,0,0,1,-281.03022515511503,40.96355147280758Q0,0,-179.73743422805057,-219.88736829822034Z"><title>US &gt; TW 7</title></path><path style="mix-blend-mode: multiply;" fill="#4daf4a" d="M34.8790428061946,-281.85005299436017A284,284,0,0,1,40.441644652965174,-281.10580459635355Q0,0,-250.90127192290583,-133.0584523713848A284,284,0,0,1,-248.22302203846053,-137.99033056737684Q0,0,34.8790428061946,-281.85005299436017Z"><title>AT &gt; US 10</title></path><path style="mix-blend-mode: multiply;" fill="#999999" d="M186.75439018188897,-213.95980404690687A284,284,0,0,1,190.9458135408347,-210.22772483958624Q0,0,270.0817940106598,-87.81699461939886A284,284,0,0,1,271.764341024544,-82.46297925430133Q0,0,186.75439018188897,-213.95980404690687Z"><title>CH &gt; DE 10</title></path><path style="mix-blend-mode: multiply;" fill="#ff7f00" d="M152.09401890684717,239.84038319841721A284,284,0,0,1,147.32502952053073,242.79896144088994Q0,0,-253.9293673239065,-127.18441889823052A284,284,0,0,1,-251.36659824616433,-132.17727976528874Q0,0,152.09401890684717,239.84038319841721Z"><title>IL &gt; US 10</title></path><path style="mix-blend-mode: multiply;" fill="#999999" d="M-176.13196331049502,-222.7858422350721A284,284,0,0,1,-171.16839108196916,-226.62167128147755Q0,0,164.16791160494125,231.74316990856968A284,284,0,0,1,159.00941999789043,235.3125673480583Q0,0,-176.13196331049502,-222.7858422350721Z"><title>US &gt; IL 11</title></path><path style="mix-blend-mode: multiply;" fill="#e41a1c" d="M67.72312969091676,275.8071386038934A284,284,0,0,1,59.67804807051425,277.65901854341666Q0,0,-257.93735156051264,-118.84579365694238A284,284,0,0,1,-254.37406440554125,-126.29265757677904Q0,0,67.72312969091676,275.8071386038934Z"><title>JP &gt; US 14</title></path><path style="mix-blend-mode: multiply;" fill="#4daf4a" d="M16.720458049847426,283.507365482104A284,284,0,0,1,8.47311372047772,283.87357457833207Q0,0,-261.67159841225737,-110.38104268566363A284,284,0,0,1,-258.35276569591844,-117.94002059212076Q0,0,16.720458049847426,283.507365482104Z"><title>KR &gt; US 14</title></path><path style="mix-blend-mode: multiply;" fill="#999999" d="M-170.37217528762318,-227.22086587231246A284,284,0,0,1,-163.6959091694287,-232.07681771601864Q0,0,-253.1724295209678,128.6845792255257A284,284,0,0,1,-256.8057467267021,121.27163084638104Q0,0,-170.37217528762318,-227.22086587231246Z"><title>US &gt; SG 14</title></path><path style="mix-blend-mode: multiply;" fill="#a65628" d="M278.95827514434,-53.27551715839758A284,284,0,0,1,280.4931910296097,-44.49235648992833Q0,0,-77.10559246665186,273.3326318066809A284,284,0,0,1,-85.64789991941873,270.7774681161511Q0,0,278.95827514434,-53.27551715839758Z"><title>DE &gt; NL 15</title></path><path style="mix-blend-mode: multiply;" fill="#999999" d="M-110.14527096048528,261.77092902964085A284,284,0,0,1,-118.30835675495595,258.1842999137284Q0,0,-265.3643160336875,-101.18191427312104A284,284,0,0,1,-262.0572887409759,-109.46221913394959Q0,0,-110.14527096048528,261.77092902964085Z"><title>NL &gt; US 15</title></path><path style="mix-blend-mode: multiply;" fill="#f781bf" d="M155.670401518685,-237.5346839748069A284,284,0,0,1,164.13068098121417,-231.76953976017404Q0,0,-269.15835734249964,-90.60782898120482A284,284,0,0,1,-265.717706053697,-100.25019047144534Q0,0,155.670401518685,-237.5346839748069Z"><title>CA &gt; US 17</title></path><path style="mix-blend-mode: multiply;" fill="#ffff33" d="M235.25283859794118,159.0977747538005A284,284,0,0,1,229.3656447228877,167.47358305372836Q0,0,-272.5312346026375,-79.89196559080378A284,284,0,0,1,-269.4746220298747,-89.66285787245552Q0,0,235.25283859794118,159.0977747538005Z"><title>GB &gt; US 17</title></path><path style="mix-blend-mode: multiply;" fill="#377eb8" d="M228.00948637806889,-169.31530976733677A284,284,0,0,1,234.33792995759225,-160.44230920549168Q0,0,-275.6376077549977,-68.40986179712705A284,284,0,0,1,-272.8098790839604,-78.93522581328871Q0,0,228.00948637806889,-169.31530976733677Z"><title>CN &gt; US 18</title></path><path style="mix-blend-mode: multiply;" fill="#999999" d="M-162.8805985482858,-232.64975954544235A284,284,0,0,1,-153.8342968511567,-238.7278976414575Q0,0,51.25852979534762,-279.3359323882616A284,284,0,0,1,61.93842119718199,-277.1635473499365Q0,0,-162.8805985482858,-232.64975954544235Z"><title>US &gt; AU 18</title></path><path style="mix-blend-mode: multiply;" fill="#999999" d="M-152.99570986081548,-239.26619645111836A284,284,0,0,1,-143.1324083916095,-245.29393320670917Q0,0,84.90697915831286,271.0107099179105A284,284,0,0,1,73.80828270651016,274.24138528660455Q0,0,-152.99570986081548,-239.26619645111836Z"><title>US &gt; JP 19</title></path><path style="mix-blend-mode: multiply;" fill="#999999" d="M-142.27084860523786,-245.7946411888296A284,284,0,0,1,-131.56543955820098,-251.6873757538454Q0,0,214.78123751400494,-185.80909561147053A284,284,0,0,1,222.5756300044216,-176.39753095815945Q0,0,-142.27084860523786,-245.7946411888296Z"><title>US &gt; CN 20</title></path><path style="mix-blend-mode: multiply;" fill="#999999" d="M-130.6815178892981,-252.14745860735746A284,284,0,0,1,-119.71354895175759,-257.53575712388977Q0,0,35.800017130549634,281.73455374421565A284,284,0,0,1,23.64709098031536,283.0138072394502Q0,0,-130.6815178892981,-252.14745860735746Z"><title>US &gt; KR 20</title></path><path style="mix-blend-mode: multiply;" fill="#999999" d="M-118.80917964566008,-257.954218480577A284,284,0,0,1,-107.60240335602415,-262.8264118995796Q0,0,-64.30565418945906,276.6239014244172A284,284,0,0,1,-76.14605792706382,273.60149462707295Q0,0,-118.80917964566008,-257.954218480577Z"><title>US &gt; NL 20</title></path><path style="mix-blend-mode: multiply;" fill="#e41a1c" d="M-260.49020289175496,113.14085998176053A284,284,0,0,1,-265.3524498558606,101.21302957373118Q0,0,-278.6502477366415,-54.86382630028943A284,284,0,0,1,-275.87594511349516,-67.44229316783205Q0,0,-260.49020289175496,113.14085998176053Z"><title>SG &gt; US 21</title></path><path style="mix-blend-mode: multiply;" fill="#999999" d="M-106.67954494004005,-263.20234552789606A284,284,0,0,1,-91.51352343952692,-268.8517714795332Q0,0,-166.64170037830738,229.97074530258504A284,284,0,0,1,-179.47095407160745,220.1049219000497Q0,0,-106.67954494004005,-263.20234552789606Z"><title>US &gt; PH 26</title></path><path style="mix-blend-mode: multiply;" fill="#999999" d="M-90.56962249322602,-269.171215922941A284,284,0,0,1,-74.4521945578549,-274.06727408707394Q0,0,265.3665110058472,101.17615745116822A284,284,0,0,1,258.90139697436257,116.73074421386826Q0,0,-90.56962249322602,-269.171215922941Z"><title>US &gt; GB 27</title></path><path style="mix-blend-mode: multiply;" fill="#999999" d="M-73.49009866495551,-274.3268222362063A284,284,0,0,1,-55.15353767632745,-278.5930495934633Q0,0,129.98940025464054,-252.50496197389637A284,284,0,0,1,146.43310893329166,-243.33792266749288Q0,0,-73.49009866495551,-274.3268222362063Z"><title>US &gt; CA 30</title></path><path style="mix-blend-mode: multiply;" fill="#999999" d="M-54.17568069935138,-278.784855436521A284,284,0,0,1,-35.58619685037049,-281.76164145200227Q0,0,263.29834102882023,-106.44239574281991A284,284,0,0,1,269.7720022855745,-88.7641075144226Q0,0,-54.17568069935138,-278.784855436521Z"><title>US &gt; DE 30</title></path><path style="mix-blend-mode: multiply;" fill="#a65628" d="M280.6475775993739,-43.50789799109355A284,284,0,0,1,283.1831033241729,-21.525101432764846Q0,0,-282.1900491412987,-32.012125290762A284,284,0,0,1,-278.84103669854437,-53.88577041187234Q0,0,280.6475775993739,-43.50789799109355Z"><title>DE &gt; US 35</title></path><path style="mix-blend-mode: multiply;" fill="#984ea3" d="M-184.29644753333287,216.08058549206473A284,284,0,0,1,-202.4235754730017,199.20014079494518Q0,0,-283.92998913940033,-6.305653598160785A284,284,0,0,1,-282.30063507060026,-31.021789741015436Q0,0,-184.29644753333287,216.08058549206473Z"><title>PH &gt; US 39</title></path></g></svg>